<svg xmlns="http://www.w3.org/2000/svg" xmlns:xlink="http://www.w3.org/1999/xlink" viewBox="0 0 89.05 52.58"><defs><style>.cls-1{isolation:isolate;}.cls-2{fill:url(#Безымянный_градиент_163);}.cls-3{fill:url(#Безымянный_градиент_160);}.cls-4{fill:url(#Безымянный_градиент_169);}.cls-10,.cls-11,.cls-12,.cls-13,.cls-14,.cls-15,.cls-17,.cls-5,.cls-6,.cls-8,.cls-9{mix-blend-mode:screen;}.cls-5{fill:url(#Безымянный_градиент_155);}.cls-6{fill:url(#Безымянный_градиент_168);}.cls-7{fill:#ffffab;}.cls-8{fill:url(#Безымянный_градиент_168-2);}.cls-9{fill:url(#Безымянный_градиент_168-3);}.cls-10{fill:url(#Безымянный_градиент_168-4);}.cls-11{fill:url(#Безымянный_градиент_168-5);}.cls-12{fill:url(#Безымянный_градиент_168-6);}.cls-13{fill:url(#Безымянный_градиент_168-7);}.cls-14{fill:url(#Безымянный_градиент_168-8);}.cls-15{fill:url(#Безымянный_градиент_168-9);}.cls-16{fill:#fff;}.cls-17{fill:url(#Безымянный_градиент_172);}</style><radialGradient id="Безымянный_градиент_163" cx="112.88" cy="48.87" r="64.46" gradientTransform="translate(-14.23) scale(0.53 1)" gradientUnits="userSpaceOnUse"><stop offset="0" stop-color="#ffbd00"/><stop offset="1" stop-color="#ff772c"/></radialGradient><linearGradient id="Безымянный_градиент_160" x1="44.53" y1="49.82" x2="44.53" y2="0.49" gradientUnits="userSpaceOnUse"><stop offset="0" stop-color="#fff300"/><stop offset="1" stop-color="#ff9700"/></linearGradient><linearGradient id="Безымянный_градиент_169" x1="44.53" y1="48.89" x2="44.53" y2="1.02" gradientUnits="userSpaceOnUse"><stop offset="0" stop-color="#fc0"/><stop offset="1" stop-color="#ff9700"/></linearGradient><linearGradient id="Безымянный_градиент_155" x1="-423.99" y1="42.97" x2="-343.85" y2="42.97" gradientTransform="matrix(-1, 0, 0, 1, -339.22, 0)" gradientUnits="userSpaceOnUse"><stop offset="0" stop-color="#ff6140"/><stop offset="0.1" stop-color="#ef5b3c"/><stop offset="0.29" stop-color="#c54b31"/><stop offset="0.55" stop-color="#813120"/><stop offset="0.88" stop-color="#240e09"/><stop offset="1"/></linearGradient><radialGradient id="Безымянный_градиент_168" cx="178.69" cy="-301.12" r="1.55" gradientTransform="matrix(-0.06, -1, 1, -0.06, 330.2, 177.26)" gradientUnits="userSpaceOnUse"><stop offset="0" stop-color="#00b359"/><stop offset="0.13" stop-color="#009148"/><stop offset="0.34" stop-color="#005e2f"/><stop offset="0.54" stop-color="#00351a"/><stop offset="0.73" stop-color="#00180c"/><stop offset="0.89" stop-color="#000603"/><stop offset="1"/></radialGradient><radialGradient id="Безымянный_градиент_168-2" cx="185.2" cy="-298.63" r="1.55" xlink:href="#Безымянный_градиент_168"/><radialGradient id="Безымянный_градиент_168-3" cx="166.26" cy="-301" r="1.55" xlink:href="#Безымянный_градиент_168"/><radialGradient id="Безымянный_градиент_168-4" cx="186.31" cy="-306.93" r="4.33" xlink:href="#Безымянный_градиент_168"/><radialGradient id="Безымянный_градиент_168-5" cx="154.86" cy="-296.58" r="2.07" xlink:href="#Безымянный_градиент_168"/><radialGradient id="Безымянный_градиент_168-6" cx="151.54" cy="-315.22" r="1.03" xlink:href="#Безымянный_градиент_168"/><radialGradient id="Безымянный_градиент_168-7" cx="167.52" cy="-285.18" r="1.03" xlink:href="#Безымянный_градиент_168"/><radialGradient id="Безымянный_градиент_168-8" cx="152.45" cy="-300.45" r="0.77" xlink:href="#Безымянный_градиент_168"/><radialGradient id="Безымянный_градиент_168-9" cx="151.52" cy="-288.47" r="1.61" xlink:href="#Безымянный_градиент_168"/><linearGradient id="Безымянный_градиент_172" x1="4.54" y1="11.76" x2="87.36" y2="11.76" gradientUnits="userSpaceOnUse"><stop offset="0" stop-color="#ff9840"/><stop offset="0.1" stop-color="#ef8e3c"/><stop offset="0.29" stop-color="#c57531"/><stop offset="0.55" stop-color="#814d20"/><stop offset="0.88" stop-color="#241609"/><stop offset="1"/></linearGradient></defs><title>button</title><g class="cls-1"><g id="Слой_2" data-name="Слой 2"><g id="space"><path class="cls-2" d="M1.07,44.86c2.2,8.6,81,11,85.56,2.07,4.12-8.12,2.44-37.22-1.08-43C80.74-4,7.87,1.55,4,7.77.34,13.57-1.21,35.94,1.07,44.86Z"/><path class="cls-3" d="M1.25,43.34c2.19,8.29,80.69,8.89,85.21.26,4.11-7.84,2.5-33.75-1-39.35C80.65-3.37,8,2,4.08,8,.46,13.57-1,34.74,1.25,43.34Z"/><path class="cls-4" d="M1.91,42.6c2.14,8,79.49,8.63,83.92.26,4-7.61,2.44-32.76-1-38.19C80.14-2.72,8.47,2.47,4.68,8.29,1.14,13.72-.32,34.26,1.91,42.6Z"/><path class="cls-5" d="M84.78,43S35.11,51,4.63,44c0,0,19.8,3.21,28.61,0C48.2,38.49,80.85,36.87,84.78,43Z"/><path class="cls-6" d="M18.88,15.29a1.55,1.55,0,1,1-1.45,1.63A1.54,1.54,0,0,1,18.88,15.29Z"/><path class="cls-7" d="M19.06,16.4a.43.43,0,1,1-.4.45A.43.43,0,0,1,19.06,16.4Z"/><path class="cls-8" d="M21,8.65a1.55,1.55,0,1,1-1.45,1.64A1.54,1.54,0,0,1,21,8.65Z"/><path class="cls-7" d="M21.16,9.76a.44.44,0,0,1,.46.4.43.43,0,0,1-.86.05A.43.43,0,0,1,21.16,9.76Z"/><path class="cls-9" d="M19.74,27.7a1.54,1.54,0,1,1-1.45,1.63A1.54,1.54,0,0,1,19.74,27.7Z"/><path class="cls-7" d="M19.93,28.81a.42.42,0,0,1,.45.4.43.43,0,0,1-.4.45.44.44,0,0,1-.46-.4A.43.43,0,0,1,19.93,28.81Z"/><path class="cls-10" d="M12.46,5.25A4.33,4.33,0,1,1,8.4,9.83,4.33,4.33,0,0,1,12.46,5.25Z"/><path class="cls-7" d="M13,8.36a1.2,1.2,0,1,1-1.12,1.26A1.2,1.2,0,0,1,13,8.36Z"/><path class="cls-11" d="M24.8,38.29a2.06,2.06,0,1,1-1.94,2.18A2.07,2.07,0,0,1,24.8,38.29Z"/><path class="cls-7" d="M25.05,39.77a.57.57,0,1,1-.53.6A.57.57,0,0,1,25.05,39.77Z"/><path class="cls-12" d="M6.45,43.74a1,1,0,1,1-1,1.1A1,1,0,0,1,6.45,43.74Z"/><path class="cls-7" d="M6.58,44.48a.28.28,0,0,1,.3.27.29.29,0,0,1-.27.31.3.3,0,0,1-.3-.27A.29.29,0,0,1,6.58,44.48Z"/><path class="cls-13" d="M35.49,26a1,1,0,1,1-1,1.1A1,1,0,0,1,35.49,26Z"/><path class="cls-7" d="M35.62,26.74a.3.3,0,0,1,.3.27.29.29,0,1,1-.3-.27Z"/><path class="cls-14" d="M21.16,42.22a.77.77,0,0,1,.09,1.54.77.77,0,1,1-.09-1.54Z"/><path class="cls-7" d="M21.25,42.77a.22.22,0,1,1-.2.23A.21.21,0,0,1,21.25,42.77Z"/><path class="cls-15" d="M33.13,41.59a1.61,1.61,0,1,1-1.52,1.71A1.62,1.62,0,0,1,33.13,41.59Z"/><path class="cls-7" d="M33.32,42.75a.43.43,0,0,1,.47.42.45.45,0,0,1-.42.47.45.45,0,0,1-.47-.42A.44.44,0,0,1,33.32,42.75Z"/><path class="cls-16" d="M83.36,44.56c-.28-.92,2.16-5.12,2.78-5.1s.06,2.76-.31,3.4S83.49,45,83.36,44.56Z"/><path class="cls-17" d="M4.54,8.33S66.19-5.43,85,4.8a40.57,40.57,0,0,1,2.4,10A26,26,0,0,1,70.2,22.48c-9.67.66-44.54-11.68-52.7-13.21S4.54,8.33,4.54,8.33Z"/><path class="cls-16" d="M4.54,9.81A10.73,10.73,0,0,1,9.27,5.32c3.3-1.57,8.39-1,8.93-.58s-.87,1.44-3.52,2.41S5.89,10.55,4.54,9.81Z"/><path class="cls-16" d="M4.71,10.59C4,10.69,2.34,16,2.44,16.83S4.58,15,4.9,13.5A6,6,0,0,0,4.71,10.59Z"/></g></g></g></svg>