<svg xmlns="http://www.w3.org/2000/svg" xmlns:xlink="http://www.w3.org/1999/xlink" viewBox="0 0 30.7 33.25"><defs><style>.cls-1{isolation:isolate;}.cls-2{fill:url(#Безымянный_градиент_163);}.cls-3{fill:url(#Безымянный_градиент_240);}.cls-15,.cls-4{mix-blend-mode:screen;}.cls-4{fill:url(#Безымянный_градиент_172);}.cls-5{fill:url(#Безымянный_градиент_163-2);}.cls-6{fill:url(#Безымянный_градиент_169);}.cls-7{fill:url(#Безымянный_градиент_163-3);}.cls-8{fill:url(#Безымянный_градиент_247);}.cls-9{fill:url(#Безымянный_градиент_163-4);}.cls-10{fill:url(#Безымянный_градиент_247-2);}.cls-11{fill:url(#Безымянный_градиент_163-5);}.cls-12{fill:url(#Безымянный_градиент_247-3);}.cls-13{fill:url(#Безымянный_градиент_163-6);}.cls-14{fill:url(#Безымянный_градиент_247-4);}.cls-15{fill:url(#Безымянный_градиент_172-2);}.cls-16{fill:#fff;}</style><radialGradient id="Безымянный_градиент_163" cx="-6.2" cy="-5.55" r="14.49" gradientTransform="matrix(0.85, -0.53, 0.53, 0.85, 21.67, 19.27)" gradientUnits="userSpaceOnUse"><stop offset="0" stop-color="#ffbd00"/><stop offset="1" stop-color="#ff772c"/></radialGradient><linearGradient id="Безымянный_градиент_240" x1="-1.73" y1="11.02" x2="-1.73" y2="-22.13" gradientTransform="matrix(1, 0, 0, 1, 19.01, 21.01)" gradientUnits="userSpaceOnUse"><stop offset="0" stop-color="#fc0"/><stop offset="1" stop-color="#ffbd00"/></linearGradient><linearGradient id="Безымянный_градиент_172" x1="-12.09" y1="-6.68" x2="7.88" y2="-6.68" gradientTransform="matrix(0.85, -0.53, 0.53, 0.85, 21.67, 19.27)" gradientUnits="userSpaceOnUse"><stop offset="0" stop-color="#ff9840"/><stop offset="0.1" stop-color="#ef8e3c"/><stop offset="0.29" stop-color="#c57531"/><stop offset="0.55" stop-color="#814d20"/><stop offset="0.88" stop-color="#241609"/><stop offset="1"/></linearGradient><radialGradient id="Безымянный_градиент_163-2" cx="-1.74" cy="-5.56" r="10.21" xlink:href="#Безымянный_градиент_163"/><linearGradient id="Безымянный_градиент_169" x1="-2.28" y1="6.11" x2="-2.28" y2="-17.22" gradientTransform="matrix(0.85, -0.53, 0.53, 0.85, 21.67, 19.27)" gradientUnits="userSpaceOnUse"><stop offset="0" stop-color="#fc0"/><stop offset="1" stop-color="#ff9700"/></linearGradient><radialGradient id="Безымянный_градиент_163-3" cx="-17.73" cy="-155.33" r="1.34" gradientTransform="matrix(-0.5, -0.87, 0.74, -0.43, 132.67, -71.08)" xlink:href="#Безымянный_градиент_163"/><linearGradient id="Безымянный_градиент_247" x1="-18.87" y1="-155.48" x2="-16.59" y2="-155.57" gradientTransform="matrix(-0.5, -0.87, 0.74, -0.43, 132.67, -71.08)" gradientUnits="userSpaceOnUse"><stop offset="0" stop-color="#00fff4"/><stop offset="1" stop-color="#30a7fb"/></linearGradient><radialGradient id="Безымянный_градиент_163-4" cx="-4.08" cy="-167.32" r="1.34" gradientTransform="matrix(-0.5, -0.87, 0.74, -0.43, 132.67, -71.08)" xlink:href="#Безымянный_градиент_163"/><linearGradient id="Безымянный_градиент_247-2" x1="-5.22" y1="-167.47" x2="-2.94" y2="-167.56" xlink:href="#Безымянный_градиент_247"/><radialGradient id="Безымянный_градиент_163-5" cx="-31.73" cy="-166.27" r="1.34" gradientTransform="matrix(-0.5, -0.87, 0.74, -0.43, 132.67, -71.08)" xlink:href="#Безымянный_градиент_163"/><linearGradient id="Безымянный_градиент_247-3" x1="-32.87" y1="-166.42" x2="-30.58" y2="-166.51" xlink:href="#Безымянный_градиент_247"/><radialGradient id="Безымянный_градиент_163-6" cx="-18.4" cy="-179.4" r="1.34" gradientTransform="matrix(-0.5, -0.87, 0.74, -0.43, 132.67, -71.08)" xlink:href="#Безымянный_градиент_163"/><linearGradient id="Безымянный_градиент_247-4" x1="-19.54" y1="-179.55" x2="-17.25" y2="-179.64" xlink:href="#Безымянный_градиент_247"/><linearGradient id="Безымянный_градиент_172-2" x1="-16.49" y1="-17.63" x2="-6.2" y2="-17.63" xlink:href="#Безымянный_градиент_172"/></defs><title>coin</title><g class="cls-1"><g id="Слой_2" data-name="Слой 2"><g id="space"><path class="cls-2" d="M23.69,11.49c4.44,7.19,6.35,14.36,1.85,18.34-.38.33-2.92,1.81-3.36,2.07-5.64,3.49-14.11,0-18.92-7.79S-.87,7.18,4.77,3.7c.35-.22,3.43-2.19,3.8-2.35C14.17-1.11,19.19,4.19,23.69,11.49Z"/><ellipse class="cls-3" cx="17.28" cy="15.45" rx="12.01" ry="16.57" transform="matrix(0.85, -0.53, 0.53, 0.85, -5.54, 11.38)"/><path class="cls-4" d="M4,13.64l26.35,9.47.33-4.26L5.65,4.27S3.42,7.35,4,13.64Z"/><path class="cls-5" d="M24.48,11c3.4,5.49,2.92,11.94-1.06,14.4a4.92,4.92,0,0,1-.45.24c-4,2-9.63-.45-12.9-5.74s-2.94-11.44.62-14.1a4.27,4.27,0,0,1,.44-.3C15.12,3.05,21.09,5.51,24.48,11Z"/><path class="cls-6" d="M23.55,11.58c3.26,5.27,3,11.41-.58,14.07-4,2-9.63-.45-12.9-5.74s-2.94-11.44.62-14.1C14.65,3.82,20.29,6.3,23.55,11.58Z"/><path class="cls-7" d="M25.67,9.17a1.25,1.25,0,0,1,1.65.6A1.24,1.24,0,0,1,27,11.49a1.25,1.25,0,0,1-1.66-.59A1.25,1.25,0,0,1,25.67,9.17Z"/><path class="cls-8" d="M25.62,9.43a1.06,1.06,0,0,1,1.41.5,1,1,0,1,1-1.69,1A1.06,1.06,0,0,1,25.62,9.43Z"/><path class="cls-9" d="M10,2.43A1.25,1.25,0,0,1,11.64,3a1.26,1.26,0,0,1-.32,1.73,1.26,1.26,0,0,1-1.66-.59A1.25,1.25,0,0,1,10,2.43Z"/><path class="cls-10" d="M9.94,2.68a1.07,1.07,0,0,1,1.42.51,1.07,1.07,0,0,1-.28,1.47,1.07,1.07,0,0,1-1.42-.5A1.07,1.07,0,0,1,9.94,2.68Z"/><path class="cls-11" d="M24.52,26a1.24,1.24,0,0,1,1.65.59A1.16,1.16,0,1,1,24.52,26Z"/><path class="cls-12" d="M24.47,26.22a1.16,1.16,0,0,1,1.14,2,1.16,1.16,0,0,1-1.14-2Z"/><path class="cls-13" d="M8.15,20a1.26,1.26,0,0,1,1.66.6,1.24,1.24,0,0,1-.33,1.72,1.24,1.24,0,0,1-1.65-.59A1.26,1.26,0,0,1,8.15,20Z"/><path class="cls-14" d="M8.11,20.24a1.15,1.15,0,0,1,1.13,2,1.06,1.06,0,0,1-1.41-.51A1.05,1.05,0,0,1,8.11,20.24Z"/><path class="cls-15" d="M.25,16,4,13.64S3,9.85,5.27,4.51L1.65,7S-.76,11.92.25,16Z"/><path class="cls-16" d="M3.88,12.05c.05.4,1.85-2.77,1.75-4.23s-.2-2.45-.57-2.44S3.56,9.52,3.88,12.05Z"/><path class="cls-16" d="M30,23.11c-.82.87,0-3.1.36-3.15S30.72,22.31,30,23.11Z"/></g></g></g></svg>