<?xml version="1.0" encoding="utf-8"?>
<!-- Generator: Adobe Illustrator 24.0.1, SVG Export Plug-In . SVG Version: 6.00 Build 0)  -->
<svg version="1.1" id="Слой_1" xmlns="http://www.w3.org/2000/svg" xmlns:xlink="http://www.w3.org/1999/xlink" x="0px" y="0px"
	 viewBox="0 0 177.2 163.2" style="enable-background:new 0 0 177.2 163.2;" xml:space="preserve">
<style type="text/css">
	.st0{fill:url(#SVGID_1_);}
	.st1{fill:url(#SVGID_2_);}
	.st2{fill:url(#SVGID_3_);}
	.st3{opacity:0.5;fill:url(#SVGID_4_);enable-background:new    ;}
	.st4{fill:#FFFFFF;}
	.st5{fill:url(#SVGID_5_);}
	.st6{fill:#FFFFAB;}
</style>
<title>frame</title>
<g>
	<g id="Слой_2_1_">
		<g id="space">
			<g>
				
					<linearGradient id="SVGID_1_" gradientUnits="userSpaceOnUse" x1="89.815" y1="0.5818" x2="89.815" y2="163.2974" gradientTransform="matrix(1 0 0 -1 0 164)">
					<stop  offset="0" style="stop-color:#4D18C2"/>
					<stop  offset="1" style="stop-color:#4849B9"/>
				</linearGradient>
				<path class="st0" d="M7.6,8.6c-7.9,5.3-8,145.4-2.6,151.2c3.8,4,161.3,5.3,168,0.5c6.6-4.7,7.3-152.4,1.6-157.1
					C167.7-2.4,17,2.4,7.6,8.6z"/>
				
					<linearGradient id="SVGID_2_" gradientUnits="userSpaceOnUse" x1="89.815" y1="2.0599" x2="89.815" y2="163.7654" gradientTransform="matrix(1 0 0 -1 0 164)">
					<stop  offset="0" style="stop-color:#3936FF"/>
					<stop  offset="1" style="stop-color:#3B3D79"/>
				</linearGradient>
				<path class="st1" d="M7.6,8.1c-7.9,5.2-8,144.5-2.6,150.3c3.8,4,161.3,5.3,168,0.5c6.6-4.6,7.3-151.4,1.6-156.1
					C167.7-2.9,17,1.9,7.6,8.1z"/>
				
					<radialGradient id="SVGID_3_" cx="89.6186" cy="83.0651" r="83.944" gradientTransform="matrix(1 0 0 -1 0 164)" gradientUnits="userSpaceOnUse">
					<stop  offset="5.586592e-03" style="stop-color:#4037BF"/>
					<stop  offset="1" style="stop-color:#5649FF"/>
				</radialGradient>
				<path class="st2" d="M8.7,9.1C0.9,14.3-1.4,150.5,6.2,157.3c4,3.6,158.7,4.7,165.7,0.5c7.8-4.8,7.2-149.4,1.6-154
					C166.6-1.7,18,3,8.7,9.1z"/>
				
					<linearGradient id="SVGID_4_" gradientUnits="userSpaceOnUse" x1="11.2975" y1="144.8284" x2="170.7475" y2="144.8284" gradientTransform="matrix(1 0 0 -1 0 164)">
					<stop  offset="5.586592e-03" style="stop-color:#4431B7"/>
					<stop  offset="1" style="stop-color:#5E007A"/>
				</linearGradient>
				<path class="st3" d="M11.3,10c0,0,11.6,24.4,46.5,26s60.4-15.5,79.7-21.8s33.2-10.2,33.2-10.2S82.6-2.8,11.3,10z"/>
				<path class="st4" d="M8.3,14.7c0,0-0.3-3.2,1.1-4.4s10.3-2.7,10.7-2.3C20.6,8.5,12.6,15.2,8.3,14.7z"/>
				<path class="st4" d="M8.2,16.2c-1.1-0.3-1.3,3.7-0.3,3.8S9.3,16.6,8.2,16.2z"/>
				
					<linearGradient id="SVGID_5_" gradientUnits="userSpaceOnUse" x1="13.6075" y1="10.7346" x2="171.7575" y2="10.7346" gradientTransform="matrix(1 0 0 -1 0 164)">
					<stop  offset="0" style="stop-color:#5E007A"/>
					<stop  offset="1" style="stop-color:#4431B7"/>
				</linearGradient>
				<path class="st5" d="M13.6,155.1c0,0,71.2-2.3,95.7-7.1s60.3-0.7,62.4,8.4C171.8,156.4,78,166.6,13.6,155.1z"/>
				<path class="st4" d="M166.1,157.2c0.1,1.1,5-0.5,5.9-1.5s1.4-4.8,1-5.2S166,156,166.1,157.2z"/>
				<path class="st6" d="M32.3,86.6c0.3,0.1,0.5,0.3,0.4,0.6c0,0.2-0.2,0.3-0.3,0.4c-0.3-0.1-0.5-0.3-0.4-0.6
					C32,86.8,32.2,86.6,32.3,86.6z"/>
				<path class="st6" d="M34.9,78.6c0.3,0,0.5,0.2,0.5,0.5s-0.2,0.5-0.5,0.5c-0.3,0-0.5-0.2-0.5-0.5C34.4,78.9,34.6,78.6,34.9,78.6z
					"/>
				<path class="st6" d="M33.4,101.4c0.3,0,0.5,0.3,0.4,0.6c0,0.2-0.2,0.4-0.4,0.4c-0.3,0-0.5-0.3-0.4-0.6
					C33,101.6,33.2,101.5,33.4,101.4z"/>
				<path class="st6" d="M25.1,76.9c0.8,0,1.5,0.6,1.5,1.3c0,0.8-0.6,1.5-1.4,1.5c-0.8,0-1.5-0.6-1.5-1.4
					C23.7,77.7,24.3,77,25.1,76.9z"/>
				<path class="st6" d="M131.3,114.4c0.8-0.1,1.5,0.5,1.5,1.3c0,0,0,0,0,0c0.1,0.8-0.5,1.5-1.3,1.5c0,0,0,0,0,0
					c-0.8,0-1.5-0.6-1.5-1.3C129.9,115.2,130.5,114.5,131.3,114.4L131.3,114.4z"/>
				<path class="st6" d="M157.7,110c0.4,0,0.7,0.3,0.7,0.6c0,0,0,0,0,0c0,0.4-0.3,0.7-0.6,0.7s-0.7-0.3-0.7-0.6l0,0
					C157.1,110.4,157.4,110,157.7,110C157.7,110,157.7,110,157.7,110z"/>
				<path class="st6" d="M39.5,114.5c0.4,0,0.7,0.3,0.7,0.6c0,0,0,0,0,0c0,0.4-0.3,0.7-0.6,0.7c-0.4,0-0.7-0.3-0.7-0.6c0,0,0,0,0,0
					C38.8,114.9,39.1,114.6,39.5,114.5C39.5,114.5,39.5,114.5,39.5,114.5z"/>
				<path class="st6" d="M110.4,104.4c0.2,0,0.4,0.1,0.4,0.3s-0.1,0.4-0.3,0.4s-0.4-0.1-0.4-0.3c0,0,0,0,0,0
					C110,104.6,110.2,104.4,110.4,104.4z"/>
				<path class="st6" d="M17.4,120.2c0.2,0,0.3,0.2,0.3,0.3c0,0.2-0.2,0.3-0.3,0.3c-0.2,0-0.3-0.1-0.4-0.3c0,0,0,0,0,0
					C17,120.3,17.2,120.2,17.4,120.2C17.4,120.2,17.4,120.2,17.4,120.2z"/>
				<path class="st6" d="M52.2,98.9c0.2,0,0.3,0.2,0.3,0.4c0,0.1-0.1,0.3-0.3,0.3c-0.2,0-0.4-0.1-0.4-0.3c0-0.2,0.1-0.4,0.3-0.4
					C52.1,98.9,52.2,98.9,52.2,98.9z"/>
				<path class="st6" d="M35,118.1c0.1,0,0.3,0.1,0.3,0.2c0,0,0,0,0,0c0,0.1-0.1,0.3-0.2,0.3c0,0,0,0,0,0c-0.1,0-0.3-0.1-0.3-0.2
					c0,0,0,0,0,0C34.7,118.2,34.8,118.1,35,118.1z"/>
				<path class="st6" d="M99.1,121.3c0.3,0,0.5,0.2,0.6,0.5c0,0.3-0.2,0.5-0.5,0.6c-0.3,0.1-0.6-0.1-0.6-0.4s0.1-0.6,0.4-0.6
					C99.1,121.3,99.1,121.3,99.1,121.3z"/>
				<path class="st6" d="M58.4,122.7c0.3,0,0.6,0.2,0.6,0.5c0,0.3-0.2,0.6-0.5,0.6c-0.3,0-0.6-0.2-0.6-0.5c0,0,0,0,0,0
					C57.9,123,58.1,122.7,58.4,122.7z"/>
			</g>
		</g>
	</g>
</g>
</svg>
