<svg xmlns="http://www.w3.org/2000/svg" xmlns:xlink="http://www.w3.org/1999/xlink" viewBox="0 0 177.22 163.19"><defs><style>.cls-1{isolation:isolate;}.cls-11,.cls-12,.cls-13,.cls-14,.cls-15,.cls-16,.cls-17,.cls-18,.cls-19,.cls-2,.cls-20,.cls-21,.cls-22,.cls-6,.cls-8,.cls-9{mix-blend-mode:screen;}.cls-3{fill:url(#Безымянный_градиент_284);}.cls-4{fill:url(#Безымянный_градиент_88);}.cls-5{fill:url(#Безымянный_градиент_302);}.cls-6{opacity:0.5;fill:url(#Безымянный_градиент_228);}.cls-7{fill:#fff;}.cls-8{fill:url(#Безымянный_градиент_231);}.cls-9{fill:url(#Безымянный_градиент_168);}.cls-10{fill:#ffffab;}.cls-11{fill:url(#Безымянный_градиент_168-2);}.cls-12{fill:url(#Безымянный_градиент_168-3);}.cls-13{fill:url(#Безымянный_градиент_168-4);}.cls-14{fill:url(#Безымянный_градиент_168-5);}.cls-15{fill:url(#Безымянный_градиент_168-6);}.cls-16{fill:url(#Безымянный_градиент_168-7);}.cls-17{fill:url(#Безымянный_градиент_168-8);}.cls-18{fill:url(#Безымянный_градиент_168-9);}.cls-19{fill:url(#Безымянный_градиент_168-10);}.cls-20{fill:url(#Безымянный_градиент_168-11);}.cls-21{fill:url(#Безымянный_градиент_168-12);}.cls-22{fill:url(#Безымянный_градиент_168-13);}</style><linearGradient id="Безымянный_градиент_284" x1="88.61" y1="163.19" x2="88.61" y2="0.47" gradientUnits="userSpaceOnUse"><stop offset="0" stop-color="#004ac2"/><stop offset="1" stop-color="#0083c2"/></linearGradient><linearGradient id="Безымянный_градиент_88" x1="88.61" y1="161.7" x2="88.61" gradientUnits="userSpaceOnUse"><stop offset="0" stop-color="#00eff1"/><stop offset="1" stop-color="#0098ff"/></linearGradient><radialGradient id="Безымянный_градиент_302" cx="88.38" cy="80.71" r="83.93" gradientUnits="userSpaceOnUse"><stop offset="0" stop-color="#0025ae"/><stop offset="1" stop-color="#008cca"/></radialGradient><linearGradient id="Безымянный_градиент_228" x1="10.09" y1="18.97" x2="169.54" y2="18.97" gradientUnits="userSpaceOnUse"><stop offset="0" stop-color="#23786e"/><stop offset="0.18" stop-color="#1e685f"/><stop offset="0.54" stop-color="#123e39"/><stop offset="1"/></linearGradient><linearGradient id="Безымянный_градиент_231" x1="12.4" y1="153.03" x2="170.55" y2="153.03" gradientUnits="userSpaceOnUse"><stop offset="0"/><stop offset="0.46" stop-color="#123e39"/><stop offset="0.82" stop-color="#1e685f"/><stop offset="1" stop-color="#23786e"/></linearGradient><radialGradient id="Безымянный_градиент_168" cx="283.13" cy="-202.52" r="1.85" gradientTransform="matrix(-0.06, -1, 1, -0.06, 250.05, 357.4)" gradientUnits="userSpaceOnUse"><stop offset="0" stop-color="#00b359"/><stop offset="0.13" stop-color="#009148"/><stop offset="0.34" stop-color="#005e2f"/><stop offset="0.54" stop-color="#00351a"/><stop offset="0.73" stop-color="#00180c"/><stop offset="0.89" stop-color="#000603"/><stop offset="1"/></radialGradient><radialGradient id="Безымянный_градиент_168-2" cx="290.91" cy="-199.53" r="1.85" xlink:href="#Безымянный_градиент_168"/><radialGradient id="Безымянный_градиент_168-3" cx="268.25" cy="-202.37" r="1.85" xlink:href="#Безымянный_градиент_168"/><radialGradient id="Безымянный_градиент_168-4" cx="292.25" cy="-209.46" r="5.18" xlink:href="#Безымянный_градиент_168"/><radialGradient id="Безымянный_градиент_168-5" cx="248.48" cy="-105.61" r="5.18" xlink:href="#Безымянный_градиент_168"/><radialGradient id="Безымянный_градиент_168-6" cx="252.07" cy="-78.79" r="2.47" xlink:href="#Безымянный_градиент_168"/><radialGradient id="Безымянный_градиент_168-7" cx="254.62" cy="-197.08" r="2.47" xlink:href="#Безымянный_градиент_168"/><radialGradient id="Безымянный_градиент_168-8" cx="260.84" cy="-125.65" r="1.24" xlink:href="#Безымянный_градиент_168"/><radialGradient id="Безымянный_градиент_168-9" cx="250.65" cy="-219.38" r="1.24" xlink:href="#Безымянный_градиент_168"/><radialGradient id="Безымянный_градиент_168-10" cx="269.76" cy="-183.43" r="1.24" xlink:href="#Безымянный_градиент_168"/><radialGradient id="Безымянный_градиент_168-11" cx="251.73" cy="-201.71" r="0.92" xlink:href="#Безымянный_градиент_168"/><radialGradient id="Безымянный_градиент_168-12" cx="244.43" cy="-137.91" r="1.93" xlink:href="#Безымянный_градиент_168"/><radialGradient id="Безымянный_градиент_168-13" cx="245.47" cy="-178.63" r="1.93" xlink:href="#Безымянный_градиент_168"/></defs><title>frame</title><g class="cls-1"><g id="Слой_2" data-name="Слой 2"><g id="space"><g class="cls-2"><path class="cls-3" d="M6.35,8.4c-7.95,5.27-8,145.42-2.58,151.21,3.75,4,161.26,5.28,168,.49,6.57-4.67,7.32-152.41,1.58-157.12C166.46-2.67,15.81,2.12,6.35,8.4Z"/><path class="cls-4" d="M6.35,7.88c-7.95,5.24-8,144.51-2.58,150.26,3.75,4,161.26,5.26,168,.49C178.34,154,179.09,7.18,173.35,2.5,166.46-3.12,15.81,1.64,6.35,7.88Z"/><path class="cls-5" d="M7.5,8.9C-.34,14.06-2.6,150.24,5,157.07c4,3.62,158.72,4.72,165.66.48,7.81-4.77,7.22-149.35,1.56-154C165.38-1.95,16.82,2.75,7.5,8.9Z"/><path class="cls-6" d="M10.09,9.76s11.59,24.39,46.54,26S117,20.27,136.31,14,169.54,3.84,169.54,3.84,81.36-3,10.09,9.76Z"/><path class="cls-7" d="M7.05,14.49s-.31-3.21,1.15-4.36,10.26-2.7,10.72-2.3S11.41,15,7.05,14.49Z"/><path class="cls-7" d="M7,16c-1.12-.31-1.35,3.67-.35,3.83S8.14,16.33,7,16Z"/><path class="cls-8" d="M12.4,154.9s71.22-2.3,95.73-7.14,60.27-.74,62.42,8.38C170.55,156.14,76.78,166.4,12.4,154.9Z"/><path class="cls-7" d="M164.88,157c.08,1.15,5-.49,5.9-1.48s1.45-4.82,1-5.22S164.81,155.78,164.88,157Z"/><path class="cls-9" d="M30.92,85a1.85,1.85,0,0,1,.22,3.69A1.85,1.85,0,1,1,30.92,85Z"/><path class="cls-10" d="M31.14,86.32a.52.52,0,0,1,.06,1,.52.52,0,0,1-.06-1Z"/><path class="cls-11" d="M33.43,77.05a1.85,1.85,0,1,1-1.74,2A1.86,1.86,0,0,1,33.43,77.05Z"/><path class="cls-10" d="M33.65,78.38a.51.51,0,1,1-.48.54A.52.52,0,0,1,33.65,78.38Z"/><path class="cls-12" d="M32,99.84a1.85,1.85,0,1,1-1.74,2A1.86,1.86,0,0,1,32,99.84Z"/><path class="cls-10" d="M32.17,101.17a.51.51,0,0,1,.06,1,.51.51,0,0,1-.06-1Z"/><path class="cls-13" d="M23.24,73a5.17,5.17,0,1,1-4.86,5.47A5.18,5.18,0,0,1,23.24,73Z"/><path class="cls-10" d="M23.86,76.7a1.44,1.44,0,0,1,1.52,1.35,1.43,1.43,0,1,1-1.52-1.35Z"/><path class="cls-14" d="M129.51,110.49a5.18,5.18,0,1,1-4.86,5.48A5.17,5.17,0,0,1,129.51,110.49Z"/><path class="cls-10" d="M130.13,114.2a1.43,1.43,0,0,1,1.52,1.35,1.42,1.42,0,0,1-1.34,1.51,1.43,1.43,0,1,1-.18-2.86Z"/><path class="cls-15" d="M156.23,108a2.47,2.47,0,1,1-2.32,2.62A2.48,2.48,0,0,1,156.23,108Z"/><path class="cls-10" d="M156.53,109.78a.68.68,0,0,1,.72.65.68.68,0,0,1-1.36.08A.68.68,0,0,1,156.53,109.78Z"/><path class="cls-16" d="M38,112.51a2.47,2.47,0,1,1-2.32,2.62A2.49,2.49,0,0,1,38,112.51Z"/><path class="cls-10" d="M38.31,114.29a.68.68,0,0,1,.72.64.69.69,0,0,1-.64.73.68.68,0,0,1-.72-.65A.67.67,0,0,1,38.31,114.29Z"/><path class="cls-17" d="M109,103.28a1.24,1.24,0,1,1-1.16,1.31A1.24,1.24,0,0,1,109,103.28Z"/><path class="cls-10" d="M109.16,104.16a.35.35,0,1,1-.32.37A.35.35,0,0,1,109.16,104.16Z"/><path class="cls-18" d="M16.05,119a1.24,1.24,0,1,1-1.16,1.31A1.24,1.24,0,0,1,16.05,119Z"/><path class="cls-10" d="M16.2,119.93a.34.34,0,0,1,0,.68.33.33,0,0,1-.36-.32A.34.34,0,0,1,16.2,119.93Z"/><path class="cls-19" d="M50.8,97.82a1.24,1.24,0,1,1,.14,2.47,1.24,1.24,0,0,1-.14-2.47Z"/><path class="cls-10" d="M51,98.7a.35.35,0,0,1,0,.69.35.35,0,1,1,0-.69Z"/><path class="cls-20" d="M33.64,117.22a.92.92,0,1,1,.11,1.84.92.92,0,0,1-.11-1.84Z"/><path class="cls-10" d="M33.75,117.88a.25.25,0,0,1,.27.24.24.24,0,0,1-.24.27.25.25,0,0,1-.27-.24A.26.26,0,0,1,33.75,117.88Z"/><path class="cls-21" d="M97.71,119.7a1.93,1.93,0,1,1-1.81,2A1.92,1.92,0,0,1,97.71,119.7Z"/><path class="cls-10" d="M97.94,121.08a.54.54,0,0,1,.57.5.54.54,0,0,1-.5.57.54.54,0,1,1-.07-1.07Z"/><path class="cls-22" d="M57,121.09a1.93,1.93,0,1,1-1.81,2A1.92,1.92,0,0,1,57,121.09Z"/><path class="cls-10" d="M57.23,122.47a.54.54,0,1,1-.5.57A.54.54,0,0,1,57.23,122.47Z"/></g></g></g></g></svg>