<?xml version="1.0" encoding="utf-8"?>
<!-- Generator: Adobe Illustrator 24.0.1, SVG Export Plug-In . SVG Version: 6.00 Build 0)  -->
<svg version="1.1" id="Слой_1" xmlns="http://www.w3.org/2000/svg" xmlns:xlink="http://www.w3.org/1999/xlink" x="0px" y="0px"
	 viewBox="0 0 177.2 163.2" style="enable-background:new 0 0 177.2 163.2;" xml:space="preserve">
<style type="text/css">
	.st0{fill:url(#SVGID_1_);}
	.st1{fill:url(#SVGID_2_);}
	.st2{fill:url(#SVGID_3_);}
	.st3{opacity:0.5;fill:url(#SVGID_4_);enable-background:new    ;}
	.st4{fill:#FFFFFF;}
	.st5{fill:url(#SVGID_5_);}
	.st6{fill:url(#SVGID_6_);}
	.st7{fill:#FFFFAB;}
	.st8{fill:url(#SVGID_7_);}
	.st9{fill:url(#SVGID_8_);}
	.st10{fill:url(#SVGID_9_);}
	.st11{fill:url(#SVGID_10_);}
	.st12{fill:url(#SVGID_11_);}
	.st13{fill:url(#SVGID_12_);}
	.st14{fill:url(#SVGID_13_);}
	.st15{fill:url(#SVGID_14_);}
	.st16{fill:url(#SVGID_15_);}
	.st17{fill:url(#SVGID_16_);}
	.st18{fill:url(#SVGID_17_);}
	.st19{fill:url(#SVGID_18_);}
</style>
<title>frame</title>
<g>
	<g id="Слой_2_1_">
		<g id="space">
			<g>
				
					<linearGradient id="SVGID_1_" gradientUnits="userSpaceOnUse" x1="88.6075" y1="0.8158" x2="88.6075" y2="163.5314" gradientTransform="matrix(1 0 0 -1 0 164)">
					<stop  offset="0" style="stop-color:#4A13A9"/>
					<stop  offset="1" style="stop-color:#470066"/>
				</linearGradient>
				<path class="st0" d="M6.3,8.4c-7.9,5.3-8,145.4-2.6,151.2c3.8,4,161.3,5.3,168,0.5c6.6-4.7,7.3-152.4,1.6-157.1
					C166.5-2.7,15.8,2.1,6.3,8.4z"/>
				
					<linearGradient id="SVGID_2_" gradientUnits="userSpaceOnUse" x1="88.6075" y1="2.2939" x2="88.6075" y2="163.9993" gradientTransform="matrix(1 0 0 -1 0 164)">
					<stop  offset="0" style="stop-color:#4000AA"/>
					<stop  offset="1" style="stop-color:#6C16E9"/>
				</linearGradient>
				<path class="st1" d="M6.3,7.9c-7.9,5.2-8,144.5-2.6,150.3c3.8,4,161.3,5.3,168,0.5c6.6-4.6,7.3-151.5,1.6-156.1
					C166.5-3.1,15.8,1.6,6.3,7.9z"/>
				
					<radialGradient id="SVGID_3_" cx="88.4111" cy="83.299" r="83.944" gradientTransform="matrix(1 0 0 -1 0 164)" gradientUnits="userSpaceOnUse">
					<stop  offset="0" style="stop-color:#400091"/>
					<stop  offset="1" style="stop-color:#36339C"/>
				</radialGradient>
				<path class="st2" d="M7.5,8.9C-0.3,14.1-2.6,150.2,5,157.1c4,3.6,158.7,4.7,165.7,0.5c7.8-4.8,7.2-149.4,1.6-154
					C165.4-2,16.8,2.8,7.5,8.9z"/>
				
					<linearGradient id="SVGID_4_" gradientUnits="userSpaceOnUse" x1="10.09" y1="145.0623" x2="169.54" y2="145.0623" gradientTransform="matrix(1 0 0 -1 0 164)">
					<stop  offset="0" style="stop-color:#3C0094"/>
					<stop  offset="1" style="stop-color:#000000"/>
				</linearGradient>
				<path class="st3" d="M10.1,9.8c0,0,11.6,24.4,46.5,26S117,20.3,136.3,14s33.2-10.2,33.2-10.2S81.4-3,10.1,9.8z"/>
				<path class="st4" d="M7.1,14.5c0,0-0.3-3.2,1.1-4.4s10.3-2.7,10.7-2.3S11.4,15,7.1,14.5z"/>
				<path class="st4" d="M7,16c-1.1-0.3-1.3,3.7-0.3,3.8S8.1,16.3,7,16z"/>
				
					<linearGradient id="SVGID_5_" gradientUnits="userSpaceOnUse" x1="12.4" y1="10.9686" x2="170.55" y2="10.9686" gradientTransform="matrix(1 0 0 -1 0 164)">
					<stop  offset="0" style="stop-color:#000000"/>
					<stop  offset="1" style="stop-color:#3C1994"/>
				</linearGradient>
				<path class="st5" d="M12.4,154.9c0,0,71.2-2.3,95.7-7.1s60.3-0.7,62.4,8.4C170.6,156.1,76.8,166.4,12.4,154.9z"/>
				<path class="st4" d="M164.9,157c0.1,1.1,5-0.5,5.9-1.5s1.4-4.8,1-5.2S164.8,155.8,164.9,157z"/>
				
					<radialGradient id="SVGID_6_" cx="422.1451" cy="369.4391" r="1.85" gradientTransform="matrix(-6.000000e-02 -1 -1 6.000000e-02 425.31 486.4)" gradientUnits="userSpaceOnUse">
					<stop  offset="0" style="stop-color:#34006A"/>
					<stop  offset="1" style="stop-color:#000000"/>
				</radialGradient>
				<path class="st6" d="M30.9,85c1,0,1.9,0.8,1.9,1.8c0,1-0.7,1.8-1.7,1.9c-1,0.1-1.9-0.6-2-1.7c-0.1-1,0.6-1.9,1.7-2
					C30.8,85,30.9,85,30.9,85z"/>
				<path class="st7" d="M31.1,86.3c0.3,0.1,0.5,0.3,0.4,0.6c0,0.2-0.2,0.3-0.3,0.4c-0.3-0.1-0.5-0.3-0.4-0.6
					C30.8,86.5,31,86.4,31.1,86.3z"/>
				
					<radialGradient id="SVGID_7_" cx="290.91" cy="363.53" r="1.85" gradientTransform="matrix(1 0 0 -1 0 164)" gradientUnits="userSpaceOnUse">
					<stop  offset="0" style="stop-color:#00B359"/>
					<stop  offset="0.13" style="stop-color:#009148"/>
					<stop  offset="0.34" style="stop-color:#005E2F"/>
					<stop  offset="0.54" style="stop-color:#00351A"/>
					<stop  offset="0.73" style="stop-color:#00180C"/>
					<stop  offset="0.89" style="stop-color:#000603"/>
					<stop  offset="1" style="stop-color:#000000"/>
				</radialGradient>
				<path class="st8" d="M33.4,77.1c1-0.1,1.9,0.7,2,1.7s-0.7,1.9-1.7,2c-1,0.1-1.9-0.7-1.9-1.7C31.6,78,32.4,77.1,33.4,77.1
					C33.4,77.1,33.4,77.1,33.4,77.1z"/>
				<path class="st7" d="M33.7,78.4c0.3,0,0.5,0.2,0.5,0.5s-0.2,0.5-0.5,0.5c-0.3,0-0.5-0.2-0.5-0.5C33.2,78.6,33.4,78.4,33.7,78.4z
					"/>
				
					<radialGradient id="SVGID_8_" cx="268.25" cy="366.37" r="1.85" gradientTransform="matrix(1 0 0 -1 0 164)" gradientUnits="userSpaceOnUse">
					<stop  offset="0" style="stop-color:#00B359"/>
					<stop  offset="0.13" style="stop-color:#009148"/>
					<stop  offset="0.34" style="stop-color:#005E2F"/>
					<stop  offset="0.54" style="stop-color:#00351A"/>
					<stop  offset="0.73" style="stop-color:#00180C"/>
					<stop  offset="0.89" style="stop-color:#000603"/>
					<stop  offset="1" style="stop-color:#000000"/>
				</radialGradient>
				<path class="st9" d="M32,99.8c1-0.1,1.9,0.7,2,1.7s-0.7,1.9-1.7,2c-1,0.1-1.9-0.7-1.9-1.7C30.2,100.8,30.9,99.9,32,99.8
					C32,99.8,32,99.8,32,99.8z"/>
				<path class="st7" d="M32.2,101.2c0.3,0,0.5,0.3,0.4,0.6c0,0.2-0.2,0.4-0.4,0.4c-0.3,0-0.5-0.3-0.4-0.6
					C31.8,101.4,32,101.2,32.2,101.2z"/>
				
					<radialGradient id="SVGID_9_" cx="292.25" cy="373.46" r="5.18" gradientTransform="matrix(1 0 0 -1 0 164)" gradientUnits="userSpaceOnUse">
					<stop  offset="0" style="stop-color:#00B359"/>
					<stop  offset="0.13" style="stop-color:#009148"/>
					<stop  offset="0.34" style="stop-color:#005E2F"/>
					<stop  offset="0.54" style="stop-color:#00351A"/>
					<stop  offset="0.73" style="stop-color:#00180C"/>
					<stop  offset="0.89" style="stop-color:#000603"/>
					<stop  offset="1" style="stop-color:#000000"/>
				</radialGradient>
				<path class="st10" d="M23.2,73c2.9-0.2,5.3,2,5.5,4.9c0.2,2.9-2,5.3-4.9,5.5c-2.8,0.2-5.3-2-5.5-4.9
					C18.2,75.6,20.4,73.2,23.2,73z"/>
				<path class="st7" d="M23.9,76.7c0.8,0,1.5,0.6,1.5,1.3c0,0.8-0.6,1.5-1.4,1.5c-0.8,0-1.5-0.6-1.5-1.4
					C22.5,77.4,23.1,76.8,23.9,76.7z"/>
				
					<radialGradient id="SVGID_10_" cx="248.48" cy="269.61" r="5.18" gradientTransform="matrix(1 0 0 -1 0 164)" gradientUnits="userSpaceOnUse">
					<stop  offset="0" style="stop-color:#00B359"/>
					<stop  offset="0.13" style="stop-color:#009148"/>
					<stop  offset="0.34" style="stop-color:#005E2F"/>
					<stop  offset="0.54" style="stop-color:#00351A"/>
					<stop  offset="0.73" style="stop-color:#00180C"/>
					<stop  offset="0.89" style="stop-color:#000603"/>
					<stop  offset="1" style="stop-color:#000000"/>
				</radialGradient>
				<path class="st11" d="M129.5,110.5c2.9-0.2,5.3,2,5.5,4.9c0.2,2.9-2,5.3-4.9,5.5s-5.3-2-5.5-4.9c0,0,0,0,0,0
					C124.5,113.1,126.6,110.7,129.5,110.5C129.5,110.5,129.5,110.5,129.5,110.5z"/>
				<path class="st7" d="M130.1,114.2c0.8-0.1,1.5,0.5,1.5,1.3c0,0,0,0,0,0c0.1,0.8-0.5,1.5-1.3,1.5c0,0,0,0,0,0
					c-0.8,0-1.5-0.6-1.5-1.3C128.7,114.9,129.3,114.2,130.1,114.2L130.1,114.2z"/>
				
					<radialGradient id="SVGID_11_" cx="252.07" cy="242.79" r="2.47" gradientTransform="matrix(1 0 0 -1 0 164)" gradientUnits="userSpaceOnUse">
					<stop  offset="0" style="stop-color:#00B359"/>
					<stop  offset="0.13" style="stop-color:#009148"/>
					<stop  offset="0.34" style="stop-color:#005E2F"/>
					<stop  offset="0.54" style="stop-color:#00351A"/>
					<stop  offset="0.73" style="stop-color:#00180C"/>
					<stop  offset="0.89" style="stop-color:#000603"/>
					<stop  offset="1" style="stop-color:#000000"/>
				</radialGradient>
				<path class="st12" d="M156.2,108c1.4-0.1,2.5,1,2.6,2.3c0.1,1.4-1,2.5-2.3,2.6c-1.4,0.1-2.5-1-2.6-2.3
					C153.8,109.3,154.9,108.1,156.2,108z"/>
				<path class="st7" d="M156.5,109.8c0.4,0,0.7,0.3,0.7,0.6c0,0,0,0,0,0c0,0.4-0.3,0.7-0.6,0.7s-0.7-0.3-0.7-0.6l0,0
					C155.9,110.1,156.1,109.8,156.5,109.8C156.5,109.8,156.5,109.8,156.5,109.8z"/>
				
					<radialGradient id="SVGID_12_" cx="254.62" cy="361.08" r="2.47" gradientTransform="matrix(1 0 0 -1 0 164)" gradientUnits="userSpaceOnUse">
					<stop  offset="0" style="stop-color:#00B359"/>
					<stop  offset="0.13" style="stop-color:#009148"/>
					<stop  offset="0.34" style="stop-color:#005E2F"/>
					<stop  offset="0.54" style="stop-color:#00351A"/>
					<stop  offset="0.73" style="stop-color:#00180C"/>
					<stop  offset="0.89" style="stop-color:#000603"/>
					<stop  offset="1" style="stop-color:#000000"/>
				</radialGradient>
				<path class="st13" d="M38,112.5c1.4-0.1,2.5,1,2.6,2.3c0.1,1.4-1,2.5-2.3,2.6c-1.4,0.1-2.5-1-2.6-2.3
					C35.6,113.8,36.6,112.6,38,112.5z"/>
				<path class="st7" d="M38.3,114.3c0.4,0,0.7,0.3,0.7,0.6c0,0,0,0,0,0c0,0.4-0.3,0.7-0.6,0.7c-0.4,0-0.7-0.3-0.7-0.6c0,0,0,0,0,0
					C37.6,114.6,37.9,114.3,38.3,114.3C38.3,114.3,38.3,114.3,38.3,114.3z"/>
				
					<radialGradient id="SVGID_13_" cx="260.84" cy="289.65" r="1.24" gradientTransform="matrix(1 0 0 -1 0 164)" gradientUnits="userSpaceOnUse">
					<stop  offset="0" style="stop-color:#00B359"/>
					<stop  offset="0.13" style="stop-color:#009148"/>
					<stop  offset="0.34" style="stop-color:#005E2F"/>
					<stop  offset="0.54" style="stop-color:#00351A"/>
					<stop  offset="0.73" style="stop-color:#00180C"/>
					<stop  offset="0.89" style="stop-color:#000603"/>
					<stop  offset="1" style="stop-color:#000000"/>
				</radialGradient>
				<path class="st14" d="M109,103.3c0.7,0,1.3,0.5,1.3,1.2c0,0.7-0.5,1.3-1.2,1.3c-0.7,0-1.3-0.5-1.3-1.2c0,0,0,0,0,0
					C107.8,103.9,108.3,103.3,109,103.3z"/>
				<path class="st7" d="M109.2,104.2c0.2,0,0.4,0.1,0.4,0.3s-0.1,0.4-0.3,0.4s-0.4-0.1-0.4-0.3c0,0,0,0,0,0
					C108.8,104.3,109,104.2,109.2,104.2z"/>
				
					<radialGradient id="SVGID_14_" cx="250.65" cy="383.38" r="1.24" gradientTransform="matrix(1 0 0 -1 0 164)" gradientUnits="userSpaceOnUse">
					<stop  offset="0" style="stop-color:#00B359"/>
					<stop  offset="0.13" style="stop-color:#009148"/>
					<stop  offset="0.34" style="stop-color:#005E2F"/>
					<stop  offset="0.54" style="stop-color:#00351A"/>
					<stop  offset="0.73" style="stop-color:#00180C"/>
					<stop  offset="0.89" style="stop-color:#000603"/>
					<stop  offset="1" style="stop-color:#000000"/>
				</radialGradient>
				<path class="st15" d="M16,119c0.7,0,1.3,0.5,1.3,1.2s-0.5,1.3-1.2,1.3c-0.7,0-1.3-0.5-1.3-1.2c0,0,0,0,0,0
					C14.9,119.6,15.4,119,16,119z"/>
				<path class="st7" d="M16.2,119.9c0.2,0,0.3,0.2,0.3,0.3c0,0.2-0.2,0.3-0.3,0.3c-0.2,0-0.3-0.1-0.4-0.3c0,0,0,0,0,0
					C15.8,120.1,16,119.9,16.2,119.9C16.2,119.9,16.2,119.9,16.2,119.9z"/>
				
					<radialGradient id="SVGID_15_" cx="269.76" cy="347.43" r="1.24" gradientTransform="matrix(1 0 0 -1 0 164)" gradientUnits="userSpaceOnUse">
					<stop  offset="0" style="stop-color:#00B359"/>
					<stop  offset="0.13" style="stop-color:#009148"/>
					<stop  offset="0.34" style="stop-color:#005E2F"/>
					<stop  offset="0.54" style="stop-color:#00351A"/>
					<stop  offset="0.73" style="stop-color:#00180C"/>
					<stop  offset="0.89" style="stop-color:#000603"/>
					<stop  offset="1" style="stop-color:#000000"/>
				</radialGradient>
				<path class="st16" d="M50.8,97.8c0.7-0.1,1.3,0.4,1.4,1.1c0.1,0.7-0.4,1.3-1.1,1.4c-0.1,0-0.1,0-0.2,0c-0.7,0-1.2-0.6-1.2-1.3
					C49.7,98.4,50.2,97.9,50.8,97.8z"/>
				<path class="st7" d="M51,98.7c0.2,0,0.3,0.2,0.3,0.4c0,0.1-0.1,0.3-0.3,0.3c-0.2,0-0.4-0.1-0.4-0.3c0-0.2,0.1-0.4,0.3-0.4
					C50.9,98.7,51,98.7,51,98.7z"/>
				
					<radialGradient id="SVGID_16_" cx="251.73" cy="365.71" r="0.92" gradientTransform="matrix(1 0 0 -1 0 164)" gradientUnits="userSpaceOnUse">
					<stop  offset="0" style="stop-color:#00B359"/>
					<stop  offset="0.13" style="stop-color:#009148"/>
					<stop  offset="0.34" style="stop-color:#005E2F"/>
					<stop  offset="0.54" style="stop-color:#00351A"/>
					<stop  offset="0.73" style="stop-color:#00180C"/>
					<stop  offset="0.89" style="stop-color:#000603"/>
					<stop  offset="1" style="stop-color:#000000"/>
				</radialGradient>
				<path class="st17" d="M33.6,117.2c0.5,0,0.9,0.4,1,0.9s-0.4,0.9-0.9,1l0,0c-0.5,0-0.9-0.4-1-0.9S33.1,117.3,33.6,117.2z"/>
				<path class="st7" d="M33.8,117.9c0.1,0,0.3,0.1,0.3,0.2c0,0,0,0,0,0c0,0.1-0.1,0.3-0.2,0.3c0,0,0,0,0,0c-0.1,0-0.3-0.1-0.3-0.2
					c0,0,0,0,0,0C33.5,118,33.6,117.9,33.8,117.9z"/>
				
					<radialGradient id="SVGID_17_" cx="244.43" cy="301.91" r="1.93" gradientTransform="matrix(1 0 0 -1 0 164)" gradientUnits="userSpaceOnUse">
					<stop  offset="0" style="stop-color:#00B359"/>
					<stop  offset="0.13" style="stop-color:#009148"/>
					<stop  offset="0.34" style="stop-color:#005E2F"/>
					<stop  offset="0.54" style="stop-color:#00351A"/>
					<stop  offset="0.73" style="stop-color:#00180C"/>
					<stop  offset="0.89" style="stop-color:#000603"/>
					<stop  offset="1" style="stop-color:#000000"/>
				</radialGradient>
				<path class="st18" d="M97.7,119.7c1.1-0.1,2,0.7,2,1.8s-0.7,2-1.8,2c-1.1,0.1-2-0.7-2-1.8c0,0,0,0,0,0
					C95.9,120.7,96.7,119.8,97.7,119.7z"/>
				<path class="st7" d="M97.9,121.1c0.3,0,0.5,0.2,0.6,0.5c0,0.3-0.2,0.5-0.5,0.6c-0.3,0.1-0.6-0.1-0.6-0.4s0.1-0.6,0.4-0.6
					C97.9,121.1,97.9,121.1,97.9,121.1z"/>
				
					<radialGradient id="SVGID_18_" cx="245.47" cy="342.63" r="1.93" gradientTransform="matrix(1 0 0 -1 0 164)" gradientUnits="userSpaceOnUse">
					<stop  offset="0" style="stop-color:#00B359"/>
					<stop  offset="0.13" style="stop-color:#009148"/>
					<stop  offset="0.34" style="stop-color:#005E2F"/>
					<stop  offset="0.54" style="stop-color:#00351A"/>
					<stop  offset="0.73" style="stop-color:#00180C"/>
					<stop  offset="0.89" style="stop-color:#000603"/>
					<stop  offset="1" style="stop-color:#000000"/>
				</radialGradient>
				<path class="st19" d="M57,121.1c1.1-0.1,2,0.7,2,1.8c0.1,1.1-0.7,2-1.8,2s-2-0.7-2-1.8c0,0,0,0,0,0C55.1,122,56,121.1,57,121.1z
					"/>
				<path class="st7" d="M57.2,122.5c0.3,0,0.6,0.2,0.6,0.5c0,0.3-0.2,0.6-0.5,0.6c-0.3,0-0.6-0.2-0.6-0.5c0,0,0,0,0,0
					C56.7,122.7,56.9,122.5,57.2,122.5z"/>
			</g>
		</g>
	</g>
</g>
</svg>
