<svg xmlns="http://www.w3.org/2000/svg" xmlns:xlink="http://www.w3.org/1999/xlink" viewBox="0 0 128.11 128.09"><defs><style>.cls-1{isolation:isolate;}.cls-2,.cls-4,.cls-6,.cls-7,.cls-9{fill-rule:evenodd;}.cls-2{fill:url(#Безымянный_градиент_236);}.cls-3{opacity:0.5;}.cls-3,.cls-5{mix-blend-mode:multiply;}.cls-4{fill:#c4b0b8;}.cls-5{opacity:0.65;}.cls-6{fill:#ff8142;}.cls-7{fill:#ffce42;}.cls-8{mix-blend-mode:soft-light;}.cls-9{fill:#fffe90;}</style><radialGradient id="Безымянный_градиент_236" cx="50.38" cy="43.09" r="88.06" gradientUnits="userSpaceOnUse"><stop offset="0" stop-color="#ff5731"/><stop offset="0.7" stop-color="#ba005e"/><stop offset="0.95" stop-color="#5e1377"/><stop offset="1" stop-color="#8160ff"/></radialGradient></defs><title>p1_2</title><g class="cls-1"><g id="Слой_2" data-name="Слой 2"><g id="space_background" data-name="space background"><path class="cls-2" d="M127.47,73.11c-.16,1.11-.35,2.22-.57,3.32q-.48,2.46-1.17,4.85A62.27,62.27,0,0,1,121,93.34c-.71,1.39-1.47,2.74-2.29,4.07h0a65.21,65.21,0,0,1-19.21,20,61.39,61.39,0,0,1-7,4c-1.05.53-2.11,1-3.19,1.49a63.16,63.16,0,0,1-19,4.86,64,64,0,0,1-32.52-5.33l-1-.44q-2.45-1.15-4.77-2.5-.75-.43-1.5-.9a63.88,63.88,0,0,1-14.94-12.7,63,63,0,0,1-4.74-6.19L10.38,99q-1.72-2.64-3.2-5.46c-.53-1-1-2.06-1.51-3.11-.19-.43-.38-.86-.56-1.29A62.79,62.79,0,0,1,.77,73.92,62.16,62.16,0,0,1,.08,67.2c0-1-.08-2.09-.08-3.15A64,64,0,0,1,5.69,37.62c.39-.86.8-1.72,1.24-2.56a56.06,56.06,0,0,1,2.77-4.9,63.55,63.55,0,0,1,11.72-13.9h0l.63-.55A63.72,63.72,0,0,1,64,0a64.48,64.48,0,0,1,15.2,1.81,63.85,63.85,0,0,1,18.87,8h0c1.12.71,2.22,1.45,3.28,2.22.9.64,1.77,1.31,2.63,2a63.58,63.58,0,0,1,11.19,11.52q1.38,1.83,2.63,3.77a58.29,58.29,0,0,1,3.41,5.95A63,63,0,0,1,127.7,57c0,.15,0,.3,0,.45.09.86.17,1.72.22,2.58A63.67,63.67,0,0,1,127.47,73.11Z"/><g class="cls-3"><path class="cls-4" d="M127.47,73.11l-.11-.14c-1.62-2-3.74-3.67-5.25-5.78a10.23,10.23,0,0,0-3.46-3.4,28.51,28.51,0,0,0-3.14-1.54c-1-.36-2-.41-3-.72a15.9,15.9,0,0,0-3.68-1.16,37.32,37.32,0,0,0-3.8-.38c-.79,0-3.44-.51-3.54.77a3.6,3.6,0,0,0,1.06,1.6,22,22,0,0,0,4.54,2.18c2.69,1.09,5.46,1.88,8.1,3.12a38.87,38.87,0,0,1,7.56,4.84,28.92,28.92,0,0,1,4.11,3.93q-.48,2.46-1.17,4.85a24.09,24.09,0,0,1-2.39-1.58c-.87-.71-1.65-1.5-2.48-2.26a53.61,53.61,0,0,0-7.36-6.09c-1-.67-2.13-1.3-3.22-1.9s-2.38-1-3.51-1.58c-2-1.12-4.1-2.12-6.17-3.11a43.89,43.89,0,0,0-8.45-2.49A107.66,107.66,0,0,0,78.38,59.7,80.51,80.51,0,0,1,63.7,56.94c-2.4-.71-4.76-1.48-7.2-2.08-2.06-.5-4.06-1.3-6.15-1.71a46,46,0,0,0-13-.53c-5.29.49-10.56-.82-15.85.17A53.3,53.3,0,0,0,8.37,57.43c-2.11,1-3.36,3.08-4.76,4.85A53.15,53.15,0,0,0,.08,67.2c0-1-.08-2.09-.08-3.15A63.85,63.85,0,0,1,5.69,37.62a62.12,62.12,0,0,1,4-7.46,63.55,63.55,0,0,1,11.72-13.9h0l.63-.55a46.92,46.92,0,0,1,7.44-.82c2.48-.07,5.11.34,7.56-.06a23.91,23.91,0,0,1,3.48-.29c1.05,0,2-.34,3.08-.39,3.64-.17,7.19-1.55,10.82-1.52,1.69,0,3.38,0,5.06,0,2.19,0,4.33.38,6.55.39a47.84,47.84,0,0,1,15.44,2.27A86.73,86.73,0,0,0,95.87,19a33.83,33.83,0,0,1,10.81,3.11c1.21.65,2.26,1.34,3.42,2.09a11.6,11.6,0,0,1,1.79,1.63,14.24,14.24,0,0,0,2.39,1.6,18.46,18.46,0,0,0,3,1.7l.53.2c.65.25,1.31.49,1.94.75s.71.56,1.11,1.15a10.3,10.3,0,0,1,1.06,1.4c.21.49.26,1.1.45,1.62.27.7.42,2.13,1,2.73-.44-.37-1-.63-1.39-1a10,10,0,0,0-.77-.67,5,5,0,0,0-1-.61,22.52,22.52,0,0,0-2.12-1.1c-1.18-.38-2.35-.58-3.52-1.07a31.3,31.3,0,0,1-3.7-1.64c-1.26-.74-2.33-1.77-3.6-2.49-2.69-1.51-5.17-3.93-8.07-4.93a15.18,15.18,0,0,0-3.48-.93c-.75-.07-1.45-.36-2.2-.41s-1.78.08-2.68,0c-1.87-.19-3.81-.48-5.66-.82-1.65-.3-3.26-.86-4.92-1s-3.41-.79-5.11-1.14c-1.94-.41-3.92-.59-5.87-.95-4-.73-8.38-.11-12.33.38-4.73.59-10.07,1.11-14.35,3.41-1.07.57-2.21,1-3.3,1.51a12.88,12.88,0,0,0-2.24,1.64c-.89.71-3.09,1.21-3,2.69A12.67,12.67,0,0,0,36.75,27c1.54-.35,3.06-.34,4.57-.69.65-.15,1.28,0,1.94-.11a9.82,9.82,0,0,0,2.29-.72,58.66,58.66,0,0,1,6.39-2.3c1.68-.44,3.39-.82,5.1-1.09a35.11,35.11,0,0,1,5.13,0H67.8c2.22,0,4.55-.25,6.69.46a9.59,9.59,0,0,1,3.77,2.65c1.21,1.29,1.45,3.05,2.66,4.29A19.5,19.5,0,0,0,82.23,31c.62.52,1.59.94,2.27,1.41a11.24,11.24,0,0,0,5.15,1.79c.57.05,1.17.4,1.7.4s.5-.05.8-.54a1.48,1.48,0,0,0-.15-2,6.39,6.39,0,0,0-2.18-1.53c-1.07-.41-2.15-.3-2.94-1.22a2.13,2.13,0,0,1-.4-2.21c.35-.5,1.86-.5,2.4-.63,1.2-.3,1.5,0,2.63.39s2.34.79,3.52,1.21c1.72.63,3.38,1.41,5,2.2.58.28,1.4.43,1.82.92.16.19.38.86.53,1.12.85,1.49,2.08,2.62,3,4.12a7.71,7.71,0,0,1,1.1,4.83c-.29,1.26-1,2.79-2.34,3.13s-2.33-.51-3.7-.87-2.39-.93-3.61-.21a1.6,1.6,0,0,0-.68,2.38c.63,1.2,1.93,1.29,3.13,1.52a38.53,38.53,0,0,1,4.86,1.53c1.46.48,3.07.49,4.6.92a37.66,37.66,0,0,1,7.09,3.13c2.45,1.32,4.89,2.64,7.42,3.79A15.15,15.15,0,0,1,128,60,63.67,63.67,0,0,1,127.47,73.11Z"/><path class="cls-4" d="M121,93.34c-.71,1.39-1.47,2.74-2.29,4.07A19,19,0,0,0,116.36,95,22.3,22.3,0,0,1,114,92.19a13.07,13.07,0,0,0-2.39-2.13,20.61,20.61,0,0,0-5.09-2.93,48.1,48.1,0,0,1-6.84-3.35c-2.8-1.64-5.28-3.8-8-5.51a34.56,34.56,0,0,0-8.07-3.9c-1.36-.41-2.69-.63-4-1.12a18.65,18.65,0,0,0-5.15-.75c-1.57-.1-3.1-.39-4.66-.58-1.76-.21-3.54-.22-5.31-.45C61,71,57.67,70.68,54.3,70.32a104.34,104.34,0,0,0-10.9-.47,45,45,0,0,0-10.11.76,30,30,0,0,0-5.88,1.78c-1.15.52-2.25,1-3.41,1.43-.71.28-1.36.71-2.08,1a28,28,0,0,0-3,1,19.09,19.09,0,0,0-6.8,4.7c-1.83,2.1-3.48,4.36-5.31,6.47-.61.7-1.17,1.46-1.72,2.22A62.79,62.79,0,0,1,.77,73.92,17.69,17.69,0,0,1,2.88,72.5c2.58-1.48,5.31-2.63,7.94-4s5.33-2.91,8.35-3.62a30.51,30.51,0,0,1,7.06-.73,90.16,90.16,0,0,1,11.15.29c1.13.15,2.25,0,3.38.26a29.46,29.46,0,0,0,3.09.57c1.31.11,2.53.56,3.83.74,1.55.21,3.08.34,4.64.4,1,0,2,.36,3,.4a27.08,27.08,0,0,1,3.12.07c3.06.47,6.2.62,9.3,1,6.92.75,13.9,1.61,20.57,3.68a43.45,43.45,0,0,1,4.21,1.82,46,46,0,0,1,5,2.17c1.31.76,2.74,1.43,4,2.26a50.25,50.25,0,0,1,4.16,3.41c1.74,1.41,3.83,2.4,5.66,3.71,1.11.78,2.19,1.53,3.24,2.38,1.25,1,2.89,1.79,3.92,3C119.36,91.26,120.23,92.28,121,93.34Z"/><path class="cls-4" d="M110.89,107.67a64.21,64.21,0,0,1-11.42,9.75c-2.85-1.71-6.32-2.52-9.16-4.27a68,68,0,0,0-8.16-3.8c-2.86-1.27-5.69-2.47-8.65-3.51a30.6,30.6,0,0,0-6-1.47,22.12,22.12,0,0,0-3,0,22.35,22.35,0,0,0-3.75,0,45.28,45.28,0,0,1-8.49.73c-2.19,0-4.37,0-6.55,0-1.81,0-3.52-.38-5.35-.38a21.2,21.2,0,0,0-5.79.48,6.28,6.28,0,0,0-3.12,1.74c-.93-.16-.6-1-.37-1.55a3.71,3.71,0,0,1,2-1.72,11.73,11.73,0,0,1,2.66-.44c.48-.09.84-.36,1.33-.42a16.79,16.79,0,0,0,2.1-.28c2.21-.49,4.26.69,6.43.68,1,0,2,0,3,0A6.13,6.13,0,0,0,50,103a1.79,1.79,0,0,0,1.32-.76,2.14,2.14,0,0,0-1.51-3.61,11.25,11.25,0,0,0-2.66,0,22.65,22.65,0,0,1-3.77.74,12.27,12.27,0,0,1-3.78,0,2.84,2.84,0,0,1-.88-.71,6.13,6.13,0,0,0-1.51-1.54,11.63,11.63,0,0,0-4.68-1.86c-1.51-.26-3.37.4-4.84,0-3.31-.93.71-6.55,1.9-7.69,1.64-1.58,4.23-2.52,6.31-3.34,1.56-.61,3.37-.34,5-.82C40.67,82,36.84,82.86,36,83c-1.72.32-3.47.56-5.18.92a21.88,21.88,0,0,0-6.17,2.58,61.33,61.33,0,0,0-6.22,3.78c-2.67,2-4.56,4.73-6.73,7.2L10.38,99q-1.72-2.64-3.2-5.46c.36-.45.74-.88,1.14-1.31.62-.67,1.22-1.35,1.83-2a10.79,10.79,0,0,1,2.29-1.79c3-2,5.72-4.19,9.36-4.93,2.39-.49,4.69-1.35,7.1-1.8,2.89-.54,5.74-1.25,8.64-1.8a29.73,29.73,0,0,1,5.4-.57,13,13,0,0,1,2.92.46c5,1.1,10.1,2.32,15.08,3.71,5.94,1.66,12.15,2.15,18,4,2.6.8,5.29,1.45,7.83,2.44,2.35.92,4.5,2.46,6.79,3.52a41.25,41.25,0,0,1,6.28,3.62c1.53,1.08,3.15,2,4.65,3.12,1.11.86,1.9,2,3,2.84a9.7,9.7,0,0,1,2.51,3.13C110.25,106.64,110.57,107.15,110.89,107.67Z"/><path class="cls-4" d="M92.51,121.44c-1.05.53-2.11,1-3.19,1.49-1.5-.42-3.11-.57-4.55-1-1.64-.48-3.11-1.42-4.77-1.91-1.46-.43-2.94-.64-4.38-1.11a63.82,63.82,0,0,0-11.29-2.36,26.81,26.81,0,0,0-8.24-.15,56.89,56.89,0,0,0-7.21,1.48c-2.65.78-5.24,1.1-7.67,2.46-1,.56-1.85,1.26-2.82,1.81q-.3.16-.6.3l-1-.44q-2.45-1.15-4.77-2.5-.75-.43-1.5-.9c.57-.23,1.16-.44,1.77-.64,1.9-.62,3.74-1.46,5.68-1.93,2.12-.51,4.38-.75,6.54-1.12,5.36-.92,10.71-1.25,16.1-1.85a50.58,50.58,0,0,1,9.45-.38,41.4,41.4,0,0,1,10.31,1.77c.83.29,1.73.59,2.53.94s1.5,1.06,2.35,1.45,1.57.58,2.33.88a7.13,7.13,0,0,1,2.22,1.39A17,17,0,0,1,92.51,121.44Z"/></g><g class="cls-5"><path class="cls-4" d="M79.41,34.23c-.21,1.38-1.41,2.58-2.28,3.64-.6.73-1,1.65-1.61,2.33a5.17,5.17,0,0,1-.72.61c-.38.29-.31.2-.75.09a6.08,6.08,0,0,1-1.52-.57,6.41,6.41,0,0,0-2-.56c-1.2-.23-2.38-.44-3.57-.72-1.35-.31-2.68-.63-4-.89a15,15,0,0,1-5.3-2.22,15,15,0,0,0-1.52-1c-.56-.27-1.22-.4-1.8-.65a11.66,11.66,0,0,1-1.87-.85A4.19,4.19,0,0,1,51.27,32a10.67,10.67,0,0,0-.85-1.15,5,5,0,0,0-1.62-1,6.66,6.66,0,0,0-2.94-.37c-.58,0-1.12.16-1.7.18a4.89,4.89,0,0,0-.76.16,8.84,8.84,0,0,1-1.15,0c-.59.05-1.08.2-1.7.2h-1.5a4.84,4.84,0,0,0-2.66.42c-.16.1-.65.38-.72.57s.17.51.38.67a3,3,0,0,0,1.86.8c1,0,1.85-.19,2.82-.19a27.77,27.77,0,0,1,4.38.21,6,6,0,0,1,1.71.5c.35.18.39.44.53.76a1.64,1.64,0,0,1-1.06.44c-.31,0-.65,0-1,0a15.34,15.34,0,0,0-1.91.24c-1.13.18-2.26.3-3.38.48-.82.14-1.68-.07-2.49.09a12.59,12.59,0,0,1-2.38.15,9.74,9.74,0,0,0-2.75-.06c-1.78.47-3.3,1.53-5.07,2-2.44.64-4.9,1.21-7.34,1.93a16.66,16.66,0,0,0-4.08,2c-1.1.69-2.18,1.48-3.33,2.08A15.34,15.34,0,0,0,11,44c-.42.28-.91.39-1.33.65-1.16.73-2.49,1.17-3.68,1.85-.63.37-1.27.64-1.92,1a16.07,16.07,0,0,0-2,1.3l-.33.24A63.93,63.93,0,0,1,5.69,37.62c.39-.86.8-1.72,1.24-2.56,1.87-.75,3.79-1.41,5.58-2.3.85-.42,1.75-.68,2.61-1a18.22,18.22,0,0,1,2-.71c.74-.21,1.42-.61,2.17-.78.51-.11,1-.13,1.54-.21s1.07-.31,1.62-.43a12.19,12.19,0,0,1,2.49-.1h4.16a59.83,59.83,0,0,0,8-.61c3.11-.42,6.37-.78,9.44-1.51a13,13,0,0,0,1.74-.72,9.21,9.21,0,0,1,1.94-.57c1.53-.31,3.08-.38,4.6-.7s2.9-1.14,4.49-1.35a25.47,25.47,0,0,1,7.13.4,23.51,23.51,0,0,1,4.35.81c.55.21,1.18.39,1.71.65a3.77,3.77,0,0,1,1.52.95A5.94,5.94,0,0,1,75,28.55a3.24,3.24,0,0,0,.76,1,15.59,15.59,0,0,0,1.14,1.3c.59.58,1.15,1.18,1.71,1.79A2.22,2.22,0,0,1,79.41,34.23Z"/><path class="cls-4" d="M4.75,52.8c.47-.69,1-1.24,1.58-1.88a18.42,18.42,0,0,1,2.75-2.39,40.44,40.44,0,0,1,6.58-4.26c2-1.06,4.12-1.87,6.14-2.89a19.06,19.06,0,0,1,4.36-1.61A19,19,0,0,1,29.57,39a46.92,46.92,0,0,1,6.26.43,9.58,9.58,0,0,1,5,1.44c.61.43,1.12.9,1.69,1.36A17,17,0,0,0,45,43.7c.71.4,1.48.7,2.16,1.14.33.22.94.54,1.11.94.34.81-.67,1.7-1.26,2-.23.13-.38.3-.59.42a4.12,4.12,0,0,1-1.17.23c-1.82.37-3.63.72-5.48,1s-3.68.37-5.51.62a42.37,42.37,0,0,1-5,.46c-.81,0-1.64.15-2.45.22s-2,.08-2.9.21a12.41,12.41,0,0,1-2.11.15,20.78,20.78,0,0,0-3,.33c-2,.25-3.82,1-5.77,1.45-1.06.22-2.08.45-3.13.69s-2,.45-3,.61a9.6,9.6,0,0,1-1.7.15.88.88,0,0,1-.94-.58c-.23-.39-.2-.44,0-.87a1.31,1.31,0,0,1,.43-.66C4.82,52,5.12,52.07,4.75,52.8Z"/><path class="cls-4" d="M44.92,41.43c0,.36-.09.62.2.87a3.82,3.82,0,0,0,1,.47,5.48,5.48,0,0,0,2,.18,1.08,1.08,0,0,0,1-.53c.19-.38.08-.48-.25-.8a3.36,3.36,0,0,0-2.09-1.14c-.49,0-1.49.13-1.51.76Z"/><path class="cls-4" d="M33.74,88.8A7.15,7.15,0,0,0,31,91.21,1.37,1.37,0,0,0,31,92.87a3.38,3.38,0,0,0,1.77.95c1,.22,2.06.43,3.07.57a12,12,0,0,0,3.28.06c.71-.09,1.38-.21,2.08-.35A10.24,10.24,0,0,1,43.43,94c.78,0,1.56,0,2.34,0,.57,0,1.13.15,1.7.2a13.46,13.46,0,0,0,4.69-.35,3.12,3.12,0,0,0,2.43-1.95,3.26,3.26,0,0,0,0-2.6,6.43,6.43,0,0,0-3.64-2.66,20.57,20.57,0,0,0-5.7-1.11,19.16,19.16,0,0,0-6.78.7,25.09,25.09,0,0,0-2.37,1,7.49,7.49,0,0,0-1.84,1l-.66.51C33.42,88.9,33.19,89.18,33.74,88.8Z"/><path class="cls-4" d="M44.35,83.11a2.26,2.26,0,0,1,1.22-.39,2.65,2.65,0,0,1,1,.36.76.76,0,0,1,.44.54c0,.25,0,.27-.29.38a2.81,2.81,0,0,1-1.7.06,1.29,1.29,0,0,1-.57-.26c-.1-.12-.16-.42.06-.44Z"/><path class="cls-4" d="M57.74,86.9a1.73,1.73,0,0,0,.38.64h.19a5.53,5.53,0,0,0,.7.18,13,13,0,0,0,1.87,0c1.1,0,3.17,1.56,3.5-.23.3-1.59-1.85-2.1-3-2.39a2.77,2.77,0,0,0-1.66,0,7.12,7.12,0,0,0-1.09.4A1.75,1.75,0,0,0,57.74,86.9Z"/><path class="cls-4" d="M90.33,107.36a10.92,10.92,0,0,1,1.87-.48,9.43,9.43,0,0,1,3.26.24,5,5,0,0,1,3.19,2.41c.23.5.49,1.3,0,1.76-.66.65-2.09.53-2.92.5A10.83,10.83,0,0,1,92.2,111c-.74-.28-1.5-.53-2.23-.82a3.41,3.41,0,0,1-1.4-.9,1.37,1.37,0,0,1-.38-1.32c.12-.33.65-.62,1-.74A1.36,1.36,0,0,1,90.33,107.36Z"/><path class="cls-4" d="M64.18,113.81a10.06,10.06,0,0,1,1.45.29c-.11.18.1.27.05.46s-.5.43-.7.51a3.44,3.44,0,0,1-1.32.13,7,7,0,0,1-1.89-.09c-.55-.17-.87-.51-.29-.86a5.1,5.1,0,0,1,2.7-.44Z"/><path class="cls-4" d="M97.15,79.32a1.44,1.44,0,0,0,.07.72,3.64,3.64,0,0,0,.43.6,12.72,12.72,0,0,0,1.73,1.79,8.31,8.31,0,0,0,1.3.81,7.75,7.75,0,0,0,1.43.74,6.68,6.68,0,0,0,2.11.4c.85,0,1.24-.64,1.26-1.46,0-.63-.51-1.15-.87-1.61a13.28,13.28,0,0,0-1.67-1.6c-1.23-1.09-2.59-2-3.9-3-.4-.3-1.65-1.15-2.15-.6a2.69,2.69,0,0,0-.35,1.09c-.07.36-.09.76-.14,1.13C96.29,79.07,96.57,80.09,97.15,79.32Z"/><path class="cls-4" d="M118.5,56.46a10.26,10.26,0,0,0-2.81-2.11c-1.45-.89-2.78-1.92-4.15-2.92a6.54,6.54,0,0,0-2.42-1.3,16.57,16.57,0,0,0-1.84-.35,19.4,19.4,0,0,0-3.32.11,57.14,57.14,0,0,0-6.27.63c-1.27.23-4.92,1.26-3.26,3.15a3.5,3.5,0,0,0,1.47.76c.67.27,1.31.59,2,.83,1.64.58,3.29,1.19,4.95,1.69,1.37.42,2.76.73,4.12,1.18,1.2.41,2.41.81,3.63,1.16a16.54,16.54,0,0,0,3.76.58c.62,0,1.24.12,1.86.14a6.24,6.24,0,0,0,2-.22C119.47,59.34,119.59,57.9,118.5,56.46Z"/><path class="cls-4" d="M120.64,57.09c0,.2,0,.49.11.66a2,2,0,0,0,.52.29,1.92,1.92,0,0,0,.88.32c.53,0,.75-.31.65-.83-.06-.29-.41-.5-.61-.7a1.45,1.45,0,0,0-1.55-.12Z"/><path class="cls-4" d="M96,20.21a8.34,8.34,0,0,1,4.56-.4,6.27,6.27,0,0,1,2.07.9c.53.37.94.86,1.42,1.27.68.58,1.4.91,1.81,1.74.31.62-.14,1-.74,1.14a4,4,0,0,1-1.77-.23c-.71-.2-1.4-.45-2.1-.69s-1.3-.4-1.94-.67c-.47-.2-.94-.41-1.41-.6a5.64,5.64,0,0,1-2-1.26c-.19-.19-.32-.3-.32-.57A.66.66,0,0,1,96,20.21Z"/><path class="cls-4" d="M106,25.51c.72-.3,1.38-.63,2.06-.13a1.09,1.09,0,0,1,.46,1.21c-.17.45-1.13.36-1.5.3a2.91,2.91,0,0,1-1.65-1Z"/><path class="cls-4" d="M32.6,16.42a21.57,21.57,0,0,0-4,2,10.88,10.88,0,0,0-3.91,3.59,2.49,2.49,0,0,0,2.29,3.72,7.36,7.36,0,0,0,3.53-.61,11.72,11.72,0,0,1,2.75-.65c1.32-.3,2.6-.7,3.9-1,.73-.17,1.41-.46,2.14-.63a10.29,10.29,0,0,0,2-.76c1.28-.57,2.5-1.23,3.72-1.91.84-.46,2.14-1.1,2.46-2.07.23-.68.28-1.35-.44-1.77a3.58,3.58,0,0,0-1.34-.29c-.61-.06-1.24,0-1.85,0s-1.16-.12-1.75-.14-1.41,0-2.13-.05a19.59,19.59,0,0,0-3.67-.18c-.54,0-1,.21-1.58.24a5.36,5.36,0,0,0-1.37.32C32.63,16.44,31.6,16.65,32.6,16.42Z"/><path class="cls-4" d="M47.76,15.53a4,4,0,0,0,2.05.64,5.54,5.54,0,0,0,2.36-.26c.55-.22,1.45-.88.71-1.44s-1.68-.32-2.44-.33A2.72,2.72,0,0,0,47.76,15.53Z"/><path class="cls-4" d="M57,91.07c.81.07,1.94.43,2.69,0a2.61,2.61,0,0,0,.74-.58c.39-.51.15-.94-.44-1.1-.93-.24-3,.4-2.8,1.67Z"/><path class="cls-4" d="M53.06,103.2a6.88,6.88,0,0,1,6.45-2.64,14.86,14.86,0,0,1,3.49,1.2,2.42,2.42,0,0,1,.89.49c.13.14.17.31.33.42a3.32,3.32,0,0,1-2,1.44,7,7,0,0,1-2.28,0,12.5,12.5,0,0,0-1.33-.37,14.48,14.48,0,0,0-2.87,0,3.45,3.45,0,0,1-1.46.13,4.82,4.82,0,0,1-1-.57C53.34,103.11,53.63,103,53.06,103.2Z"/><path class="cls-4" d="M66.33,101.87c.07,1.08.29,1,1.32,1,.5,0,.95-.39.77-1-.11-.35-.46-.44-.77-.56a1,1,0,0,0-1.32.19Z"/><path class="cls-4" d="M10.81,72.69c.09-1.11.76-1.54,1.59-2.27a17.57,17.57,0,0,1,4.09-2.67,22.61,22.61,0,0,1,9.43-1.88c1.32,0,2.62,0,3.93.09a7.4,7.4,0,0,1,2.92.47,1.07,1.07,0,0,1,.59,1.14c-.15.74-1.28.93-1.89,1.15-.94.33-1.93.48-2.89.74a29,29,0,0,0-4.13,1.47c-2.26,1-4.54,2-6.86,2.9a17.25,17.25,0,0,1-3,.76,4.55,4.55,0,0,1-2.56,0,1.5,1.5,0,0,1-1-1.29C10.94,72.81,11.09,71.58,10.81,72.69Z"/><path class="cls-4" d="M35.63,66.82a2.55,2.55,0,0,0,1.5.94,6.14,6.14,0,0,0,1.78.41c.73-.07,1.24-.69.62-1.24-1-.93-2.66-.71-3.9-.49Z"/><path class="cls-4" d="M1.72,75.15c2-.7,3.89-1.56,6-1.52,1,0,1.34.53,1.35,1.52a5.7,5.7,0,0,1-1.53,3.42c-.41.48-.93.86-1.32,1.37a5.7,5.7,0,0,1-.86,1c-.27.22-.85.77-1.18.64-.17-.06-.4-.49-.51-.63a6.27,6.27,0,0,1-.62-.84,6.54,6.54,0,0,1-.61-2.37,13.29,13.29,0,0,1-.38-2.57Z"/><path class="cls-4" d="M95.51,56.59a1.21,1.21,0,0,0-.38.73,6.38,6.38,0,0,0,1.43,1,6.13,6.13,0,0,0,1.51.35,2.9,2.9,0,0,0,1.05-.18c.33-.11.32-.19.23-.43s-.4-.44-.53-.61c-.26-.33-.39-.63-.79-.82a5.87,5.87,0,0,0-2.52-.41Z"/><path class="cls-4" d="M91.53,29.49c1.41,2,2.25,4.4,3.42,6.55a5.55,5.55,0,0,0,2.81,2.53c.68.27,1.42.31,2.1.59a4.43,4.43,0,0,0,1.7.18c.39,0,1.08.13,1.42-.09.87-.56.52-2.52.21-3.27a11.09,11.09,0,0,0-2.36-3.64,14.94,14.94,0,0,0-1.9-1.57,11.33,11.33,0,0,0-2.18-1,6.88,6.88,0,0,0-3-.66,2.26,2.26,0,0,0-.9,0c-.23.12-.25.35-.57.38C92.31,29.58,92.3,29.63,91.53,29.49Z"/><path class="cls-4" d="M94.18,37.26c-.47.73-.6,1,0,1.52.37.35.89.15.78-.39s-.78-1.24-1.34-1.13Z"/><path class="cls-4" d="M82.62,18.12A6.8,6.8,0,0,0,87,20c.46,0,.91-.27.75-.78-.08-.27-.35-.46-.52-.67A4.59,4.59,0,0,0,84.42,17c-.76-.1-1.86-.24-2,.74Z"/><path class="cls-4" d="M78.08,39.91c.2-.71.28-1,1-1.26s.94-.34,1.5.11c.74.6.92,1.3.3,2-.35.4-1.26,1-1.82.63a3.44,3.44,0,0,1-.56-.73c-.24-.33-.18-.56-.19-1Z"/><path class="cls-4" d="M68.79,41.62c.67.57,1.4,1.22,2.36.86.43-.16.87-.45.44-.82s-.77-.19-1.1-.27a1.22,1.22,0,0,0-1.13,0Z"/><path class="cls-4" d="M60.45,7.51a25.68,25.68,0,0,0,2.63-.23c0-.28.27-.54.22-.81-.08-.44-.8-.59-1.16-.65-.63-.11-2.43.24-2.44,1.12Z"/><path class="cls-4" d="M69.64,102.63a1,1,0,0,1,.91-.65,4.19,4.19,0,0,1,1.27.09,12.78,12.78,0,0,1,2.24.74c.9.32,1.79.7,2.71,1a20.46,20.46,0,0,0,3,.56c1.57.23,3.15.37,4.72.64a8.65,8.65,0,0,1,1.35.36c.32.12.64.12,1,.21a1.74,1.74,0,0,1,1,.5.74.74,0,0,1,.19.73c-.08.27-.33.48-.43.76a3,3,0,0,0-.22,1.25,1.8,1.8,0,0,0,.6,1.07A7.41,7.41,0,0,1,89,111c.18.27.22.46-.2.35a6.44,6.44,0,0,1-1.34-.61c-.84-.43-1.63-.93-2.49-1.33-.48-.23-1-.39-1.45-.59s-.91-.41-1.37-.58c-.93-.32-1.84-.77-2.75-1.15-1.48-.63-3-1.28-4.46-1.87a12.85,12.85,0,0,1-2-1c-.34-.22-.65-.51-1-.71a3.29,3.29,0,0,0-1-.29,1.94,1.94,0,0,1-.48-.28,3.31,3.31,0,0,0-1.07-.59S69.36,102.27,69.64,102.63Z"/><path class="cls-4" d="M56.66,92.3c-.12.06-.69.22-.76.47s.09.28.25.34a4.86,4.86,0,0,0,.85.14c.51.08,1,.18,1.5.28s.81.21,1.23.29,1.05.15,1.56.28.88.23,1.34.31,1.09.3,1.66.36c1.19.13,2.39.22,3.58.28a12.53,12.53,0,0,1,3.58.73c.52.19,1,.36,1.56.57s.84.45,1.28.67c.94.46,1.85,1.08,2.83,1.47a22.74,22.74,0,0,0,3.35.92c1.61.35,3.23.65,4.85,1,1.86.41,3.71.87,5.55,1.36a12.48,12.48,0,0,1,2.47.87c.61.32,1.24.62,1.83,1l1.38.81c.46.26.87.59,1.33.85a4.54,4.54,0,0,1,1.05.66,10.55,10.55,0,0,0,.89.88c.22.19.4.42.61.62a2,2,0,0,1,.48.49,3.93,3.93,0,0,1,.3.66,10.29,10.29,0,0,0,.55,1c0,.09.06.21.11.3a2.54,2.54,0,0,0,.37.43c.12.15.2.31.31.45a6.35,6.35,0,0,0,.61.54c.25.26.53.47.78.74a1.68,1.68,0,0,1,.39.93c.08,0,.15.08.2.09s.08,0,.19,0a2.45,2.45,0,0,0,.57-.4,7.58,7.58,0,0,0,1.47-1.81,2.55,2.55,0,0,0,.4-1.44.72.72,0,0,0-.49-.62c-.47-.21-1-.26-1.47-.49s-1.08-.52-1.62-.78c-.33-.16-.62-.38-1-.53a4.85,4.85,0,0,1-1-.56,16.54,16.54,0,0,1-1.58-1.21c-.73-.68-1.54-1.32-2.32-1.94a20.07,20.07,0,0,0-1.9-1.43,6.83,6.83,0,0,0-1.74-.73c-.4-.12-.81-.13-1.21-.21s-.88-.17-1.34-.22c-.74-.07-1.46-.13-2.2-.16a6.63,6.63,0,0,1-1.66-.28,4.5,4.5,0,0,1-1.25-.48c-.31-.2-.63-.37-1-.57s-.85-.61-1.3-.85a8.37,8.37,0,0,1-1.73-1.11c-.26-.25-1.36-1.26-.74-1.57a2.48,2.48,0,0,1,1.59,0,2.84,2.84,0,0,1,.61.35c.2.11.38.25.57.36a4.18,4.18,0,0,0,1.14.4c.75.21,1.49.46,2.25.66s1.62.58,2.46.77a20.83,20.83,0,0,1,4.94,1.39c.73.38,1.51.64,2.25,1s1.33.74,2,1.09a31.64,31.64,0,0,1,2.94,1.55,3.71,3.71,0,0,1,.86,1c.23.33.45.68.65,1a3,3,0,0,0,1.71,1.39.47.47,0,0,0-.13-.24c-.16-.21-.36-.4-.52-.61a1.78,1.78,0,0,1-.48-1.06,2.22,2.22,0,0,0-.39-1.1,11,11,0,0,0-1.87-2.11,5.43,5.43,0,0,0-1.28-.91c-.49-.22-1-.4-1.49-.61-1-.43-2-.81-3-1.19s-2.24-.64-3.37-.95c-.53-.14-1.08-.22-1.6-.37l-2-.58a14.66,14.66,0,0,1-3.15-1.43c-.44-.26-.87-.52-1.32-.77s-1.16-.55-1.72-.87a25.58,25.58,0,0,0-3-1.48,18.16,18.16,0,0,0-3.2-.75c-1.07-.21-2.15-.43-3.23-.61-1.25-.21-2.46-.5-3.72-.62-1-.1-2-.25-3-.3a7.15,7.15,0,0,0-1.73,0,5.37,5.37,0,0,0-1.22.49,10.32,10.32,0,0,1-4.55,1.32c-.46,0-.91.09-1.36.1a5.1,5.1,0,0,0-1,.12C56.72,92.14,56.49,92.29,56.66,92.3Z"/><path class="cls-4" d="M69.74,85.86a2,2,0,0,0-.48.78c-.05.36.37.67.65.82a10.75,10.75,0,0,0,2,.5c.84.23,1.67.51,2.51.76a15.66,15.66,0,0,0,2.36.59c.33.06.85.18,1.13-.08.58-.54-.13-1-.57-1.38a7.56,7.56,0,0,0-2.81-1.07,20.69,20.69,0,0,0-2-.42c-.51-.08-1-.21-1.47-.33-.2-.06-.39,0-.58-.08S70,85.72,69.74,85.86Z"/><path class="cls-4" d="M86.32,119.21a4.22,4.22,0,0,0-1.18-.95c-.89-.58-2-.93-2.87-1.46a10.34,10.34,0,0,0-2.92-1.15c-.81-.18-1.61-.21-2.43-.31-.48,0-1,0-1.44-.07a13.66,13.66,0,0,0-1.57,0c-.51,0-1,0-1.52.07s-1.23,0-1.84.14c-.3,0-1.08.15-1.1.54s.39.57.67.72a8,8,0,0,0,2.19.77c1.06.21,2.13.46,3.19.69.9.21,1.8.42,2.7.67.41.11.77.27,1.17.42s.82.24,1.22.43a22,22,0,0,0,2.12.71l1,.33c.35.12.63.33,1,.48a10,10,0,0,0,1.8.73l1.6.38c.44.1,1.27.45,1.65.08s-.14-1.34-.44-1.71a5.51,5.51,0,0,0-1.71-1.18A1.62,1.62,0,0,0,86.32,119.21Z"/></g><path class="cls-6" d="M48,49.57c-.22.32-.47.61-.06.94a2,2,0,0,0,1.68.21c.61-.17,1.57-.84,1.42-1.6s-1.37-.71-1.91-.56A1.61,1.61,0,0,0,48,50Z"/><path class="cls-6" d="M8.25,52.41c-.23.32-.47.6-.07.93a2,2,0,0,0,1.69.22c.6-.17,1.56-.84,1.42-1.6s-1.37-.71-1.91-.57a1.63,1.63,0,0,0-1.22,1.4Z"/><path class="cls-6" d="M83.29,7.8c-.22.43-.22.37,0,.74a2.24,2.24,0,0,0,1.1.86,4.48,4.48,0,0,0,1.16.12,3.63,3.63,0,0,0,1.14,0,2.53,2.53,0,0,0,1.8-.8A1.92,1.92,0,0,0,88,6.57a3.52,3.52,0,0,0-4.17-.67A1.25,1.25,0,0,0,83.29,7.8Z"/><path class="cls-6" d="M90.2,10.54a.6.6,0,0,1-.09-.37,1,1,0,0,1,1.26.57.92.92,0,0,1,.07.54.91.91,0,0,1-.44.4.89.89,0,0,1-1.11-.28c-.14-.19-.33-.68,0-.76Z"/><path class="cls-6" d="M67.7,53.93a.65.65,0,0,1-.09-.38,1,1,0,0,1,1.25.57.87.87,0,0,1,.07.55,1,1,0,0,1-.44.4.88.88,0,0,1-1.1-.29c-.14-.19-.34-.68,0-.76Z"/><path class="cls-6" d="M118.62,47.59c.22.48.6,1.08,1.23.93a2.19,2.19,0,0,0,1.38-1.79,4,4,0,0,0-.86-3.19,7.69,7.69,0,0,0-1.13-1.08c-.27-.2-.47-.41-.83-.38-.72.06-1,1.11-1.21,1.68a3.13,3.13,0,0,0-.08,2.07,6.08,6.08,0,0,0,.89,1.62C118.19,47.67,118.41,47.92,118.62,47.59Z"/><path class="cls-6" d="M77.67,11.69c.22.49.59,1.09,1.23.94a2.21,2.21,0,0,0,1.37-1.79,4,4,0,0,0-.85-3.2,8.78,8.78,0,0,0-1.13-1.07c-.27-.2-.48-.41-.83-.38-.73,0-1,1.11-1.22,1.67a3.23,3.23,0,0,0-.08,2.08,6.31,6.31,0,0,0,.89,1.61C77.24,11.77,77.46,12,77.67,11.69Z"/><path class="cls-6" d="M115.69,48.44a3.41,3.41,0,0,1,1.18.29,2.21,2.21,0,0,0,0,.37c0,.08.12.19.09.27-.09.23-.51.23-.69.2a2.17,2.17,0,0,1-.76-.38.61.61,0,0,1-.32-.35c.07-.06.15-.11.17-.21Z"/><path class="cls-6" d="M114.8,76.89a3.77,3.77,0,0,1,1.19.29,1.14,1.14,0,0,0,0,.37c0,.08.11.19.08.27-.09.23-.51.23-.69.2a2.15,2.15,0,0,1-.76-.37.66.66,0,0,1-.32-.36c.07-.06.15-.11.17-.21Z"/><path class="cls-6" d="M117.39,38c.13.11.31.35.49.39s.52-.2.68-.3a.88.88,0,0,0,.44-.87,1.36,1.36,0,0,0-.49-.93,9,9,0,0,0-1.69-1,1.38,1.38,0,0,0-1.19-.05c-.42.31-.15.83,0,1.2a5.13,5.13,0,0,0,1,1.32,1.33,1.33,0,0,0,1.08.62Z"/><path class="cls-6" d="M103.21,94.73a1.4,1.4,0,0,0-.11.63,2.24,2.24,0,0,0,1.21.62,2.27,2.27,0,0,0,1.92-.46,1.9,1.9,0,0,0,.54-.91c0-.28-.32-.61-.52-.77a2.24,2.24,0,0,0-1.63-.23,2.46,2.46,0,0,0-.71.23c-.33.18-.46.5-.7.77Z"/><path class="cls-6" d="M109.15,97.89a2.35,2.35,0,0,1,1.22.39c-.13.19-.12.47-.36.6a1.51,1.51,0,0,1-.79,0,1.55,1.55,0,0,1-.42-.39.33.33,0,0,1,.35-.48Z"/><path class="cls-6" d="M50.67,111.36a2.35,2.35,0,0,1,1.22.39c-.12.19-.12.47-.36.59a1.38,1.38,0,0,1-.78,0,1.59,1.59,0,0,1-.43-.39.33.33,0,0,1,.35-.48Z"/><path class="cls-6" d="M117.86,78.94a2.72,2.72,0,0,0,1.24,1c.6.16.89-.2,1.15-.7a4,4,0,0,0,.12-2.09,2.91,2.91,0,0,0-.86-1.81c-1-.66-1.73.31-1.88,1.21,0,.25-.11.51-.14.76a2.51,2.51,0,0,0,.17.93,3.82,3.82,0,0,0,.26,1,3,3,0,0,0,.58.65Z"/><path class="cls-6" d="M55,111.79a3.48,3.48,0,0,0,1.93.35,16.76,16.76,0,0,0,1.71-.36c.58-.12,1.89-.22,2-1,.17-.94-1.13-1.61-1.73-2.05a5.21,5.21,0,0,0-2-.94,2.21,2.21,0,0,0-1.75.1,2.54,2.54,0,0,0-1.2,1.13,1.63,1.63,0,0,0,.32,1.62C54.57,111.1,55,111.39,55,111.79Z"/><path class="cls-6" d="M61,111.89c0-.39-.05-.53.27-.64a1,1,0,0,1,.49,0,.78.78,0,0,1,.37.68c0,.24-.07.5-.38.45s-.65-.35-.63-.51Z"/><path class="cls-6" d="M69.88,6.25c0-.38,0-.52.27-.63a.9.9,0,0,1,.49,0,.79.79,0,0,1,.38.68c0,.24-.08.5-.39.45S70,6.42,70,6.25Z"/><path class="cls-6" d="M9.33,58.43c0-.38,0-.52.28-.64a.91.91,0,0,1,.49,0,.78.78,0,0,1,.37.67c0,.24-.07.51-.38.45s-.65-.34-.63-.51Z"/><path class="cls-6" d="M106.2,93.18c0-.38,0-.52.27-.64a1,1,0,0,1,.49,0,.82.82,0,0,1,.38.68c0,.24-.08.5-.39.45s-.64-.34-.63-.51Z"/><path class="cls-6" d="M70.37,123.66a4.34,4.34,0,0,0,1.47.39,8.13,8.13,0,0,0,.84-.13,2.37,2.37,0,0,0,1.37-.67c.49-.59.13-1-.52-1.09a4,4,0,0,0-2.15,0c-.35.14-1.39.62-.76,1.14Z"/><path class="cls-6" d="M59.51,68.08c-.14.45-.25.78.17,1.11s1.48.32,2.12.41,1.91.39,1.43-.63a2.27,2.27,0,0,0-1.7-1.27,2.08,2.08,0,0,0-2,.25Z"/><path class="cls-6" d="M29.38,70.63a.74.74,0,0,1,.24-.31,2.51,2.51,0,0,1,.61-.31,3.43,3.43,0,0,1,.95-.2c.06,0,.34,0,.28.14s-.07,0-.1.07a.82.82,0,0,1-.25.16l-.25.09a1.46,1.46,0,0,1-.31.14.68.68,0,0,0-.24.08,2.37,2.37,0,0,1-.36.17,1.3,1.3,0,0,1-.51.11c-.05,0-.1,0-.13,0S29.29,70.63,29.38,70.63Z"/><path class="cls-6" d="M35.76,69.09a6.49,6.49,0,0,1,1.52.22c0,.37-.47.51-.76.54a1.14,1.14,0,0,1-.58-.06c-.16-.08-.26-.28-.43-.32Z"/><path class="cls-6" d="M35,40.8a10.45,10.45,0,0,0-3.19-1.25,6.23,6.23,0,0,0-4.13.62c-.41.22-1.26.51-1.25,1.14s1.58.61,2,.62a18.79,18.79,0,0,1,3.66.38,5.57,5.57,0,0,0,2.86.16,1.11,1.11,0,0,0,.7-.94C35.67,41.16,35.09,40.69,35,40.8Z"/><path class="cls-6" d="M36.39,41.17c.31.17,1,.87,1.24.26.1-.31-.07-.47-.21-.71s-.16-.29-.46-.37-.46-.11-.7.19Z"/><path class="cls-6" d="M117.86,60.37a9.68,9.68,0,0,1,2-.11c.25.06.49.17.73.24a3.12,3.12,0,0,1,1.43.82,1.37,1.37,0,0,1,.3.63c0,.27-.27.53-.49.67a2.18,2.18,0,0,1-1.13.16,4,4,0,0,1-1.86-.38c-.34-.18-1.56-1.15-.94-1.65Z"/><path class="cls-6" d="M105.86,82.86c-.29.61-.32.66,0,1.22a2.93,2.93,0,0,0,1.61,1.19c.46.18,1.46.21,1.39-.56,0-.61-.94-1.35-1.38-1.73a2.4,2.4,0,0,0-1.76-.5Z"/><path class="cls-7" d="M60.83,73.26a2.3,2.3,0,0,0,1.71,1.11A1.83,1.83,0,0,0,64,73.83c.56-.6,0-1.13-.57-1.43a1.52,1.52,0,0,0-1.55-.11.81.81,0,0,0-.43.51c-.06.35.26.53.17.84Z"/><path class="cls-7" d="M76.18,55.26c-.43-.62-1.2-1.43-.35-2A2.56,2.56,0,0,1,77.17,53a9.32,9.32,0,0,1,1.67,0,2.75,2.75,0,0,1,1.88.95,4.82,4.82,0,0,1,.77,2,1.86,1.86,0,0,1-2.23,2A5.57,5.57,0,0,1,78,57.49a3.94,3.94,0,0,1-.89-.73c-.43-.33-1-.57-1.14-1.12Z"/><path class="cls-7" d="M82.62,53.17a2.88,2.88,0,0,0,1.44-.79c-.29-.3-.71-.81-1.16-.73-.62.11-.65.61-.66,1.15Z"/><path class="cls-7" d="M68.72,31.08a2.92,2.92,0,0,0,1.44-.79c-.29-.3-.71-.81-1.16-.73-.62.11-.65.61-.65,1.14Z"/><path class="cls-7" d="M34.69,43.7c.44-.34.88-.87,1.42-1a2.18,2.18,0,0,1,1.24.14c.18.09.51.33.55.54.08.39-.24.41-.52.51a5.39,5.39,0,0,1-1.27.33c-.32,0-1.25.41-1-.38Z"/><path class="cls-7" d="M51.55,21.72a4.14,4.14,0,0,0,1.85-.79,1.88,1.88,0,0,0-1.66-.63c-.69.18-.75.3-.76,1Z"/><path class="cls-7" d="M55.15,100.54a1.75,1.75,0,0,1-.37-1c.3-.15.45-.52.74-.72a1.89,1.89,0,0,1,1.34-.23c.48,0,1.2.36,1.15,1a1.69,1.69,0,0,1-1.11,1.19,4.1,4.1,0,0,1-1.37.14Z"/><path class="cls-7" d="M71.25,32.82a1.81,1.81,0,0,1-.37-.95c.3-.16.45-.52.74-.73A1.89,1.89,0,0,1,73,30.91c.48,0,1.2.36,1.15.95A1.68,1.68,0,0,1,73,33.05a3.77,3.77,0,0,1-1.36.14Z"/><path class="cls-7" d="M76.37,114.19c.37-.27,1.09-.92,1.57-.44.27.27.13.59,0,.86a.87.87,0,0,1-.6.53c-.41.1-.56-.21-.92-.23l0-.16Z"/><path class="cls-7" d="M47.87,89.21c.55.7,1.27,1.42,1.73.29.18-.44.12-.46-.21-.76a.8.8,0,0,0-.92-.26l0,.16Z"/><g class="cls-8"><path class="cls-9" d="M55.59,26.46a10.89,10.89,0,0,1,1.19-.58,4.53,4.53,0,0,1,2.49-.5,7,7,0,0,0,2.37.05c1-.14,2-.22,2.93-.29a8,8,0,0,1,1.76.18,6.9,6.9,0,0,1,1.63.45c.48.21.94.51,1.4.75l1.88,1c.46.24,1,.43,1.41.7a4,4,0,0,1,.91.84,12.72,12.72,0,0,1,1.57,2,6.75,6.75,0,0,1,.72,2.39c.08.63,0,1.49-.73,1.63a2.29,2.29,0,0,1-.74,0L73.7,35a3.53,3.53,0,0,0-1.11.18,11.63,11.63,0,0,1-1.17.26,3.74,3.74,0,0,1-1.76-.08c-.31-.11-.63-.22-.93-.36s-.83-.45-1.27-.62a5.51,5.51,0,0,0-1-.34A6.29,6.29,0,0,0,65.32,34,17.61,17.61,0,0,1,62,33.73a20.45,20.45,0,0,1-4.93-1.54,6.18,6.18,0,0,1-1.77-1.12,5.74,5.74,0,0,1-1-1.26,1.88,1.88,0,0,1-.11-2.2A4.76,4.76,0,0,1,55,27,2,2,0,0,0,55.59,26.46Z"/><path class="cls-9" d="M53.32,26.84a2.85,2.85,0,0,0-.91-.19,3.64,3.64,0,0,0-.81.06c-.27.05-.54.12-.81.19a4.81,4.81,0,0,0-.95.44c-.22.12-.72.31-.69.62s.31.38.44.46a1.94,1.94,0,0,0,.57.25,6.63,6.63,0,0,0,1.23.35,1.19,1.19,0,0,0,1.11-.49,2.59,2.59,0,0,0,.55-1.05C53.13,27.14,52.83,26.89,53.32,26.84Z"/><path class="cls-9" d="M39.52,33.38a5.71,5.71,0,0,0-.82.18c-.14,0-.43.11-.52.25s0,.21.11.27a1.35,1.35,0,0,0,.69.16c.54,0,1.07-.09,1.61-.1.23,0,.48,0,.71-.06a2.19,2.19,0,0,0,.62-.17c.18-.09.32-.27.19-.46s-.55-.26-.81-.29a3.31,3.31,0,0,0-1.4.06A4,4,0,0,0,39.52,33.38Z"/><path class="cls-9" d="M40.84,46.16a4.75,4.75,0,0,0-1.63.64,2.08,2.08,0,0,0-.78.69c-.27.62.55.8,1,.88a6.08,6.08,0,0,0,1.9-.1,5.75,5.75,0,0,1,.83,0,3,3,0,0,0,1-.3c.42-.17.9-.44.92-.94a.93.93,0,0,0-.36-1,1.46,1.46,0,0,0-1-.28,8,8,0,0,0-2,.18Z"/><path class="cls-9" d="M36.2,48.44a.75.75,0,0,1,.49.39,1.69,1.69,0,0,1-1.57.36c-.25,0-.44-.21-.25-.42a.77.77,0,0,1,.57-.14Z"/><path class="cls-9" d="M25,67.39a1.91,1.91,0,0,0-.68.35,1.23,1.23,0,0,0-.12.26.76.76,0,0,0,0,.83c.27.45.95.52,1.42.54a7.78,7.78,0,0,0,2.35-.3c.65-.16,1.27-.4,1.91-.58a8,8,0,0,0,.84-.23.6.6,0,0,0,.07-1c-1.05-.95-2.94-.87-4.19-.48a7.15,7.15,0,0,0-1.12.52l-.33.17C25,67.54,24.82,67.76,25,67.39Z"/><path class="cls-9" d="M98.25,77.62c-.07.06-.53.34-.58.53a2,2,0,0,0,0,.42,1.7,1.7,0,0,0,.71,1.35,4.74,4.74,0,0,0,1.27.64.8.8,0,0,0,.75,0c.9-.53-.2-1.66-.64-2.1-.25-.25-.59-.94-1-.85Z"/><path class="cls-9" d="M90.77,74.21a19.45,19.45,0,0,0-2.94-1.6,21.74,21.74,0,0,0-3-1.42,16.48,16.48,0,0,0-3.23-.83,19.4,19.4,0,0,0-5,0c-.68.08-1.35.25-2,.32-.32,0-.61.15-.93.21-.09.24.27.4.43.5a6.73,6.73,0,0,0,1.17.4c.42.16.85.29,1.28.43,1,.33,2,.68,3,.91,1.21.26,2.46.41,3.68.63s2.24.58,3.37.81a11.37,11.37,0,0,0,2.31.38,2.68,2.68,0,0,0,1-.07C90,74.83,90.26,74.58,90.77,74.21Z"/><path class="cls-9" d="M73.53,69.75a5.71,5.71,0,0,0-1.26.38,2.67,2.67,0,0,1-.73.27,5,5,0,0,1-1.89,0c-.19,0-2.88-.31-2-1a3.28,3.28,0,0,1,2-.58,10.8,10.8,0,0,1,2.2.14,3.05,3.05,0,0,1,1,.27c.1.05.17.05.2.16S73,69.56,73.53,69.75Z"/><path class="cls-9" d="M71.63,71.27c-.18.11-.37.21-.56.31.14,0,.17-.1.27-.15a2.13,2.13,0,0,1,.51-.14c.18,0,.66.08.64.36,0,.52-1.12.22-1.33.09Z"/><path class="cls-9" d="M56.19,68.14c-.48-.09-1-.16-1.44-.28a7.06,7.06,0,0,0-2-.08,8,8,0,0,0-2.34.38c-.23.09-.56.17-.66.43-.23.64.72,1,1.15,1.07a13.89,13.89,0,0,0,3.07.46c.46,0,.93,0,1.4,0a5.64,5.64,0,0,0,1.42.06,4.19,4.19,0,0,0,1-.27c.24-.09.47-.12.54-.38.16-.59-.4-1-.87-1.23S56.26,67.75,56.19,68.14Z"/><path class="cls-9" d="M36.39,90.12c0-.35,0-.32.1-.53a3.46,3.46,0,0,1,.76-.72A3.05,3.05,0,0,1,39.38,88a1,1,0,0,1,.5,1.69,4.87,4.87,0,0,1-1.26.89,4.65,4.65,0,0,1-1.28.54,1.07,1.07,0,0,1-1-.28.61.61,0,0,1-.16-.58C36.3,90.08,36.53,90,36.39,90.12Z"/><path class="cls-9" d="M100.72,62.55a5.82,5.82,0,0,0-3.12-1.28c-.33-.06-2.24-.41-2,.39.15.46.84.73,1.22.92.61.3,1.21.56,1.84.83,1.23.51,2.45,1,3.66,1.61a12.2,12.2,0,0,0,1.42.66c.22.07.43.16.59,0,.31-.39-.17-.89-.41-1.19a4.8,4.8,0,0,0-1.7-1.3,9.87,9.87,0,0,1-1.22-.6C100.73,62.37,100.47,62.31,100.72,62.55Z"/><path class="cls-9" d="M106.21,66.34l.08,0c0-.32.67-.53.93-.55a3.57,3.57,0,0,1,.8,0,1.08,1.08,0,0,1,.7.56c.3.47.44,1.27-.35,1.12a2.78,2.78,0,0,1-1.87-1Z"/><path class="cls-9" d="M110.1,68.52a4.15,4.15,0,0,0,1.63,1.24,1.56,1.56,0,0,0,1.4-.07c.56-.5.26-1.48-.15-2a2.74,2.74,0,0,0-2.83-.66c-.22.07-.51.15-.62.38a.9.9,0,0,0,.19.8Z"/><path class="cls-9" d="M115.12,70c-.09-.1-.76-.74-.29-.86s.59.25.81.42.46.26.26.47-.5.06-.69.06Z"/><path class="cls-9" d="M82.58,96.42c-.09.17-.1.15-.07.28a1.3,1.3,0,0,0,.15.34,1.85,1.85,0,0,0,.82.61c.3.14.63.26.94.38s.62.32.93.47a7.37,7.37,0,0,0,1.29.47,3.19,3.19,0,0,0,1.37.19c.16,0,.47-.09.53-.27s-.14-.5-.31-.61a1.76,1.76,0,0,0-.37-.17c-.17-.08-.33-.17-.5-.24a10.7,10.7,0,0,0-1.07-.41A7.87,7.87,0,0,1,84.57,97a4.8,4.8,0,0,0-.91-.51A1.68,1.68,0,0,0,82.58,96.42Z"/><path class="cls-9" d="M87.31,99.79c0-.12-.11-.16,0-.23s.22,0,.31-.06a3.27,3.27,0,0,1,.54,0,1.17,1.17,0,0,1,.32.09,2.22,2.22,0,0,1,.48.2A.19.19,0,0,1,89,100c-.12.23-.62.18-.81.14a3.06,3.06,0,0,1-.54-.15,1.34,1.34,0,0,1-.39-.16Z"/><path class="cls-9" d="M92.14,99.26c0,.09-.07.2,0,.29s.16.18.22.24a3.11,3.11,0,0,0,.9.71c.14.07.28.17.43.23l.46.13c.15,0,.3.11.45.16a4,4,0,0,1,.59.18,10.43,10.43,0,0,0,2.29.82,2.17,2.17,0,0,0,1,0c.18-.06.35-.13.29-.33a1.2,1.2,0,0,0-.51-.6,6.08,6.08,0,0,0-1-.49c-.43-.21-.86-.39-1.31-.57s-.82-.31-1.24-.47A10.1,10.1,0,0,0,92.76,99C92.4,99,92.12,99,92.14,99.26Z"/><path class="cls-9" d="M94.89,97.23a.81.81,0,0,1,1,0c.12.11.22.23,0,.34s-1,.15-1.18-.19Z"/><path class="cls-9" d="M105.83,85.39c-.2,0-.78-.08-1,.15a.34.34,0,0,0,0,.46,2.81,2.81,0,0,0,1.07.52c.54.21,1.11.36,1.63.59s1.17.49,1.74.79a15.37,15.37,0,0,1,1.43.8,7,7,0,0,0,.66.37,3,3,0,0,0,.63.28,1.39,1.39,0,0,0,1.06-.09c.5-.39-.19-1.3-.49-1.59a5.11,5.11,0,0,0-1.25-.92,11.88,11.88,0,0,0-1.55-.55c-.44-.13-.87-.27-1.3-.43a7.59,7.59,0,0,0-1.06-.31c-.4-.08-.8-.14-1.2-.2S105.56,85.28,105.83,85.39Z"/><path class="cls-9" d="M109.91,85.05l.54.16c0,.05.06.07.11.11a.53.53,0,0,1,.12.25c0,.13,0,.22-.13.27a.88.88,0,0,1-.7-.22c-.11-.07-.43-.33-.23-.47Z"/><path class="cls-9" d="M60.08,15.66a6.94,6.94,0,0,0-1-.31l-.54,0c-.41,0-.82,0-1.22,0-.59.06-1.17.24-1.76.34-.44.07-.85.2-1.28.31a13.85,13.85,0,0,0-2.61.73c-.35.16-1.18.55-1.24,1s.3.33.55.36a14.15,14.15,0,0,0,2.16.11c1.24,0,2.47-.27,3.7-.36.72-.06,1.45-.08,2.17-.1s1.37-.11,2.07-.19c.55-.06,1.1-.07,1.64-.13s1.21-.23,1.82-.33a7.16,7.16,0,0,0,2.22-.73c.3-.17.56-.37.32-.72s-.81-.39-1.21-.38c-1.53,0-3,.09-4.58.09C61,15.37,59.16,15.27,60.08,15.66Z"/><path class="cls-9" d="M64,14.33A3.5,3.5,0,0,1,66.33,14c.22.06.77.29.46.55a.88.88,0,0,1-.55.12c-.28,0-.58,0-.86,0-.48,0-.95-.23-1.42-.29Z"/><path class="cls-9" d="M68.32,16.42a3.72,3.72,0,0,1,1.17-.18,2.49,2.49,0,0,1,.44.14,2.16,2.16,0,0,1,.76.41c.37.37.12.52-.25.67a2.84,2.84,0,0,1-1.39.07,1.67,1.67,0,0,1-.57-.19c-.08,0-.45-.44-.16-.45Z"/><path class="cls-9" d="M92.48,19.64c-.73.13-1.39.23-2.09.42a8.2,8.2,0,0,1-1,.23c-.35.05-.71,0-1.07,0a7,7,0,0,1-.92.08,4.14,4.14,0,0,0-.61,0c-.2,0-.5.11-.42.37s.93.57,1.22.67c.52.18,1,.36,1.57.51a10.13,10.13,0,0,0,1.63.22c.25,0,.49,0,.74,0s.6.1.91.14c.89.11,4.44.54,3.5-1.35a2.4,2.4,0,0,0-.75-.89,3.57,3.57,0,0,0-1.1-.46,3.48,3.48,0,0,0-1.4-.08C92,19.65,91.36,20,92.48,19.64Z"/><path class="cls-9" d="M109.05,27.5a2.48,2.48,0,0,0,.88,1.73,4.38,4.38,0,0,0,1.88,1.42c.36.13.91.34,1.21-.07s0-1-.27-1.33a3.77,3.77,0,0,0-1.23-.75c-.45-.23-.82-.51-1.25-.76a4.85,4.85,0,0,0-1.08-.57C108.84,27.05,108.79,27.26,109.05,27.5Z"/><path class="cls-9" d="M27.2,21.44a2.76,2.76,0,0,0-1.61,1.88c-.07.7.59,1,1.18,1a7,7,0,0,0,1.36-.08,7.65,7.65,0,0,0,1.05-.17,2.56,2.56,0,0,0,1.81-1,1.42,1.42,0,0,0,.09-1.61,2.51,2.51,0,0,0-1.67-.81,4.52,4.52,0,0,0-1.67.29,1.79,1.79,0,0,0-.65.38C27,21.45,26.51,21.68,27.2,21.44Z"/><path class="cls-9" d="M29.48,18.6c-.11.22-.31.49-.14.71s.56.14.8.14,1.34-.16,1.33-.71c0-.76-2.1-.5-2.09.05Z"/><path class="cls-9" d="M10.81,29.3A7.59,7.59,0,0,1,12.61,28a15.67,15.67,0,0,1,3.64-1.52,4.71,4.71,0,0,1,2.9,0c.33.15.84.41.76.84s-.48.66-.75.87a6.54,6.54,0,0,1-1.39.72c-.41.17-.84.34-1.27.48a12.42,12.42,0,0,0-1.4.62c-.57.25-1.11.53-1.66.83a19.8,19.8,0,0,0-1.86,1,6.19,6.19,0,0,1-1.15.76,2,2,0,0,1-.66.2.7.7,0,0,1-.48-.58,2.27,2.27,0,0,1,.33-1.39C10.17,29.85,11,28.61,10.81,29.3Z"/><path class="cls-9" d="M10.34,33.85a3.26,3.26,0,0,0-1,.85c-.13.18-.33.62-.17.84s.93,0,1.21,0a5.9,5.9,0,0,0,.73-.15c.24-.09.44-.21.68-.29s.63-.22.74-.57-.1-.52-.33-.74a1.45,1.45,0,0,0-.86-.31c-.34,0-1.06.09-1.16.48Z"/><path class="cls-9" d="M28.72,33.94c.16.22.26.39.56.39a2.87,2.87,0,0,0,.65-.12c.23-.06.77-.31.61-.65-.09-.18-.4-.19-.57-.19s-.46-.08-.71-.1-.89.16-.92.48Z"/><path class="cls-9" d="M21.52,50.62a2.87,2.87,0,0,1,2.23-.81c.15,0,.35,0,.41.2s-.06.25-.18.32a2.1,2.1,0,0,1-.78.21c-.2,0-.39.12-.59.16s-.41-.12-.62-.08Z"/><path class="cls-9" d="M9.3,92.77a8.51,8.51,0,0,1,3.24-2.83c.63-.29,2-.46,2.46.22s.06,1.45-.2,2a12.2,12.2,0,0,1-1,1.52,3.33,3.33,0,0,1-.59.9c-.88.8-2.37,1.58-3.57,1a1.48,1.48,0,0,1-.76-1.52,2.46,2.46,0,0,1,.95-1.94Z"/><path class="cls-9" d="M17.63,88a1.17,1.17,0,0,0-.37.75,1.68,1.68,0,0,0,2.65-.94c.07-.52-.19-.71-.57-.95s-.78-.06-1.14.38Z"/></g></g></g></g></svg>