<svg xmlns="http://www.w3.org/2000/svg" xmlns:xlink="http://www.w3.org/1999/xlink" viewBox="0 0 170.17 183.67"><defs><style>.cls-1{isolation:isolate;}.cls-2{fill:#321255;}.cls-10,.cls-11,.cls-13,.cls-14,.cls-15,.cls-18,.cls-2,.cls-20,.cls-21,.cls-22,.cls-3,.cls-4,.cls-5,.cls-6,.cls-7,.cls-8,.cls-9{fill-rule:evenodd;}.cls-17,.cls-3{fill:#5a4d9c;}.cls-4{fill:#4f2f5b;}.cls-5{fill:url(#Безымянный_градиент_160);}.cls-6{fill:#766bd5;}.cls-7{fill:url(#Безымянный_градиент_162);}.cls-8{fill:url(#Безымянный_градиент_171);}.cls-9{fill:url(#Безымянный_градиент_149);}.cls-10{fill:url(#Безымянный_градиент_160-2);}.cls-11{fill:url(#Безымянный_градиент_162-2);}.cls-12,.cls-18,.cls-22{fill:#fff;}.cls-13{fill:#ff4c4f;}.cls-14{fill:url(#Безымянный_градиент_171-2);}.cls-15,.cls-16{fill:#bebdff;}.cls-18{opacity:0.5;mix-blend-mode:soft-light;}.cls-19{fill:#53345f;}.cls-20{mix-blend-mode:multiply;fill:url(#Безымянный_градиент_163);}.cls-21{fill:url(#Безымянный_градиент_149-2);}</style><linearGradient id="Безымянный_градиент_160" x1="73.13" y1="-11.6" x2="73.13" y2="-31.87" gradientTransform="translate(11.63 29.04) rotate(2.85)" gradientUnits="userSpaceOnUse"><stop offset="0.01" stop-color="#2f0063"/><stop offset="0.98" stop-color="#383e81"/></linearGradient><linearGradient id="Безымянный_градиент_162" x1="56.09" y1="-17.72" x2="56.09" y2="-28.39" gradientTransform="translate(11.63 29.04) rotate(2.85)" gradientUnits="userSpaceOnUse"><stop offset="0" stop-color="#007cde"/><stop offset="1" stop-color="#0f4aa4"/></linearGradient><linearGradient id="Безымянный_градиент_171" x1="150.33" y1="60.22" x2="150.33" y2="35.69" gradientUnits="userSpaceOnUse"><stop offset="0" stop-color="#a40540"/><stop offset="1" stop-color="#c7224a"/></linearGradient><linearGradient id="Безымянный_градиент_149" x1="84.16" y1="71.39" x2="84.16" y2="10.02" gradientUnits="userSpaceOnUse"><stop offset="0" stop-color="#9795ff"/><stop offset="1" stop-color="#f4f1ff"/></linearGradient><linearGradient id="Безымянный_градиент_160-2" x1="43.75" y1="73.13" x2="43.75" y2="6.19" gradientTransform="translate(-2.39 1.17) rotate(1.03)" xlink:href="#Безымянный_градиент_160"/><linearGradient id="Безымянный_градиент_162-2" x1="21.99" y1="67.52" x2="21.99" y2="12.52" gradientTransform="translate(-2.39 1.17) rotate(1.03)" xlink:href="#Безымянный_градиент_162"/><linearGradient id="Безымянный_градиент_171-2" x1="115.05" y1="67.14" x2="115.05" y2="23.52" xlink:href="#Безымянный_градиент_171"/><linearGradient id="Безымянный_градиент_163" x1="54.82" y1="42.76" x2="105.53" y2="42.76" gradientUnits="userSpaceOnUse"><stop offset="0" stop-color="#9579a7"/><stop offset="1" stop-color="#fff"/></linearGradient><linearGradient id="Безымянный_градиент_149-2" x1="91.11" y1="21.22" x2="91.11" y2="4.1" xlink:href="#Безымянный_градиент_149"/></defs><title>p3</title><g class="cls-1"><g id="Слой_2" data-name="Слой 2"><g id="space_background" data-name="space background"><polygon class="cls-2" points="128.76 93.68 170.17 183.67 167.35 183.67 118.02 93.68 128.76 93.68"/><polygon class="cls-2" points="118.02 64.19 116.55 70.78 106.75 71.15 107.69 64.9 118.02 64.19"/><polygon class="cls-3" points="106.75 71.15 101.85 71.15 100.99 63.58 105.4 63.33 105.53 65.05 107.69 64.9 106.75 71.15"/><polygon class="cls-2" points="105.99 71.15 106.75 78.76 112.69 78.76 113.54 70.89 105.99 71.15"/><polygon class="cls-3" points="87.06 76.15 114.6 75.98 114.6 83.81 87.06 83.81 87.06 76.15"/><polygon class="cls-2" points="114.6 75.98 131.48 77.38 134.04 83.81 114.6 83.81 114.6 75.98"/><polygon class="cls-2" points="90.29 83.81 91.86 94.7 128.76 93.68 131.14 83.81 90.29 83.81"/><polygon class="cls-3" points="90.89 87.97 48.75 183.67 50.99 183.67 96.42 94.7 90.89 87.97"/><polygon class="cls-3" points="110.72 94.18 115.05 87.97 121.79 93.88 142.93 183.67 139.35 183.67 110.72 94.18"/><polygon class="cls-2" points="115.05 87.97 141.43 183.67 142.93 183.67 121.79 93.88 115.05 87.97"/><polygon class="cls-2" points="94.72 92.62 50.04 183.67 50.99 183.67 96.42 94.7 94.72 92.62"/><polygon class="cls-3" points="129.44 152.69 65.39 153.7 64.5 155.81 130.29 155.33 129.44 152.69"/><polygon class="cls-2" points="135.52 152.19 154.31 152.19 156.46 154.25 135.52 155.2 135.52 152.19"/><polygon class="cls-4" points="71.3 20.18 71.3 16.37 89.58 19.75 88.84 22.71 71.3 20.18"/><path class="cls-5" d="M69.27,0l32.64,7c2.42,2.3,1.56,12.48-3.7,14.77L67.92,17.5S72.5,10.41,69.27,0Z"/><path class="cls-6" d="M69.27,0c-3.5,1.16-6.76,12.89-1.35,17.5,0,0,3-2.13,3.33-8.62C71.59,2.17,69.27,0,69.27,0Z"/><path class="cls-2" d="M70.24,9.07a8.24,8.24,0,0,1-1.71,5.06,2.26,2.26,0,0,1-.5.45c-2.21-1.09-3-8.65.59-11.93a4.28,4.28,0,0,1,.57.83A9.9,9.9,0,0,1,70.24,9.07Z"/><path class="cls-7" d="M70.24,9.07a8.24,8.24,0,0,1-1.71,5.06c-2.15-2.24-1.2-9.12.66-10.65A9.9,9.9,0,0,1,70.24,9.07Z"/><path class="cls-8" d="M144.91,35.69l9.7,2.18C157.92,40.1,159.82,54,153.9,58l-11,2.26Z"/><path class="cls-9" d="M20,10,143.3,31.6c5.53,1.3,8.49,24.22-2,30.63L20.17,71.39S26.21,46.18,20,10Z"/><path class="cls-10" d="M18.68,7.74l36.43,5.72c12,8.25,17,47.36-4.31,58.11L15.26,74.63S35.93,46,18.68,7.74Z"/><path class="cls-6" d="M18.68,7.74C-1,14.58-9.48,57.73,15.26,74.63c0,0,14-10.2,14.42-34.22C30.15,15.53,18.68,7.74,18.68,7.74Z"/><path class="cls-2" d="M28.26,41.7c-.62,14.55-6.2,24-9.83,27.37a14.52,14.52,0,0,1-3.12,2.32C.87,66.27-6.24,26.84,16.37,10a24.47,24.47,0,0,1,3.85,4.08C23.92,18.86,28.85,27.89,28.26,41.7Z"/><path class="cls-11" d="M28.26,41.7c-.62,14.55-6.2,24-9.83,27.37-14.35-10.82-9.84-47.14,1.79-55C23.92,18.86,28.85,27.89,28.26,41.7Z"/><path class="cls-12" d="M15.38,23.53a16.7,16.7,0,0,0-2.15,6.83l3.69.07,2.27-6.83Z"/><path class="cls-13" d="M102.93,24.53l2-1c3.81,0,10.07,27.71.55,43.62l-3.27-2L105,65s10.07-19.65-.21-40.09Z"/><path class="cls-14" d="M105,23.52c5.6,3.33,7.84,31.9.55,43.62l13.34-1c6.71-5.45,9.18-30.62,1.47-40.22Z"/><polygon class="cls-15" points="123.91 140.22 128.99 136.9 130.97 143.53 125.67 145.91 123.91 140.22"/><polygon class="cls-3" points="135.52 143.43 130.97 143.53 128.99 136.9 134.04 137.66 135.52 143.43"/><polygon class="cls-2" points="135.52 143.43 133.65 144.26 130.56 144.26 127.27 145.91 125.67 145.91 130.97 143.53 135.52 143.43"/><polygon class="cls-15" points="67.7 137.88 70.66 139.44 68.01 144.49 65.4 143.4 67.7 137.88"/><polygon class="cls-3" points="70.66 139.44 73.69 141.54 71.33 145.55 68.01 144.49 70.66 139.44"/><polygon class="cls-3" points="142.28 139.68 149.77 136.9 151.61 142.02 144.89 144.37 142.28 139.68"/><ellipse class="cls-16" cx="126.83" cy="83.81" rx="8.02" ry="13.77"/><path class="cls-15" d="M125.67,70.19a12.19,12.19,0,0,1,7.74,0l-1.15,27.39a10.57,10.57,0,0,1-6.59-.15S118.72,80.94,125.67,70.19Z"/><ellipse class="cls-17" cx="132.26" cy="83.81" rx="8.02" ry="13.77"/><path class="cls-2" d="M137.15,83.73c0,3-1.4,5.34-3.11,5.34s-3.11-2.39-3.11-5.34,1.39-5.34,3.11-5.34S137.15,80.78,137.15,83.73Z"/><path class="cls-15" d="M135.45,83.81c0,2.14-1,3.88-2.26,3.88s-2.26-1.74-2.26-3.88,1-3.88,2.26-3.88S135.45,81.67,135.45,83.81Z"/><path class="cls-18" d="M23.16,12.78s23,4.69,24.29,6.08-20,2.84-20,2.84S24.36,14.45,23.16,12.78Z"/><rect class="cls-19" x="86.26" y="31.16" width="0.25" height="44.25" transform="translate(30.79 138.2) rotate(-88.46)"/><rect class="cls-19" x="134.95" y="22.51" width="0.25" height="22.97" transform="translate(86.43 164.52) rotate(-83.69)"/><path class="cls-20" d="M58.43,16.75l1.86.27s11.94,21.43,2,49.69l43.24-1.66L105,65,54.82,68.77S74.92,49.33,58.43,16.75Z"/><path class="cls-21" d="M84.16,19.77s7.29-4,4.29-15.67l8.37,1.78s4,8.22-2.32,15.34Z"/><path class="cls-18" d="M18.25,67.54c-.14.28,2-6,8.2-18C26.45,49.53,24.3,62.15,18.25,67.54Z"/><polygon class="cls-22" points="65.83 21.93 77.45 23.52 79.18 25.24 66.13 24.34 65.83 21.93"/><polygon class="cls-22" points="124.06 30.35 129.24 31.55 129.92 32.74 125.11 32.06 124.06 30.35"/><path class="cls-22" d="M120.87,74.6a6.72,6.72,0,0,0,4.53-.67c2.14-1.25-.29-3.57-.29-3.57S122.55,70.88,120.87,74.6Z"/></g></g></g></svg>