<svg xmlns="http://www.w3.org/2000/svg" xmlns:xlink="http://www.w3.org/1999/xlink" viewBox="0 0 45.06 38.27"><defs><style>.cls-1{isolation:isolate;}.cls-2{fill:#0059ff;}.cls-2,.cls-3,.cls-4,.cls-5,.cls-6,.cls-7,.cls-8,.cls-9{fill-rule:evenodd;}.cls-3,.cls-5,.cls-6{mix-blend-mode:multiply;}.cls-3{fill:url(#Безымянный_градиент_36);}.cls-4{fill:#00c5ff;opacity:0.55;}.cls-5{fill:#12908b;}.cls-6{fill:url(#Безымянный_градиент_36-2);}.cls-7,.cls-9{fill:#5cf4ff;}.cls-7{opacity:0.75;}.cls-8{fill:#fff;}</style><linearGradient id="Безымянный_градиент_36" x1="26.96" y1="38.27" x2="26.96" y2="18.95" gradientUnits="userSpaceOnUse"><stop offset="0" stop-color="#fff"/><stop offset="1" stop-color="#9579a7"/></linearGradient><linearGradient id="Безымянный_градиент_36-2" x1="6.95" y1="35.35" x2="6.95" y2="0" xlink:href="#Безымянный_градиент_36"/></defs><title>p5</title><g class="cls-1"><g id="Слой_2" data-name="Слой 2"><g id="space_background" data-name="space background"><polygon class="cls-2" points="12.47 35.35 0 7.92 7.1 0 40.59 0.48 45.06 19.47 24.29 38.27 12.47 35.35"/><polygon class="cls-3" points="8.86 18.95 12.47 35.35 24.29 38.27 45.06 19.47 8.86 18.95"/><polygon class="cls-4" points="24.29 38.27 26.33 29.83 40.59 0.48 45.06 19.47 24.29 38.27"/><polygon class="cls-5" points="24.29 38.27 26.33 29.83 13.9 26.86 12.47 35.35 24.29 38.27"/><polygon class="cls-6" points="13.9 26.86 7.1 0 0 7.92 12.47 35.35 13.9 26.86"/><polygon class="cls-7" points="0 7.92 8.86 18.95 45.06 19.47 40.59 0.48 7.1 0 0 7.92"/><polygon class="cls-8" points="33.61 20.44 31.86 25.11 35.13 25.11 38.2 20.44 33.61 20.44"/><polygon class="cls-9" points="8.86 18.95 12.47 35.35 0 7.92 8.86 18.95"/></g></g></g></svg>