<svg xmlns="http://www.w3.org/2000/svg" xmlns:xlink="http://www.w3.org/1999/xlink" viewBox="0 0 117.64 120.94"><defs><style>.cls-1{isolation:isolate;}.cls-10,.cls-11,.cls-12,.cls-13,.cls-14,.cls-15,.cls-16,.cls-17,.cls-18,.cls-2,.cls-20,.cls-21,.cls-4,.cls-5,.cls-6,.cls-7,.cls-8,.cls-9{fill-rule:evenodd;}.cls-2{fill:url(#Безымянный_градиент_533);}.cls-3{opacity:0.58;}.cls-14,.cls-3{mix-blend-mode:multiply;}.cls-4{fill:#9cbdff;}.cls-5{fill:url(#Безымянный_градиент_528);}.cls-6{fill:url(#Безымянный_градиент_528-2);}.cls-7{fill:url(#Безымянный_градиент_528-3);}.cls-8{fill:url(#Безымянный_градиент_528-4);}.cls-9{fill:url(#Безымянный_градиент_528-5);}.cls-10{fill:url(#Безымянный_градиент_528-6);}.cls-11,.cls-17{fill:#a99af4;mix-blend-mode:soft-light;}.cls-12{fill:#573dae;}.cls-13{fill:url(#Безымянный_градиент_528-7);}.cls-14{fill:#a972b0;}.cls-15{fill:url(#Безымянный_градиент_528-8);}.cls-16{fill:url(#Безымянный_градиент_528-9);}.cls-17{opacity:0.88;}.cls-18{fill:#5729ae;}.cls-19{fill:#00e7f4;}.cls-20{fill:url(#Безымянный_градиент_528-10);}.cls-21{fill:url(#Безымянный_градиент_528-11);}</style><radialGradient id="Безымянный_градиент_533" cx="43.72" cy="40.84" r="76.42" gradientUnits="userSpaceOnUse"><stop offset="0" stop-color="#b840c7"/><stop offset="0.7" stop-color="#750088"/><stop offset="0.95" stop-color="#5e1377"/><stop offset="1" stop-color="#8160ff"/></radialGradient><linearGradient id="Безымянный_градиент_528" x1="30.68" y1="67.53" x2="30.68" gradientUnits="userSpaceOnUse"><stop offset="0" stop-color="#4f0e6f"/><stop offset="1" stop-color="#450086"/></linearGradient><linearGradient id="Безымянный_градиент_528-2" x1="89.93" y1="88.05" x2="89.93" y2="13.57" xlink:href="#Безымянный_градиент_528"/><linearGradient id="Безымянный_градиент_528-3" x1="58.18" y1="110.01" x2="58.18" y2="93.98" xlink:href="#Безымянный_градиент_528"/><linearGradient id="Безымянный_градиент_528-4" x1="38.94" y1="116" x2="38.94" y2="107.17" xlink:href="#Безымянный_градиент_528"/><linearGradient id="Безымянный_градиент_528-5" x1="84.02" y1="120.94" x2="84.02" y2="98.95" xlink:href="#Безымянный_градиент_528"/><linearGradient id="Безымянный_градиент_528-6" x1="82.02" y1="22.08" x2="82.02" y2="3.44" xlink:href="#Безымянный_градиент_528"/><linearGradient id="Безымянный_градиент_528-7" x1="91.48" y1="97.52" x2="91.48" y2="88.65" xlink:href="#Безымянный_градиент_528"/><linearGradient id="Безымянный_градиент_528-8" x1="67.15" y1="61.32" x2="67.15" y2="39.65" xlink:href="#Безымянный_градиент_528"/><linearGradient id="Безымянный_градиент_528-9" x1="48.37" y1="67.72" x2="48.37" y2="61.79" xlink:href="#Безымянный_градиент_528"/><linearGradient id="Безымянный_градиент_528-10" x1="16.01" y1="97.55" x2="16.01" y2="81.92" xlink:href="#Безымянный_градиент_528"/><linearGradient id="Безымянный_градиент_528-11" x1="12.06" y1="78.6" x2="12.06" y2="73.34" xlink:href="#Безымянный_градиент_528"/></defs><title>p6</title><g class="cls-1"><g id="Слой_2" data-name="Слой 2"><g id="space_background" data-name="space background"><path class="cls-2" d="M111.16,59A55.6,55.6,0,0,1,32,109.34c-1.42-.66-2.8-1.39-4.15-2.17A55.43,55.43,0,0,1,13.53,95.36,53.71,53.71,0,0,1,9.42,90a55.65,55.65,0,0,1-4.48-53.9,52.81,52.81,0,0,1,3.47-6.47A55,55,0,0,1,18.59,17.56h0A55.53,55.53,0,0,1,85.14,12h0c1,.62,1.92,1.26,2.85,1.93.77.55,1.53,1.13,2.28,1.73a55.61,55.61,0,0,1,20.54,37.26A54.37,54.37,0,0,1,111.16,59Z"/><g class="cls-3"><path class="cls-4" d="M38.33,65.29c-.36.15-1,.36-.94.7.06.15.21.28.29.43a1.3,1.3,0,0,1,.13.41,1,1,0,0,0,.41.62.37.37,0,0,0,.46-.11c.12-.11.25-.23.26-.36a1.91,1.91,0,0,1,.1-.53c0-.07.12-.13.14-.2a.57.57,0,0,0,0-.29C39.19,65.76,38.94,65.37,38.33,65.29Z"/><path class="cls-4" d="M36.86,68.08a.16.16,0,0,1,.09-.23c.53,0,.72.66.22.78s-.66-.34-.48-.55Z"/><path class="cls-4" d="M26.91,72.23a1.84,1.84,0,0,1,.83-.16,1.45,1.45,0,0,1,.66.26,1.25,1.25,0,0,1,.4.53c0,.1.12.18.08.28-.17.39-.9.66-1.47.77a6.52,6.52,0,0,1-1,.16l-.71.05a2.31,2.31,0,0,1-.59,0,2.25,2.25,0,0,1-.46-.15c-.38-.18-.62-.44-.6-.73,0-.5,1-.9,1.69-1.11S27.17,71.8,26.91,72.23Z"/><path class="cls-4" d="M29.51,71.54c-.08.15-.15.19,0,.27a.87.87,0,0,0,.48,0c.29,0,.65-.32.44-.5a1.22,1.22,0,0,0-.55-.26c-.35,0-.8.28-.76.47Z"/><path class="cls-4" d="M40.76,74.72a.51.51,0,0,1,.44-.23c.23,0,.23.22.21.33-.06.26-.6,0-.57-.18Z"/><path class="cls-4" d="M44.87,76.32c-.08.1-.15.19-.11.3s.25.22.5.23.64,0,.72-.29-.11-.37-.29-.47a.66.66,0,0,0-.32-.08.56.56,0,0,0-.46.21Z"/><path class="cls-4" d="M57.2,82.13c-.09,0-.21.08-.23.15a.21.21,0,0,0,0,.11c.06.15.48.16.69.16a3.57,3.57,0,0,0,1.67-.36c.26-.16.51-.44.43-.68s-.69-.51-1.19-.58a2.48,2.48,0,0,0-1.47.15.46.46,0,0,0-.26.29c0,.08,0,.17,0,.25s-.09.22,0,.33A.67.67,0,0,0,57.2,82.13Z"/><path class="cls-4" d="M60.66,82.15c0-.09,0-.1.07-.18a.36.36,0,0,1,.32-.08c.22,0,.35.19.26.32a.6.6,0,0,1-.38.13.37.37,0,0,1-.36-.16Z"/><path class="cls-4" d="M65.11,74.54a.76.76,0,0,0-.44.21c-.07.07-.1.11,0,.19a1.64,1.64,0,0,0,.8.42,1.46,1.46,0,0,0,.69,0,1.81,1.81,0,0,0,.45-.28c.12-.08.23-.17.34-.26s.33-.34.14-.52a1.31,1.31,0,0,0-.85-.28,2.08,2.08,0,0,0-.63.14C65.35,74.19,65.16,74.23,65.11,74.54Z"/><path class="cls-4" d="M63.94,75.33a1.64,1.64,0,0,1,.5.08s.09.07.06.13-.26,0-.36,0a.75.75,0,0,1-.35-.09s-.18-.11-.06-.12Z"/><path class="cls-4" d="M48.33,81.47c-.11.12-.23.25,0,.39a1,1,0,0,0,.73,0c.11,0,.24-.07.26-.15a2.09,2.09,0,0,0,0-.25c0-.2.33-.34,0-.53a1.1,1.1,0,0,0-.56-.12.84.84,0,0,0-.61.42Z"/><path class="cls-4" d="M22.11,88.75a2.52,2.52,0,0,0-1,.32v.08a.38.38,0,0,0,0,.46c.38.45,1.15.4,1.85.4s1.7,0,1.36-.59a1.9,1.9,0,0,0-.82-.93.75.75,0,0,0-.57,0,3.42,3.42,0,0,0-.89.26Z"/><path class="cls-4" d="M30.68,89.45a.88.88,0,0,1,.57-.38.9.9,0,0,1,.5.15c.38.16.74.38.36.67a1.41,1.41,0,0,1-.85.19c-.25,0-.66-.21-.58-.39Z"/><path class="cls-4" d="M66.5,49.75c-.28.34-.31.36-.14.71a1.45,1.45,0,0,0,.52.76,3.74,3.74,0,0,0,1.56.28,1.63,1.63,0,0,0,1-.1,3.18,3.18,0,0,0,.93-.67A2.12,2.12,0,0,0,70.51,48a3,3,0,0,0-1.94-1.3,3.53,3.53,0,0,0-2.35.36,1.21,1.21,0,0,0-.56,1.46c.06.11.11.23.17.35a1.48,1.48,0,0,1,0,.47C65.87,49.51,66,49.66,66.5,49.75Z"/><path class="cls-4" d="M64.94,51.09c.54.26.46.21.54.55,0,.14.14.18.08.31s-.47.34-.76.33a1.46,1.46,0,0,1-.68-.39c-.14-.16-.09-.25,0-.41Z"/><path class="cls-4" d="M10.3,51c-.11.28-.27.62.25.82a1.83,1.83,0,0,0,1.22-.15,2,2,0,0,0,1-1.07c.08-.36-.64-.75-1.19-.79a1.79,1.79,0,0,0-1.79,1.5Z"/><path class="cls-4" d="M9.52,54.16c-.06-.08-.33-.31-.28-.41s.11-.06.15-.1a.83.83,0,0,1,.55-.28,1.47,1.47,0,0,1,1.28.36.32.32,0,0,1-.08.55,1.4,1.4,0,0,1-1.23,0Z"/><path class="cls-4" d="M59.23,90.71a1.6,1.6,0,0,0-.17,1.55c.11.33.19.78.78.93,1.38.34,2.45-1.46,2.71-2a2.23,2.23,0,0,0,.16-1.54,1.75,1.75,0,0,0-1-1.06,2,2,0,0,0-1.72.34c-.88.7-.65,1.59-1.06,2.38Z"/><path class="cls-4" d="M58.51,90.6a4.81,4.81,0,0,0-1,.13c-.15.06-.4.16-.44.27s.12.31.29.4a.77.77,0,0,0,.5.1.74.74,0,0,0,.3-.21,1.35,1.35,0,0,0,.34-.38.56.56,0,0,0,.14-.2c0-.11-.09-.14-.14-.23Z"/><path class="cls-4" d="M77.76,40.79c-.36.15-1.05.36-.94.69a4.17,4.17,0,0,0,.29.44,1.23,1.23,0,0,1,.13.41,1.08,1.08,0,0,0,.41.62c.17.11.35,0,.46-.11s.25-.23.26-.37a1.55,1.55,0,0,1,.1-.52c0-.07.11-.13.14-.2a1,1,0,0,0,0-.29C78.62,41.25,78.37,40.87,77.76,40.79Z"/><path class="cls-4" d="M76.29,43.57c-.05-.09,0-.16.08-.22.54,0,.73.65.22.78s-.65-.34-.47-.56Z"/><path class="cls-4" d="M80.18,50.22c.1-.1.22-.27.45-.24a.26.26,0,0,1,.21.34c-.07.25-.6,0-.57-.18Z"/><path class="cls-4" d="M84.29,51.82c-.07.1-.14.19-.11.3s.25.22.5.23.65-.05.73-.29-.12-.38-.29-.48a.79.79,0,0,0-.32-.08.55.55,0,0,0-.46.21Z"/><path class="cls-4" d="M96.62,57.62c-.09.05-.2.09-.22.15a.2.2,0,0,0,0,.11c0,.16.48.17.69.17a3.5,3.5,0,0,0,1.66-.36c.27-.16.52-.45.44-.68s-.69-.52-1.19-.58a2.52,2.52,0,0,0-1.48.14c-.12.08-.24.18-.25.29s0,.17,0,.26-.09.22,0,.33A.62.62,0,0,0,96.62,57.62Z"/><path class="cls-4" d="M100.08,57.65c0-.1,0-.11.08-.18a.35.35,0,0,1,.31-.08c.22,0,.36.19.26.31a.52.52,0,0,1-.37.13.39.39,0,0,1-.36-.15Z"/><path class="cls-4" d="M69.8,12.51a.83.83,0,0,0-.45.22c-.06.06-.09.11,0,.18a1.5,1.5,0,0,0,.79.42,1.64,1.64,0,0,0,.7,0,2,2,0,0,0,.45-.28l.34-.27c.18-.16.33-.33.14-.52a1.26,1.26,0,0,0-.85-.27,2.14,2.14,0,0,0-.64.13C70,12.16,69.85,12.2,69.8,12.51Z"/><path class="cls-4" d="M68.63,13.3a2,2,0,0,1,.5.08s.09.07.06.13-.26.05-.36.05a.72.72,0,0,1-.35-.09s-.18-.11-.07-.12Z"/><path class="cls-4" d="M87.75,57c-.1.12-.23.25,0,.38a1,1,0,0,0,.74,0c.11,0,.24-.07.26-.15a2.09,2.09,0,0,0,0-.25c0-.2.33-.34,0-.53a1,1,0,0,0-.56-.12.84.84,0,0,0-.61.42Z"/><path class="cls-4" d="M70.1,65a.93.93,0,0,1,.58-.38.84.84,0,0,1,.49.14c.38.17.74.38.37.68a1.43,1.43,0,0,1-.85.18c-.25,0-.67-.21-.59-.38Z"/><path class="cls-4" d="M98.66,66.21a1.56,1.56,0,0,0-.17,1.54c.11.34.19.78.78.93,1.38.35,2.45-1.46,2.71-2a2.31,2.31,0,0,0,.16-1.55,1.84,1.84,0,0,0-1-1.06,2,2,0,0,0-1.72.35c-.88.69-.65,1.58-1.06,2.37Z"/><path class="cls-4" d="M97.94,66.09a6.75,6.75,0,0,0-1,.13c-.16.07-.4.16-.44.27s.12.31.29.41a.79.79,0,0,0,.49.09.87.87,0,0,0,.31-.2,2,2,0,0,0,.34-.38.76.76,0,0,0,.13-.2c0-.11-.08-.15-.13-.24Z"/><path class="cls-4" d="M66.82,87.09a.49.49,0,0,1,.44-.24c.23,0,.23.23.21.34s-.6,0-.57-.18Z"/><path class="cls-4" d="M70.93,88.69c-.08.1-.15.19-.11.3s.25.22.5.23.64,0,.72-.29-.11-.38-.29-.48a.79.79,0,0,0-.32-.08.56.56,0,0,0-.46.21Z"/><path class="cls-4" d="M83.25,94.49c-.08.05-.2.09-.22.15a.21.21,0,0,0,0,.11c.06.16.48.17.69.17a3.5,3.5,0,0,0,1.66-.36c.27-.17.52-.45.44-.69s-.69-.51-1.19-.57a2.52,2.52,0,0,0-1.48.14c-.12.08-.24.18-.25.29s0,.17,0,.26-.09.22,0,.33A.68.68,0,0,0,83.25,94.49Z"/><path class="cls-4" d="M86.72,94.52c0-.1,0-.11.07-.18a.36.36,0,0,1,.32-.08c.22,0,.35.19.26.31a.54.54,0,0,1-.38.13.39.39,0,0,1-.36-.15Z"/><path class="cls-4" d="M74.39,93.84c-.11.12-.23.25,0,.38a1,1,0,0,0,.73,0c.11,0,.24-.07.26-.15a2.09,2.09,0,0,0,0-.25c0-.2.33-.34,0-.53a1,1,0,0,0-.56-.12.84.84,0,0,0-.61.42Z"/><path class="cls-4" d="M85.29,103.08a1.58,1.58,0,0,0-.17,1.54c.11.34.19.78.78.93,1.38.35,2.45-1.46,2.71-2a2.26,2.26,0,0,0,.16-1.55,1.78,1.78,0,0,0-1-1.06,2,2,0,0,0-1.72.35c-.88.69-.65,1.58-1.06,2.37Z"/><path class="cls-4" d="M84.57,103a6.75,6.75,0,0,0-1,.13c-.15.07-.4.16-.44.27s.12.31.29.41a.83.83,0,0,0,.5.09.93.93,0,0,0,.3-.2,1.69,1.69,0,0,0,.34-.38.81.81,0,0,0,.14-.2c0-.11-.09-.15-.14-.24Z"/><path class="cls-4" d="M57.74,95l.46.13c0,.11,0,.24-.14.31a1.26,1.26,0,0,1-.58,0c-.21,0-.34-.14-.33-.26s.23-.22.46-.24Z"/><path class="cls-4" d="M36.19,101c-.07.13-.1.24.09.35a1,1,0,0,0,.95.06c.41-.19.86-.62.74-1a.76.76,0,0,0-.87-.32,2.77,2.77,0,0,0-.55.24.79.79,0,0,0-.36.59Z"/><path class="cls-4" d="M53.39,31.39c-.16.09-.25.12-.29.25a.37.37,0,0,0,.07.41,3.07,3.07,0,0,0,1.42.5,2,2,0,0,0,1.14-.13c.41-.18.66-.4.73-.7s0-.55-.48-.74a4.24,4.24,0,0,0-1.28-.37,1.64,1.64,0,0,0-1,.19C53.42,30.94,53.06,31.19,53.39,31.39Z"/><path class="cls-4" d="M57,32.38c0-.09,0-.18.13-.21a1.34,1.34,0,0,1,.66.16c.1.07.22.22.19.32s-.13.13-.23.18a.75.75,0,0,1-.53,0c-.11,0-.39-.13-.35-.24Z"/><path class="cls-4" d="M45.93,21.94a.36.36,0,0,0,.13.35,2.23,2.23,0,0,0,.77.47A3.56,3.56,0,0,0,48.2,23a.81.81,0,0,0,.71-.45.83.83,0,0,0-.32-.75,3.1,3.1,0,0,0-2-.62C45.69,21.23,45.65,22,45.93,21.94Z"/><path class="cls-4" d="M49.75,23.83a.45.45,0,0,1-.19-.2c.12,0,.17-.12.31-.15a.85.85,0,0,1,.42,0c.18.06.3.15.31.28s-.08.17-.26.22A.34.34,0,0,1,50,24l-.28-.12Z"/></g><path class="cls-5" d="M14,22l.28-4.9A85.86,85.86,0,0,1,53.79,0L57,3.44l2.2,3.48S39.32,17.49,26.47,34.66L28,36,41.9,28.16l13.68,2.5-.25,4S39,54.24,20.52,67.53H7.43L3,38.58l-.86-5.7,7.93-9.26Z"/><path class="cls-6" d="M94.53,13.57S82.4,16.05,67.81,30.24l-5.59,2.13s26.9,6.47,36.33,11.07L96.94,48l8.87,8.33S101.25,72.8,91.16,85L93,88.05s14-2.56,20.63-7.93l4-17.27-2.4-1.06S113.85,25.33,94.53,13.57Z"/><path class="cls-7" d="M39.44,102.73,49.08,94l25.84,1.46-2.52,6.43,4.53,1.3s-7.62,9-34.36,6.36Z"/><path class="cls-8" d="M27.8,107.17v3.56L40.44,116l9.64-1.75S35.84,112.32,27.8,107.17Z"/><path class="cls-9" d="M70.18,112.52l4-5.35L85.05,99l8.57.59,4.25,4.3s-7.21,10.55-23.26,17.1Z"/><path class="cls-10" d="M71.32,22.08s5.21-14,9.09-18.64c0,0,8.22-.07,12.32,5.82L88,13.88S81.36,14.22,71.32,22.08Z"/><path class="cls-11" d="M53.79,0S31.88,17.53,23.67,33.76l-8.5,11.3L41.9,28.16l13.68,2.5s-23,24.62-38.66,34.67l-9.49,2.2L2.15,32.88l8.63-9.32L12,34.66l2.28-14V17.05S30.49,2.68,53.79,0Z"/><path class="cls-12" d="M74.61,120.94l9.63-14.29,13.63-2.81S91.71,114.32,74.61,120.94Z"/><path class="cls-12" d="M94.24,87.8l17.2-21.14,6.2-3.81-4,17.27S107,86.57,94.24,87.8Z"/><polygon class="cls-13" points="84.24 93.76 95.48 88.65 98.93 90.99 94.25 96.26 84.02 97.52 84.24 93.76"/><polygon class="cls-12" points="98.93 90.99 87.42 94.75 84.02 97.52 94.25 96.26 98.93 90.99"/><path class="cls-14" d="M26.47,34.66l-11.3,10.4,8.5-11.3S37.88,10.32,53.79,0l9.29,6.5S38.56,18.82,26.47,34.66Z"/><path class="cls-14" d="M55.58,30.66l-.17,2.67,4.26.43S40.33,56.38,22,67.72l-1.5-.19Z"/><path class="cls-14" d="M71.32,22.08,89.48,15,88,13.88l4.73-4.62S81.93,9.48,71.32,22.08Z"/><polygon class="cls-14" points="98.55 43.44 106.86 34.66 87.52 36.01 64.31 32.88 97.87 45.06 98.55 43.44"/><polygon class="cls-15" points="45.29 54.76 67.06 39.65 89.02 43.19 89.02 50.81 70.09 61.32 45.29 54.76"/><polygon class="cls-16" points="41.9 63.8 45.54 61.78 54.83 62.79 53.81 66.66 47.78 67.72 41.9 63.8"/><polygon class="cls-11" points="45.29 54.76 59.21 55.79 72.56 40.93 67.06 39.65 45.29 54.76"/><polygon class="cls-17" points="41.9 63.8 46.44 65.85 50.1 63.8 54.83 62.79 45.54 61.78 41.9 63.8"/><polygon class="cls-14" points="59.21 55.79 70.18 59.02 89.02 50.81 74.11 63.91 45.29 54.76 59.21 55.79"/><polygon class="cls-14" points="47.78 67.72 46.44 65.85 50.1 63.8 54.83 62.79 56.76 67.72 47.78 67.72"/><polygon class="cls-12" points="114.31 52.84 108.48 59.64 103.55 67.72 114.31 59.64 114.31 52.84"/><path class="cls-18" d="M75.69,103.1l-3.29-1.23,2.52-6.43-24.51.49L41,103.81l1.59,5.72s9.59,2.89,18.56,1.55A25.76,25.76,0,0,0,75.69,103.1Z"/><polygon class="cls-17" points="49.08 93.98 50.41 95.93 40.98 103.81 39.44 102.73 49.08 93.98"/><polygon class="cls-14" points="96.94 47.99 110.82 52.87 105.81 56.32 96.94 47.99"/><path class="cls-19" d="M7.49,62.56l-.11-.22c.23-.12,23.2-11.65,30.84-17.38,7-5.24,9.58-9.54,10-10.25l-5.52-3.26L4.94,50.92l-.11-.22L42.69,31.16l5.84,3.45-.05.11S46,39.41,38.37,45.16,7.72,62.44,7.49,62.56Z"/><polygon class="cls-19" points="6.4 60.46 6.28 60.24 21.7 52.27 35.15 39.66 33.76 38.73 5.18 52.49 5.07 52.27 33.78 38.44 35.55 39.63 35.43 39.74 21.83 52.49 6.4 60.46"/><polygon class="cls-19" points="4.6 47.73 4.42 47.56 27.01 21.64 48.28 0.89 48.45 1.07 27.19 21.81 4.6 47.73"/><polygon class="cls-19" points="3.53 44.96 10.02 24.29 10.26 24.36 4.24 43.54 16.82 25.94 35.25 4.91 35.44 5.08 17.01 26.09 3.53 44.96"/><polygon class="cls-19" points="108.92 32.48 91.94 32.05 73.25 28.75 73.25 27.19 73.31 27.15 89.4 17.98 98.91 16.8 98.94 17.05 89.45 18.22 73.5 27.33 73.5 28.55 91.96 31.8 108.93 32.23 108.92 32.48"/><polygon class="cls-19" points="92.73 29.6 81.9 28.27 81.9 27.14 81.94 27.1 90.5 20 101.22 19.19 101.23 19.44 90.6 20.24 82.15 27.26 82.15 28.05 92.74 29.35 107.52 29.04 107.52 29.29 92.73 29.6"/><polygon class="cls-19" points="113.61 50.39 107.43 48.71 107.4 48.66 105.06 43.17 110.4 36.5 110.59 36.66 105.35 43.21 107.61 48.5 113.68 50.15 113.61 50.39"/><polygon class="cls-19" points="113.6 49.01 110.39 47.74 110.38 47.68 109.29 44.23 109.32 44.19 111.59 40.44 111.81 40.57 109.56 44.27 110.6 47.55 113.69 48.78 113.6 49.01"/><polygon class="cls-19" points="45.31 54.88 45.26 54.63 64.28 50.36 88.98 43.07 89.05 43.31 64.34 50.6 45.31 54.88"/><polygon class="cls-19" points="70.19 61.41 70 61.24 74.66 56.21 88.95 47.01 89.08 47.22 74.81 56.41 70.19 61.41"/><polygon class="cls-19" points="41.46 103.54 41.43 103.29 73 100.17 73.03 100.42 41.46 103.54"/><polygon class="cls-19" points="74.61 96.35 53.79 95.98 53.8 95.73 74.61 96.1 74.61 96.35"/><path class="cls-20" d="M4.92,81.92v6.87l4.12,5s10.26,4.16,18.07,3.76l-3.06-6,1.55-2.72Z"/><polygon class="cls-21" points="3.88 76.43 7.75 78.6 18.11 78.6 20.23 74.93 6.01 73.34 3.88 76.43"/><polygon class="cls-11" points="3.88 76.43 9.04 77.25 18.36 76.43 20.23 74.93 6.01 73.34 3.88 76.43"/><polygon class="cls-11" points="4.92 81.92 4.92 88.79 10.96 92.49 20.23 90.99 25.6 88.79 4.92 81.92"/><polygon class="cls-14" points="20.23 74.93 18.36 76.43 7.75 78.6 19.45 79.62 20.23 74.93"/><polygon class="cls-14" points="24.05 91.51 16.92 93.98 27.11 97.52 25.6 91.51 25.6 88.79 24.05 91.51"/></g></g></g></svg>