<svg xmlns="http://www.w3.org/2000/svg" xmlns:xlink="http://www.w3.org/1999/xlink" viewBox="0 0 117.63 117.63"><defs><style>.cls-1{isolation:isolate;}.cls-2,.cls-4,.cls-8{fill-rule:evenodd;}.cls-2{fill:url(#Безымянный_градиент_366);}.cls-3{opacity:0.5;}.cls-3,.cls-6{mix-blend-mode:multiply;}.cls-4{fill:#c4b0b8;}.cls-5{opacity:0.63;}.cls-5,.cls-7{mix-blend-mode:soft-light;}.cls-6{opacity:0.47;}.cls-8{fill:#c4b0ff;}</style><radialGradient id="Безымянный_градиент_366" cx="46.27" cy="39.57" r="80.87" gradientUnits="userSpaceOnUse"><stop offset="0" stop-color="#7cc5ff"/><stop offset="0.84" stop-color="#482088"/><stop offset="0.95" stop-color="#403b77"/><stop offset="1" stop-color="#4d79d1"/></radialGradient></defs><title>p7</title><g class="cls-1"><g id="Слой_2" data-name="Слой 2"><g id="space_background" data-name="space background"><path class="cls-2" d="M117.63,58.82a58.83,58.83,0,0,1-83.82,53.24c-1.5-.7-3-1.47-4.39-2.29a58.88,58.88,0,0,1-15.1-12.5A56.93,56.93,0,0,1,10,91.59a58.88,58.88,0,0,1-4.74-57A57.67,57.67,0,0,1,8.9,27.7,58.88,58.88,0,0,1,19.67,14.93h0A58.74,58.74,0,0,1,90.1,9h0c1,.65,2,1.32,3,2,.82.59,1.63,1.2,2.41,1.84a58.77,58.77,0,0,1,22.1,45.94Z"/><g class="cls-3"><path class="cls-4" d="M117.27,52.31a8.22,8.22,0,0,0-.53,1.17,9.13,9.13,0,0,1-.83,1.69,22.78,22.78,0,0,0-.92,2.15c-.68,1.58-1.18,3.3-1.75,4.93-.63,1.81-1.23,3.62-2,5.39-.35.79-.86,1.5-1.22,2.29s-.7,1.54-1.13,2.29c-1.08,1.85-2,3.72-3.18,5.53a103.89,103.89,0,0,1-6.88,9.17,46.75,46.75,0,0,1-4,4.21c-1.55,1.54-2.92,3.26-4.53,4.77a31.38,31.38,0,0,1-4,3.31c-.81.54-1.59,1.13-2.41,1.66a29.53,29.53,0,0,1-3.36,1.6A88.64,88.64,0,0,1,69,106.6c-3.8,1.21-7.46,2.87-11.34,3.84-.79.2-1.6.28-2.4.44a25.1,25.1,0,0,1-2.61.52c-1.78.2-3.5.8-5.3.89-1.25.06-2.42-.18-3.65-.24a39.24,39.24,0,0,0-4.72.21,25.26,25.26,0,0,1-5.21-.2c-1.5-.7-3-1.47-4.39-2.29l.16,0c1,.33,2,.92,3,1.16s2.24.43,3.37.62a13.59,13.59,0,0,0,4.5,0c.8-.13,1.6-.23,2.4-.39s1.74,0,2.6-.16a19.66,19.66,0,0,1,3.76-.1c2.12-.07,4.19-.85,6.23-1.26,2.27-.46,4.43-1.29,6.74-1.56a19.62,19.62,0,0,0,3.6-1,8.16,8.16,0,0,0,2.64-1.6,26.14,26.14,0,0,1,5.45-3.42,32.69,32.69,0,0,1,6.2-1.83,11.07,11.07,0,0,0,5-2.36c.59-.53,1.15-1.08,1.73-1.62a26.42,26.42,0,0,0,2.12-2c.72-.83,1.55-1.6,2.27-2.43s1.45-2,2.24-2.89c1.25-1.48,3.16-2.25,4.4-3.75.26-.31.43-.69.7-1s.58-.47.75-.88.72-1.63.44-2.19c-.55-1.11-3.48,1.76-4,2.21a10.56,10.56,0,0,1-3.81,2.74,16.65,16.65,0,0,1-3,.63c-2.74.59-5.54.91-8.31,1.34-3.74.58-7.53,1.37-11.22,2.27C66,91.25,62.54,92.22,59.09,93c-1.84.44-3.67.9-5.51,1.31-2.25.5-4.46,1.19-6.72,1.63a70,70,0,0,1-11.24,1.64c-3,.08-5.92.23-8.9.23-4,0-8.32.41-12.25-.53l-.15,0A56.93,56.93,0,0,1,10,91.59,20.27,20.27,0,0,0,14.47,93a7.89,7.89,0,0,1,3.25,1.13,6.59,6.59,0,0,0,2,1.1,11.92,11.92,0,0,0,7.4,0c1-.29,1.92-.58,2.86-.89.7-.24,1.34-.65,2-.84,2-.52,4-.89,6-1.35,1-.22,2-.4,2.88-.69a32.9,32.9,0,0,0,3.06-1.28,28,28,0,0,1,5.81-2,14.18,14.18,0,0,0,4-1c.39-.19,1-.45.91-1s-.91-.47-1.37-.39c-1.34.23-2.71.35-4,.71a35.72,35.72,0,0,1-7.19,1.1,92.28,92.28,0,0,1-11,.27c-2.91-.14-5.84-.4-8.74-.38a24.78,24.78,0,0,1-8.22-1.1,52.43,52.43,0,0,1-8.88-3.43,58.94,58.94,0,0,1,0-48.5c-.39,1.07-.72,2.17-1.17,3.21a16,16,0,0,0-1.43,6.37,17.08,17.08,0,0,1,0,2.58,6.28,6.28,0,0,0,.08,2.89A18,18,0,0,0,3.35,52a2.3,2.3,0,0,0,.47.65,6.24,6.24,0,0,1,.45.77,6.41,6.41,0,0,0,2,2.27A9.52,9.52,0,0,0,8,56.29a2.1,2.1,0,0,0,1.65,0,7.27,7.27,0,0,1,1.75-.45,4.69,4.69,0,0,1,1,.22c.41.07.82,0,1.24.12a24.84,24.84,0,0,0,5.2.77c1.39,0,2.76.21,4.17.21A38.68,38.68,0,0,0,28,57c1.13-.15,2.35-.43,3.49-.5s2.34,0,3.5,0a24.06,24.06,0,0,0,11.67-3.06,25,25,0,0,1,6-2.54c2.68-.77,5.42-1.53,8.17-2a32.74,32.74,0,0,0,7.39-2.4,19.8,19.8,0,0,0,3-1.74c.87-.59,1.81-1,2.65-1.65a58.57,58.57,0,0,0,6.67-6c1.21-1.21,2.44-2.43,3.7-3.58a7.42,7.42,0,0,1,3.5-1.71c2.14-.51,3.33-2.91,4.48-4.64a14.17,14.17,0,0,0,2.73-7.33,15.07,15.07,0,0,0-.25-3.29,5.19,5.19,0,0,0-.4-1.41,5,5,0,0,1-.43-.87c-.06-.26-.07-.53-.12-.76s-.17-.47-.22-.66a6.71,6.71,0,0,1-.34-1.74v0c.82.59,1.63,1.2,2.41,1.84a3.2,3.2,0,0,1,0,.69c-.06.27-.15.51-.2.78a4.79,4.79,0,0,0-.22,1.09,5.36,5.36,0,0,0,.11,1.34c.28,1.09,1,2.1,1,3.25a9,9,0,0,1-.76,3.39c-.42,1-.87,2-1.37,3a11.33,11.33,0,0,1-1.15,1.87A14.34,14.34,0,0,0,91.71,30c-.25.48-.5,1-.7,1.47a6.11,6.11,0,0,1-1.69,2.06C87.9,34.88,86.13,36,84.61,37.3a22.44,22.44,0,0,0-3.39,3.5c-.43.59-2.65,2.32-2,3.23.27.4,1.11.27,1.49.27a6.09,6.09,0,0,0,2.52-.56,51.3,51.3,0,0,1,6.57-2.81,26.59,26.59,0,0,0,3.08-.9,31.53,31.53,0,0,0,3.37-1.85,8.4,8.4,0,0,0,2-2c.36-.43.87-.67,1.27-1.07a15.77,15.77,0,0,1,1.28-1.42,16.46,16.46,0,0,0,3.31-3.56,12.71,12.71,0,0,0,1.5-4.11,4.52,4.52,0,0,0,.24-1.09c0-.46,0-.95,0-1.41v-.08A58.33,58.33,0,0,1,117.27,52.31Z"/><path class="cls-4" d="M90.46,14c-.22,1.34-.34,2.65-.61,4A19.37,19.37,0,0,1,89,22c-.9,2.12-1.19,4.48-2.63,6.35a13.72,13.72,0,0,1-1.86,2.32,6.45,6.45,0,0,1-.93.51c-.3.2-.62.5-.92.72a39.49,39.49,0,0,0-4.53,3.62,30,30,0,0,1-4.59,4c-.52.34-1.06.58-1.6.87a9.94,9.94,0,0,1-1.3.75,5.58,5.58,0,0,0-1.54.73,7,7,0,0,1-1.36.77c-.83.32-1.63.71-2.46,1-.38.16-.78.25-1.17.38a10.62,10.62,0,0,1-3.31.5c-.45-.2-.07-.22.28-.38a1.61,1.61,0,0,0,.59-.45,7.84,7.84,0,0,1,1-.92c.63-.45,1.45-.67,2.12-1.08.85-.54,1.7-1.19,2.53-1.77a12.67,12.67,0,0,0,1.81-1.85c.62-.66,1.37-1.24,2.06-1.86s1.48-1.52,2.28-2.21a8.6,8.6,0,0,0,2-2.55c.22-.41.59-.72.82-1.14s.48-.77.66-1.19.46-1,.67-1.43A9,9,0,0,0,78,25.9c.36-1.73.71-3.48,1-5.22a30.25,30.25,0,0,0,.32-4.47c.06-1.42.45-2.81.46-4.24a3.5,3.5,0,0,0-.2-1.55c-.31-.68-.64-1.27-.89-2A11.37,11.37,0,0,0,74.78,3c-.27-.2-1.15-.73-2-1.36A58.08,58.08,0,0,1,90.1,9h0A11.46,11.46,0,0,1,90.46,14Z"/><path class="cls-4" d="M73.42,14.07a18.37,18.37,0,0,1-.79,2,17,17,0,0,0-.54,2.45c-.17,1.27-.06,2.52-.2,3.79a22,22,0,0,1-2.13,6.89,14.16,14.16,0,0,1-4.83,5.25A44.12,44.12,0,0,1,58.39,38c-1.27.58-2.62.82-3.91,1.31-1.09.41-2.17.88-3.25,1.3s-2.06,1.15-3.13,1.5c-.67.22-1.32.44-2,.68-1.14.41-2.18,1-3.3,1.49a28.43,28.43,0,0,1-4.88,1.6A13.51,13.51,0,0,1,33,45.77a38.58,38.58,0,0,1-4.16-.6,33.92,33.92,0,0,0-7.8-.44c-1.95,0-4.2.19-5.92-.86a3.3,3.3,0,0,1-1.31-1.14,8.36,8.36,0,0,1-.53-2.15c-.3-1.43-1.66-2.4-2.59-3.44A8.89,8.89,0,0,1,8.8,32.27a13.26,13.26,0,0,1,.1-4.57A58.88,58.88,0,0,1,19.67,14.93c-1,1.87-1.73,3.85-2.6,5.78-1.3,2.89-2.46,6-2.34,9.27a7.69,7.69,0,0,0,.82,3.78,6.35,6.35,0,0,0,2.21,2A27.28,27.28,0,0,0,21.94,38c1.66.63,3.31,1.24,4.95,1.87a12.94,12.94,0,0,0,2.93.91,25.76,25.76,0,0,0,3.83,0c4.53-.12,8.7-2.24,13-3.52,1.37-.41,2.79-.6,4.14-1a17.28,17.28,0,0,0,2.35-1.08,50,50,0,0,0,5.74-2.93A24.8,24.8,0,0,0,63.6,27.9a11.67,11.67,0,0,0,2.05-4.09,38.45,38.45,0,0,0,1.68-9.2,27.44,27.44,0,0,1,.91-3.89,2.54,2.54,0,0,0-.61-2.51,12.64,12.64,0,0,0-5.26-2.44,13.48,13.48,0,0,0-3.26-.6H55.8c-1.06,0-2.1-.23-3.17-.23-1.25,0-2.42.36-3.66.45a35.72,35.72,0,0,0-3.86.49,37.86,37.86,0,0,0-4.45,1.31,25.63,25.63,0,0,0-8.13,4.1c-.6.47-1.26.84-1.89,1.26a3.86,3.86,0,0,0-1.11,1.35A11.42,11.42,0,0,0,28,17.49a10.56,10.56,0,0,0-.19,2.81,23.09,23.09,0,0,1-.38,3.8c-.29,1.76-2,4.38-.13,5.79a2.38,2.38,0,0,0,1.81.43,20.63,20.63,0,0,0,2.82-.66,56.21,56.21,0,0,1,8-1.93,17.61,17.61,0,0,0,2.39-.25c.5-.14,1-.3,1.49-.4A7.7,7.7,0,0,0,47,25.33c.42-.35.77-.78,1.2-1.14.59-.48,1.3-.8,1.86-1.32.8-.75,1.57-1.55,2.33-2.35a52.19,52.19,0,0,0,4-5.46,9.3,9.3,0,0,0,2-3.78c.17-1.09-1.16-1.67-2-2a5.38,5.38,0,0,0-2.81-.39,17.75,17.75,0,0,0-3.76,1.55c-2.71,1.18-5.73,1.48-8.08,3.38-.86.68-.82,1.34-1.09,2.29A9,9,0,0,1,40,17.42a1.56,1.56,0,0,0-.22,1.52c.18.68.35,1.62,1.14,1.92a3,3,0,0,0,2.37-.34,4.84,4.84,0,0,1,1.08-.65c.25-.1.86-.38,1.11-.3.43.17.11.43-.07.67a3,3,0,0,0-.39.66,2.34,2.34,0,0,1-.26.68,7.3,7.3,0,0,1-3,1.52,6.85,6.85,0,0,1-2.39.65c-1.24,0-.73-.91-.92-1.8-.24-1.15-1.56-1.58-1.71-2.78a7.12,7.12,0,0,1,.71-3.56,9,9,0,0,1,.77-1.26A6,6,0,0,1,40,12.77c2.06-1.36,4.63-2,7-2.79s4.88-.93,7.19-1.75a30,30,0,0,1,4.86-1,3,3,0,0,1,3.43,1.69c.66,1.44,1.44,3,1,4.61a27.08,27.08,0,0,1-2.52,6.39A15.2,15.2,0,0,1,55.2,26a48.33,48.33,0,0,1-5.72,2.22A22.2,22.2,0,0,1,45,29.48c-2.39.36-4.59,1.78-6.94,2.37a92.76,92.76,0,0,1-9.78,1.9,11.51,11.51,0,0,1-3.51.11,5.76,5.76,0,0,1-1.6-.26L22,33.1c-1.28-.55-2.52-1.47-2.37-3s.66-2.94.94-4.37c.19-1,.21-1.9.44-2.85.17-.73.34-1.47.54-2.19a6,6,0,0,1,.75-1.78c.68-.95,1.2-2.07,1.93-3a7.67,7.67,0,0,0,.83-1.07,4.24,4.24,0,0,1,.63-1c.28-.31.47-.7.76-1a13.64,13.64,0,0,1,1.86-1.42,25.88,25.88,0,0,1,4.51-2.65c1.55-.68,3.17-1.13,4.76-1.66,1.43-.5,2.75-1.27,4.17-1.82a21.25,21.25,0,0,1,5-1.2A79.56,79.56,0,0,1,57,3.42c4.29,0,9.05-1.61,13.13.44a4.5,4.5,0,0,1,2.28,2.4,13.31,13.31,0,0,1,1,5.44A15.61,15.61,0,0,1,73.42,14.07Z"/></g><g class="cls-5"><path class="cls-4" d="M7,32.55c.29.79.69,1.48,1,2.29a6.56,6.56,0,0,0,.69,1.64c.32.52.51,1.11.82,1.65a8,8,0,0,1,.8,1.88c.13.49.15,1,.28,1.49s.34,1.26.52,1.88a4.47,4.47,0,0,0,.53,1.1,4.17,4.17,0,0,0,.86,1.2c1.16.82,2.82.47,4.16.33s2.45-.14,3.67-.31a10.47,10.47,0,0,1,1.94,0,12.64,12.64,0,0,1,1.83.2c.53.11,1,.12,1.57.21.76.12,1.51.32,2.28.38s1.72.19,2.57.21c1.23,0,2.47-.11,3.68,0a31.65,31.65,0,0,0,3.21.3,12,12,0,0,0,4.08-.89c2.16-.79,4.39-1.43,6.55-2.22a15.29,15.29,0,0,0,2.26-1.2c.66-.39,1.37-.64,2-1.07a11.86,11.86,0,0,1,3.92-1.55c1.37-.3,2.68-.79,4-1.11a27.15,27.15,0,0,1,2.68-.79c-.17.71-1.72,1-2.27,1.16-1.28.46-2.67.71-3.91,1.27a7.82,7.82,0,0,0-2,1.66,14.76,14.76,0,0,1-1.7,1.56,5.86,5.86,0,0,1-2.2.92c-1.74.35-3.44,1-5.18,1.35a25.07,25.07,0,0,0-5,1.52c-.45.2-1.74.72-1.8,1.36s.58.32.94.32a6.92,6.92,0,0,1,2.53.12,8.43,8.43,0,0,0,1.63.62,7.42,7.42,0,0,0,3.93-.4A30.46,30.46,0,0,1,53,48.29c1.21-.23,2.39-.58,3.6-.83a24.21,24.21,0,0,1,2.81-.34c1.36-.13,2.74-.28,4.1-.51a12.2,12.2,0,0,0,3.27-.78,13.37,13.37,0,0,0,2.52-1.23c.2-.15,1.3-1.1,1.56-.88.53.46-2.52,2.19-2.73,2.33A16.8,16.8,0,0,1,65,47.6a31.07,31.07,0,0,1-4.25,1.17c-1.64.41-3.28.75-4.92,1.17s-3.35.62-5,1.17a18.51,18.51,0,0,0-2.41.94c-.7.37-1.46.61-2.16,1a28.71,28.71,0,0,1-4.56,2.47,19.56,19.56,0,0,1-4.4,1,33.09,33.09,0,0,1-5.88-.32,50,50,0,0,0-6-.34c-1.85,0-3.7.42-5.55.51a8.42,8.42,0,0,1-3.47-.83,20.85,20.85,0,0,1-3.65-1.85,6.19,6.19,0,0,0-3.45-.94,3.92,3.92,0,0,0-.77.18,1.31,1.31,0,0,1-.83-.23,5.59,5.59,0,0,1-2.71-2.48,13.6,13.6,0,0,1-1-3.81A17.2,17.2,0,0,1,4,44.1c0-1-.18-2-.18-3a15.89,15.89,0,0,1,.32-4.82,15.58,15.58,0,0,1,2.32-4c.5-.69.92-1.44,1.43-2.11.19.36-.25,1.06-.34,1.43C7.44,32.1,7.23,33.09,7,32.55Z"/><path class="cls-4" d="M81.71,41.24c-.47.61-1.32,1.38-1.44,2.18s.73.66,1.3.57a15.46,15.46,0,0,0,3.63-.78c.68-.28,1.32-.67,2-1s1.17-.32,1.74-.56c1.34-.56,2.78-.86,4.11-1.47a11.83,11.83,0,0,0,3.13-2.3A8.15,8.15,0,0,0,97.91,36c.33-.6.72-1.18,1-1.81a10.1,10.1,0,0,0,.66-2.65,5.86,5.86,0,0,0,0-1.45c-.15-1.11-1.26-1.21-2.2-1.09a5.87,5.87,0,0,0-3,1.58A19.09,19.09,0,0,1,92,32.71c-1,.64-2,1.27-3,1.95a9.29,9.29,0,0,0-1.48,1.17c-.38.39-.74.8-1.15,1.15a10.4,10.4,0,0,1-1.34.94c-.38.23-.73.57-1.12.77a5.77,5.77,0,0,0-1.38,1,4.21,4.21,0,0,0-.75.88C81.4,41.13,81.46,41.87,81.71,41.24Z"/><path class="cls-4" d="M95.15,25.17A1.56,1.56,0,0,1,96.06,24c.36-.19.62-.24.86.16a2.71,2.71,0,0,1-.17,2.43c-.22.54-1.08,1.08-1.48.4-.27-.45-.26-1.81.38-2Z"/><path class="cls-4" d="M46,48c.3-.56.38-.62.89-.82A3.2,3.2,0,0,1,48,46.81c.46-.05,1-.3,1.44-.13.71.26.58.89.09,1.34a1.47,1.47,0,0,1-.72.43,5.5,5.5,0,0,1-1.15.17,2.91,2.91,0,0,1-1.79-.37A.27.27,0,0,1,46,48Z"/><path class="cls-4" d="M18.43,89.44a18.1,18.1,0,0,0,5.85,1,61.77,61.77,0,0,0,7.07-.21c1.56-.15,3.11-.11,4.66-.34.76-.1,1.48-.07,2.23-.11.43,0,.89-.27,1.31-.14,1.64.5-1.27,1.44-1.6,1.61a22.2,22.2,0,0,1-3.77,1.15c-.48.14-1,.28-1.45.45a12.68,12.68,0,0,1-1.34.5c-1.93.41-3.86.6-5.78,1a5.94,5.94,0,0,1-2.22.13,8.94,8.94,0,0,1-2.17-.95,16.31,16.31,0,0,1-2.46-1.35,7.57,7.57,0,0,1-1.13-.9,1.86,1.86,0,0,1-.31-.67c-.19-.49-.18-.7.24-1.06a1.24,1.24,0,0,1,1.17-.26S18.75,89.39,18.43,89.44Z"/><path class="cls-4" d="M68.32,108.78A9.94,9.94,0,0,0,65.57,110c-.37.26-.83.71-.28,1,.73.45,1.93.21,2.72.14,1.37-.12,2.73-.37,4.09-.55.92-.13,1.83-.22,2.75-.41a31.16,31.16,0,0,0,3.51-1,10.68,10.68,0,0,0,2.42-1.13,18.9,18.9,0,0,0,2.32-1.52c1-.79,2.18-1.41,2.55-2.67.3-1.05-2-.67-2.41-.62a24.91,24.91,0,0,0-5,1.27c-.7.24-1.44.43-2.11.72-.9.41-1.78.89-2.7,1.24-.44.17-.83.45-1.27.61s-.79.28-1.17.43-.87.38-1.31.52C68.7,108.43,67.7,108.7,68.32,108.78Z"/><path class="cls-4" d="M86.47,101.13a2.78,2.78,0,0,1,1-1.23,2.1,2.1,0,0,1,1.12-.73c.35,0,.89.35.75.76-.07.21-.34.43-.47.61a1.73,1.73,0,0,1-.63.6,2.27,2.27,0,0,1-1.62.1Z"/><path class="cls-4" d="M92.37,87.36a8.94,8.94,0,0,1-1.25.6c-.33.08-.67.12-1,.17-1,.16-2,.22-3.05.32-1.29.13-2.58.31-3.87.41a30.64,30.64,0,0,0-6.87,1.07A31.08,31.08,0,0,0,71,92.2a26.9,26.9,0,0,0-4.27,2.73,13.82,13.82,0,0,0-1.23,1.19,3.46,3.46,0,0,0-.7.91.88.88,0,0,0,.45,1.21,5.86,5.86,0,0,0,2.48.62c1.24.18,2.49.33,3.74.53a36,36,0,0,0,3.88.42,10,10,0,0,0,4-.45A18,18,0,0,0,82,98.18c.82-.47,1.64-.93,2.41-1.46A12.46,12.46,0,0,0,86,95.56c.21-.2.43-.38.65-.57s.6-.67,1-1a13,13,0,0,0,2.1-2.23c.48-.63,1.06-1.16,1.53-1.79A4,4,0,0,0,92,89,7.2,7.2,0,0,0,92.37,87.36Z"/><path class="cls-4" d="M95.1,85.5a3.39,3.39,0,0,1,.84-1c.28-.26.64-.72,1-.84a.52.52,0,0,1,.57.09.72.72,0,0,1,.17.58,1.62,1.62,0,0,1-.91,1c-.47.25-.75.12-1.25,0Z"/><path class="cls-4" d="M112.48,69.22a3.87,3.87,0,0,0-.68.66c-.31.44-.56.89-.9,1.31a10.34,10.34,0,0,0-1,1.42c-.35.63-.77,1.21-1.11,1.84-.72,1.37-1.29,2.81-1.94,4.22-.32.7-.6,1.42-.92,2.13a9.38,9.38,0,0,0-.77,2.35c-.09.59-.25,1.6.54,1.7,1,.14,2-.71,2.69-1.27a21.48,21.48,0,0,0,4.75-5.35c1.27-2,2.5-4.43,2.18-6.88a13.25,13.25,0,0,1,.08-3.33,32.32,32.32,0,0,0,.53-3.53,10,10,0,0,0,0-2.5c0-.23-.13-.57-.36-.7s-.37,0-.56.15a4.4,4.4,0,0,0-1.38,1.65c-.39.8-.41,1.68-.74,2.5a9.07,9.07,0,0,1-.32.87c-.12.22-.27.44-.39.67a5.79,5.79,0,0,0-.41,1.3c-.07.28-.11.53-.19.81s-.15.45-.19.66S111.44,70.29,112.48,69.22Z"/><path class="cls-4" d="M103.41,83.75c-.2.2-1.39,1.35-.93,1.64.13.08.48,0,.6-.06a2.45,2.45,0,0,0,.66-.46.81.81,0,0,0,.32-.79c0-.52-.33-.5-.76-.33Z"/><path class="cls-4" d="M106.25,86.49c.25-.34.32-.49.68-.63a4.6,4.6,0,0,1,.82-.37c.38-.06.56.08.59.47,0,.65-.75,1.49-1.11,2a9,9,0,0,1-1.52,1.63c-.82.64-1.41-.4-1.11-1.17a7.29,7.29,0,0,1,.55-1.43c.46-.65,1.14-.65,1.86-.78Z"/><path class="cls-4" d="M42.86,15.66a2.77,2.77,0,0,0-1.39,1.81c-.12.37-.26,1.16.05,1.49.53.55,2-.05,2.48-.26a24.68,24.68,0,0,1,3.09-1.2c2-.46,4.16-.64,5.86-1.86A10.71,10.71,0,0,0,55.41,13a4.05,4.05,0,0,0,1.05-1.95c.11-1.63-2.17-1.74-3.25-1.49a31.79,31.79,0,0,0-6.67,2.26,10.37,10.37,0,0,0-3.69,2.5,4.15,4.15,0,0,0-.54,1C42.22,15.63,42,16.37,42.86,15.66Z"/><path class="cls-4" d="M47.12,20.25c-.27-.61-.4-.65.05-1a7.32,7.32,0,0,1,1.22-.76A3.57,3.57,0,0,1,50,18.11c1.14.13.62,1.42.27,2a2.22,2.22,0,0,1-.76,1,1.31,1.31,0,0,1-1.22.22,2.78,2.78,0,0,1-.91-.58c-.2-.17-.65-.49-.6-.8l.14,0Z"/><path class="cls-4" d="M39.08,34.35c0-.54,0-.66.32-1a10.15,10.15,0,0,1,1.84-1.29,18.46,18.46,0,0,1,4.34-2,25.86,25.86,0,0,1,4.16-1c1.06-.16,2-.51,3.12-.66,1.63-.23,3.64-1,4.93.53,1.05,1.26-.89,2.91-1.8,3.6a7,7,0,0,1-2.63,1.16c-1.13.28-2.24.62-3.37.9a51,51,0,0,0-6.06,2.3,3.48,3.48,0,0,1-3.62-.33C39.62,36.11,38.48,34.92,39.08,34.35Z"/><path class="cls-4" d="M58.1,25c-.27.5-1,1.42-.07,1.74.49.17.85-.23,1.22-.51a4.08,4.08,0,0,0,1.16-1.07A.76.76,0,0,0,60,24c-1-.46-1.52.52-2.1,1.19Z"/><path class="cls-4" d="M74.17,15a4.11,4.11,0,0,0-1.31,3.38c.15,1.32,1,1.59,2.14,1.05A6.56,6.56,0,0,0,76,19a4.74,4.74,0,0,0,.72-1,3.54,3.54,0,0,0,.78-2.3,10,10,0,0,0-.12-2.51,2.33,2.33,0,0,0-.69-1.31c-.46-.3-.81.1-1.15.38a2.66,2.66,0,0,0-.82.78,9.53,9.53,0,0,0-.83,2.17Z"/><path class="cls-4" d="M55.64,43.21c0-.63,0-.67.48-1a10.93,10.93,0,0,1,1-.76,6.13,6.13,0,0,1,2.26-.69,3.19,3.19,0,0,1,1.81.29.89.89,0,0,1,.34,1c-.13.6-.72,1-1.15,1.32a5,5,0,0,1-1.6,1,4.23,4.23,0,0,1-2.06.08c-.41-.11-1.28-.28-1.27-.87Z"/><path class="cls-4" d="M63.68,37.47A4.22,4.22,0,0,1,65,36a3.8,3.8,0,0,1,1.28-.66.7.7,0,0,1,.56.55c0,.29-.25.67-.4.9A3.33,3.33,0,0,1,65,38a1.16,1.16,0,0,1-.82.09c-.29-.09-.41-.37-.66-.46Z"/><path class="cls-4" d="M31.71,13.2A5.75,5.75,0,0,0,30,16a.89.89,0,0,0,.24,1c.43.38,1,.18,1.47,0a18.12,18.12,0,0,0,3.95-2.12c1.11-.74,2.6-.94,3.46-2,.46-.57.95-1.22.5-2a2.55,2.55,0,0,0-2.06-.94,5.94,5.94,0,0,0-2.88.77A9.88,9.88,0,0,0,31.71,13.2Z"/><path class="cls-4" d="M27.12,9.76a11.74,11.74,0,0,0,4.24-1.45c.27-.16.55-.24.81-.39s.31-.32.5-.5c-.14-.63-1.84-.25-2.23-.09s-1.05.53-1.55.78a6.63,6.63,0,0,0-.79.43A5.9,5.9,0,0,0,27,10.09Z"/></g><g class="cls-6"><path class="cls-4" d="M75.32,44.3a15.49,15.49,0,0,1-1.38.76c-.78.32-1.49.77-2.26,1.1s-1.89.65-2.83,1a18.73,18.73,0,0,0-3.79,1.71,7.82,7.82,0,0,0-3,3.1,2.79,2.79,0,0,0-.06,2.5,2.7,2.7,0,0,0,1.11,1.11,3.51,3.51,0,0,0,2.37-.06,12.23,12.23,0,0,0,2.92-1c.49-.26,1-.56,1.45-.82S71,53.18,71.49,53s.85-.32,1.29-.46a5.09,5.09,0,0,0,1.47-.79,7.69,7.69,0,0,0,2.16-2.38,5.69,5.69,0,0,0,.79-3.8A1.36,1.36,0,0,0,75.32,44.3Z"/><path class="cls-4" d="M60.45,51.84c-.29-.4-.5-.36-1-.33a8.59,8.59,0,0,0-1.11.19c-1.82.38-3.67.58-5.48,1a12.82,12.82,0,0,0-2.88,1c-.91.49-1.85.93-2.75,1.47a21.33,21.33,0,0,1-6.61,2.7c-1.46.31-2.92.6-4.39.88-.89.16-1.78.3-2.66.48s-1.76.44-2.64.64a32.54,32.54,0,0,0-4.66,1.31A12,12,0,0,0,22,63.53a3.89,3.89,0,0,0-1.41,2.41,3.56,3.56,0,0,0,.61,1.8c1.21,2,3.54,3.19,5.56,4.22,2.8,1.42,6.14,1.61,9.2,2a38.38,38.38,0,0,0,12-.6q2.66-.54,5.33-1c2.14-.4,4.31-.69,6.45-1.13,1.76-.37,3.53-.79,5.26-1.29a22,22,0,0,0,2.79-1A21.41,21.41,0,0,0,70,67.6a16.35,16.35,0,0,0,1.81-1.16A8,8,0,0,0,73.11,65a21.28,21.28,0,0,0,1.54-2.59,20.43,20.43,0,0,1,1.1-1.79c.41-.56.89-1.09,1.33-1.63.94-1.12,2.08-2.09,3-3.25a4.92,4.92,0,0,0,1.08-2.39c0-.58,0-1.19-.56-1.45a3.54,3.54,0,0,0-1.88-.2,11,11,0,0,0-1.86.53A16.63,16.63,0,0,0,73.7,53.5c-2.5,1.34-5,3-7.76,3.6A5.76,5.76,0,0,1,62.5,57a11.89,11.89,0,0,1-2.37-1.24c-1-.7-.67-1.53-.25-2.49C60.07,52.87,60.59,52,60.45,51.84Z"/><path class="cls-4" d="M114.34,38.83a22.14,22.14,0,0,1-.25,3.05c-.06.45-.14.9-.21,1.35-.09.6-.38,1.14-.52,1.74a16.8,16.8,0,0,1-1.22,3c-.45,1-.75,2.08-1.19,3.1-1.26,2.88-2,5.93-3.23,8.82-.6,1.44-1.16,2.92-1.82,4.32s-1.32,2.47-2,3.72c-.23.46-.88,1.32-.39,1.81s1.11,0,1.51-.19c1.65-.88,2.35-3,3.36-4.43.52-.74,1.31-1.3,1.84-2a17.27,17.27,0,0,0,2-3.18c1-2.24,1.55-4.55,2.38-6.84a16.13,16.13,0,0,0,.79-5.69,8.08,8.08,0,0,0-.16-2.46A43.58,43.58,0,0,1,114.34,38.83Z"/><path class="cls-4" d="M111.28,41.68c-.7.66-2.11,2.31-1.44,3.4.37.6,1.45.34,1.83-.18a3,3,0,0,0,.26-1.69,2.62,2.62,0,0,0,0-1c-.1-.24-.36-.29-.42-.56Z"/><path class="cls-4" d="M97.94,73.37a23.6,23.6,0,0,0-2.56,1.75,15.15,15.15,0,0,1-2.46,1.37,25.57,25.57,0,0,1-6.83,2.13A63.83,63.83,0,0,0,77,80.53c-2.23.73-4.44,1.51-6.66,2.3S65.88,84.1,64,85.35c-.46.31-1.08.78-.91,1.4.26,1,2.29,1,3,1.06,2.17.09,4.37,0,6.55,0a29.68,29.68,0,0,1,3.13,0,20.33,20.33,0,0,0,3.9,0,22.54,22.54,0,0,0,4.92-.61c3-1,6-2.12,9-3.29,2.66-1,6.52-3.22,6.29-6.54A6.13,6.13,0,0,0,97.94,73.37Z"/><path class="cls-4" d="M102.31,76c-.44-.91-.56-1.14-.08-2a2.84,2.84,0,0,1,1.89-1.32c1.35,0,1.4,1.55,1.09,2.49s-.62,2.08-1.59,2.13a1,1,0,0,1-.86-.27c-.32-.23-.76-1-1.1-1.05Z"/><path class="cls-4" d="M7,78.62a4,4,0,0,0,.1,2.95,6.1,6.1,0,0,0,3.65,2.75,10.57,10.57,0,0,0,2.74.42c1,.05,2.06.21,3.1.23a35.64,35.64,0,0,1,4.61.36c.85.13,1.68.38,2.53.48a18.61,18.61,0,0,1,2,.32c1.38.32,2.75.33,4.15.53a16.12,16.12,0,0,0,4.44-.11c1.27-.19,2.62-.36,3.23-1.59.47-1,.12-1.49-.73-2.15a9.94,9.94,0,0,0-2.9-1.13c-1.35-.45-2.7-.86-4.09-1.2-1.94-.47-3.8-1.16-5.72-1.73C20.15,77.59,16.37,76,12.25,75.6A10.45,10.45,0,0,0,7,76.19a2.37,2.37,0,0,0-1.09,1.28C5.52,78.29,5.93,78.78,7,78.62Z"/><path class="cls-4" d="M6.79,71.4c.23.73.18.95.85,1.15A2.31,2.31,0,0,0,9,72.68c.56-.16,1.23-.58,1.31-1.17s-.5-1.14-1-1.43c-1.07-.58-1.94-.53-2.47.67Z"/><path class="cls-4" d="M52.91,23.09A2.14,2.14,0,0,1,53.15,22a11.15,11.15,0,0,1,.74-1.41c.22-.3.35-.64.55-.95s.56-.85.8-1.32a9.08,9.08,0,0,1,1.19-1.63,6,6,0,0,0,.77-1.1c.17-.33.43-.58.61-.9s.38-.87.59-1.28a13.11,13.11,0,0,1,.74-1.32,3.46,3.46,0,0,1,.66-.86,4.73,4.73,0,0,1,.66-.54c.52-.23.79-.05,1.06.44a5.51,5.51,0,0,1,.57,2.77,10.2,10.2,0,0,1-.55,2.9,10.7,10.7,0,0,1-.95,1.88,38.27,38.27,0,0,1-2.17,3.25,8.77,8.77,0,0,1-1.8,1.63,4.19,4.19,0,0,1-1.27.67,2.24,2.24,0,0,1-.91.21c-.25-.06-.52-.23-.77-.32C53,23.85,52.74,23.31,52.91,23.09Z"/><path class="cls-4" d="M50.51,24c-.38.19-.78.32-.94.74,0,.11-.12.35,0,.47.3.44,1.35-.15,1.58-.39s.5-.67.27-1a.58.58,0,0,0-.87-.06Z"/><path class="cls-4" d="M69.85,8.34a2.27,2.27,0,0,0-.68.46,2.18,2.18,0,0,0-.22.55,8.74,8.74,0,0,0-.5,2.15c-.08.72-.1,2,.74,2.29,1.64.57,4-.61,4.16-2.44a4.25,4.25,0,0,0-1.1-2.8,5.64,5.64,0,0,0-1-1.14,1.34,1.34,0,0,0-1-.28C69.67,7.25,69.23,7.81,69.85,8.34Z"/><path class="cls-4" d="M69.52,17.3c0-.35,0-.44.24-.68a1.9,1.9,0,0,1,.53-.4c.39-.12.64.17.66.53s0,.85-.23,1-1.26,0-1.2-.38Z"/><path class="cls-4" d="M81.44,9.87c-.17.68-.15,1.38-.28,2.08a25.09,25.09,0,0,0-.37,3.45c0,.6,0,1.19,0,1.79a13.49,13.49,0,0,0-.07,2.2,4.76,4.76,0,0,0,.83,2.7c.45.54,1.07.34,1.66.12a6.62,6.62,0,0,0,1.33-.84,7.1,7.1,0,0,0,.93-.73,9.78,9.78,0,0,0,3-4.3,8.08,8.08,0,0,0,.44-4A5.16,5.16,0,0,0,87.78,10a5.1,5.1,0,0,0-1.54-1.14,5.66,5.66,0,0,0-1.53-.4,5.21,5.21,0,0,0-1.31-.14,6.31,6.31,0,0,0-1.22.12C81.35,8.62,81.14,9.76,81.44,9.87Z"/><path class="cls-4" d="M82.75,24.08c.15-.48.49-1,1-.71a.84.84,0,0,1,.43,1.09.74.74,0,0,1-.85.37,1.27,1.27,0,0,1-.53-.42c-.2-.26,0-.47,0-.77Z"/><path class="cls-4" d="M84.28,35.77A5.42,5.42,0,0,0,83,36a.92.92,0,0,1-.16.27c-.09.11-.35.27-.31.43.55.24,1.33-.14,1.81-.4a3.22,3.22,0,0,0,.7-.45,3.44,3.44,0,0,0,.37-.4c.18-.32,0-.49-.32-.48s-1.12.25-1.15.65Z"/><path class="cls-4" d="M102.42,33.92a2.26,2.26,0,0,1-.24,1.07,2.54,2.54,0,0,0-.31,1.29c.15,1,1.58.82,2.3.73a3.87,3.87,0,0,0,2.31-.91,2.4,2.4,0,0,0,.84-1.56c.15-1.09.4-2.95-1.21-2.92a3.52,3.52,0,0,0-1.86.68,4.37,4.37,0,0,0-1,1C102.9,33.69,102.49,34.06,102.42,33.92Z"/><path class="cls-4" d="M91.06,93.37a6.21,6.21,0,0,1,2.61-3.7c.33-.2.61-.47,1-.26s.26.54.16.85A4.57,4.57,0,0,1,94,91.61a13,13,0,0,1-1,1.06,1.81,1.81,0,0,1-.77.49A3.64,3.64,0,0,0,91.06,93.37Z"/><path class="cls-4" d="M35.42,95.12c0-.59.37-.86.83-1.25a10.35,10.35,0,0,1,3.47-1.76,6.42,6.42,0,0,1,3.47-.26,2,2,0,0,1,1.33.89c.36.87-.59,2.17-1.29,2.65a11.51,11.51,0,0,1-3.16,1.1,7.29,7.29,0,0,1-2.9.25,4.07,4.07,0,0,1-1-.2,9.12,9.12,0,0,1-.93-.28c-.28-.14-.63-.37-.66-.7a1,1,0,0,1,.14-.55C34.85,94.73,35.21,94.69,35.42,95.12Z"/></g><g class="cls-7"><path class="cls-8" d="M100.84,30c-.36.24-1,.58-.92,1.11a5.52,5.52,0,0,0,.28.71,2.86,2.86,0,0,1,.13.66,1.87,1.87,0,0,0,.4,1c.16.18.34,0,.45-.17a1.27,1.27,0,0,0,.25-.6,4.81,4.81,0,0,1,.1-.85c0-.11.11-.2.14-.32a2.36,2.36,0,0,0,0-.46A1.18,1.18,0,0,0,100.84,30Z"/><path class="cls-8" d="M95.13,60.71c-.06,0-.14.06-.17.12l0,.12c0,.17.23.25.35.28a1.27,1.27,0,0,0,1-.11,1,1,0,0,0,.45-.64.9.9,0,0,0-.5-.8.88.88,0,0,0-.87-.09.55.55,0,0,0-.23.27,1.28,1.28,0,0,0,0,.27c0,.13-.12.22-.11.35A.42.42,0,0,0,95.13,60.71Z"/><path class="cls-8" d="M97.08,61.29a.21.21,0,0,1,.09-.18c.07,0,.13-.07.2,0a.26.26,0,0,1,.06.37.26.26,0,0,1-.25.07.2.2,0,0,1-.16-.22Z"/><path class="cls-8" d="M101.86,54a.52.52,0,0,0-.31.16.19.19,0,0,0-.08.18.91.91,0,0,0,.32.57.48.48,0,0,0,.4.08,1.52,1.52,0,0,0,.34-.22l.27-.22A.55.55,0,0,0,103,54a.57.57,0,0,0-.39-.42.78.78,0,0,0-.4,0C102.1,53.69,102,53.71,101.86,54Z"/><path class="cls-8" d="M101,54.66a.74.74,0,0,1,.25.17c0,.05,0,.09,0,.14s-.16,0-.22,0a.28.28,0,0,1-.17-.15s-.06-.15,0-.14Z"/><path class="cls-8" d="M90.34,58.6c-.1.11-.21.23-.14.4a.35.35,0,0,0,.4.15c.07,0,.16,0,.19-.11a2.13,2.13,0,0,0,.08-.27c.06-.2.29-.3.18-.54a.39.39,0,0,0-.28-.22c-.2,0-.35.18-.47.34Z"/><path class="cls-8" d="M61.49,79.15c.06-.13.13-.37.36-.45s.26,0,.42,0c.33.06.66.16.44.5a1.11,1.11,0,0,1-.61.35c-.2,0-.57,0-.55-.21Z"/><path class="cls-8" d="M81.79,8.55c-.07.31-.17.68.17.9a.81.81,0,0,0,.8-.16,2.09,2.09,0,0,0,.66-1.17c.06-.4-.42-.82-.79-.87-.74-.09-1.14,1.09-1.18,1.64Z"/><path class="cls-8" d="M80.15,75.35a1.66,1.66,0,0,0-.24,1.17c0,.25,0,.58.36.66C81,77.37,81.81,76,82,75.5a2.45,2.45,0,0,0,.24-1.16c0-.23-.19-.66-.45-.75a1.07,1.07,0,0,0-1,.35c-.57.57-.53,1.22-.84,1.84Z"/><path class="cls-8" d="M79.76,75.3a2.49,2.49,0,0,0-.58.15.81.81,0,0,0-.28.22c-.05.12,0,.23.13.3a.31.31,0,0,0,.27,0,.67.67,0,0,0,.2-.17,1.78,1.78,0,0,0,.23-.31.54.54,0,0,0,.09-.15c0-.08,0-.11,0-.17Z"/><path class="cls-8" d="M78.89,78.66l.26.07c0,.09,0,.18-.12.25a.63.63,0,0,1-.33,0c-.11,0-.18-.09-.16-.18s.15-.17.28-.2Z"/><path class="cls-8" d="M66.08,81.49c0,.09,0,.15.1.19a.53.53,0,0,0,.51-.11c.18-.17.35-.49.23-.66a.41.41,0,0,0-.51-.06,1.79,1.79,0,0,0-.25.22.5.5,0,0,0-.09.4Z"/><path class="cls-8" d="M52.6,59.65c-.09.09-.13.11-.15.23a.48.48,0,0,0,0,.37,1.37,1.37,0,0,0,.78.45.72.72,0,0,0,.62-.12.92.92,0,0,0,.4-.63.61.61,0,0,0-.26-.67,1.81,1.81,0,0,0-.7-.33.59.59,0,0,0-.55.17C52.62,59.25,52.42,59.47,52.6,59.65Z"/><path class="cls-8" d="M54.59,60.54c0-.07,0-.16.07-.18a.48.48,0,0,1,.36.14.43.43,0,0,1,.11.28A.31.31,0,0,1,55,61a.28.28,0,0,1-.29,0c-.06,0-.22-.12-.19-.22Z"/><path class="cls-8" d="M16.58,52.8a4.13,4.13,0,0,1-.79-2.68c0-.41,0-1.15.56-1.09.78.08,1.18,1.29,1.4,1.89a6.11,6.11,0,0,1,.52,2.79c-.15,1.33-1.9-1.32-2.08-1.56Z"/><path class="cls-8" d="M18.26,48.4a1.87,1.87,0,0,0,1,2.11c.29.09.41-.1.56-.38a1.08,1.08,0,0,0,.15-.9,3.5,3.5,0,0,0-.36-.58,1.4,1.4,0,0,1-.22-.32c-.06-.12,0-.22-.13-.33s-1.14-.48-1,.14Z"/><path class="cls-8" d="M26.78,103.16a2.45,2.45,0,0,1,.95-1.2,5.25,5.25,0,0,1,1.64-.73,2.81,2.81,0,0,1,1.65.13c.51.27,1,.68,1.45,1a7.49,7.49,0,0,1,1.27.83,3.57,3.57,0,0,1,.78,1.24,3.81,3.81,0,0,1,.16,2.49c-.27.65-.66.66-1.31.65A3.59,3.59,0,0,1,31,106.14a6.09,6.09,0,0,0-.87-1c-.41-.33-.85-.63-1.28-.93a12.37,12.37,0,0,1-1.24-.79C27.44,103.32,26.9,102.91,26.78,103.16Z"/><path class="cls-8" d="M42.52,61.86c-.06.33-.15.48.1.64a.47.47,0,0,0,.52,0c.18-.11.59-.5.54-.74-.11-.48-1.33-.5-1.27.09Z"/><path class="cls-8" d="M65.43,77.51c-.19-.91.74-2.23,1.78-3a8.15,8.15,0,0,1,5.43-1.07,3.23,3.23,0,0,1,2.84,1.93c.07.27,0,.56.09.82s.1.33-.2.5a9.42,9.42,0,0,1-2.8.83,16.67,16.67,0,0,1-2.86.31c-.81,0-1.59-.14-2.4-.17a5.51,5.51,0,0,1-1.16-.1C66,77.55,65.49,77.6,65.43,77.51Z"/><path class="cls-8" d="M73.12,71.91c.14.18.15.27.42.29a1.12,1.12,0,0,0,.62-.18c.22-.12.52-.43.42-.61s-1.52-.14-1.38.3Z"/><path class="cls-8" d="M93.86,54.35a1.86,1.86,0,0,1,.27-.7.54.54,0,0,1,.44-.08.88.88,0,0,1,.69.4,1.38,1.38,0,0,1,.3.44c.2,1-1.48.54-1.7-.06Z"/></g></g></g></g></svg>