<svg xmlns="http://www.w3.org/2000/svg" xmlns:xlink="http://www.w3.org/1999/xlink" viewBox="0 0 108.76 118.65"><defs><style>.cls-1{isolation:isolate;}.cls-2,.cls-3,.cls-4,.cls-5,.cls-6,.cls-7,.cls-8,.cls-9{fill-rule:evenodd;}.cls-2{fill:url(#Безымянный_градиент_273);}.cls-3{fill:#ff7c25;}.cls-4{fill:#a67c4c;opacity:0.5;mix-blend-mode:multiply;}.cls-5{fill:#e05f25;}.cls-6{fill:url(#Безымянный_градиент_274);}.cls-7{fill:url(#Безымянный_градиент_273-2);}.cls-8{fill:url(#Безымянный_градиент_273-3);}.cls-9{fill:url(#Безымянный_градиент_273-4);}</style><linearGradient id="Безымянный_градиент_273" x1="46.04" y1="96.99" x2="46.04" y2="28.94" gradientUnits="userSpaceOnUse"><stop offset="0" stop-color="#a43440"/><stop offset="1" stop-color="#c75225"/></linearGradient><linearGradient id="Безымянный_градиент_274" x1="5.78" y1="46.42" x2="48.47" y2="46.42" gradientUnits="userSpaceOnUse"><stop offset="0" stop-color="#c75225"/><stop offset="1" stop-color="#a43440"/></linearGradient><linearGradient id="Безымянный_градиент_273-2" x1="16.48" y1="21.36" x2="16.48" y2="0" xlink:href="#Безымянный_градиент_273"/><linearGradient id="Безымянный_градиент_273-3" x1="100.61" y1="118.65" x2="100.61" y2="104.12" xlink:href="#Безымянный_градиент_273"/><linearGradient id="Безымянный_градиент_273-4" x1="84.55" y1="28.94" x2="84.55" y2="15.48" xlink:href="#Безымянный_градиент_273"/></defs><title>p8</title><g class="cls-1"><g id="Слой_2" data-name="Слой 2"><g id="space_background" data-name="space background"><polygon class="cls-2" points="9.1 63.21 0 48.73 16.67 28.94 45.09 29.17 56.08 56.38 59.49 56.38 65.94 46.69 80.72 46.08 92.08 68.32 62.53 96.29 28.8 96.99 4.93 75.68 9.1 63.21"/><polygon class="cls-3" points="0 48.73 16.48 65.09 30.32 63.48 45.09 29.17 16.67 28.94 0 48.73"/><polygon class="cls-3" points="65.94 46.69 49.39 73.69 54.19 75.68 77.68 67.36 80.72 46.08 65.94 46.69"/><polygon class="cls-3" points="42.06 85.19 50.91 79.19 57.85 77.55 57.85 83.7 43.96 89.17 42.06 85.19"/><polygon class="cls-3" points="4.93 75.68 24.5 80.34 35.87 75.68 9.1 63.21 4.93 75.68"/><polygon class="cls-3" points="35.87 68.32 38.27 58.08 40.42 60.54 41.05 66.3 35.87 68.32"/><polygon class="cls-3" points="23.75 82.91 25.01 81.58 32.34 81.58 31.33 84.1 20.4 85.19 23.75 82.91"/><polygon class="cls-4" points="16.48 65.09 17.19 66.98 35.87 75.68 24.5 80.34 25.01 81.58 32.34 81.58 31.33 84.1 37.14 95.29 34.1 85.82 37.14 80.19 47.38 81.58 50.91 79.19 57.85 77.55 57.85 83.7 62.81 95.29 92.75 68.32 75.03 82.91 59.97 74.26 54.19 75.68 49.39 73.69 59.49 56.38 56.08 56.38 45.09 29.17 42.06 41.67 46.04 49.53 37.52 57.11 38.27 58.08 40.42 60.54 41.05 66.3 35.87 68.32 36.63 65.09 30.32 63.48 16.48 65.09"/><polygon class="cls-4" points="77.68 67.36 87.16 68.97 86.23 73.69 92.75 68.32 80.72 46.08 77.68 67.36"/><polygon class="cls-3" points="42.06 41.67 33.73 60.88 46.04 49.53 42.06 41.67"/><polygon class="cls-4" points="56.08 56.38 51.16 68.32 41.05 66.3 40.42 60.54 48.25 63.21 46.04 49.53 42.06 41.67 45.09 29.17 56.08 56.38"/><polygon class="cls-5" points="74.39 68.53 78.2 63.76 79.66 67.7 74.39 68.53"/><polygon class="cls-5" points="25.4 64.05 32.34 58.78 32.56 64.05 25.4 64.05"/><polygon class="cls-5" points="21.94 79.73 28.19 78.83 25.01 81.58 21.94 79.73"/><polygon class="cls-5" points="66.69 71.26 68.84 68.53 71.94 69.4 66.69 71.26"/><polygon class="cls-6" points="6.92 59.75 5.78 54.47 28.19 36.71 43.41 33.09 48.47 37.52 43.07 33.52 33.73 36.71 16.48 46.6 6.13 54.59 6.92 59.75"/><polygon class="cls-3" points="21.79 42.67 28.09 37.22 28.97 36.74 33.09 36.06 33.54 36.34 28.3 39.36 21.79 42.67"/><polygon class="cls-5" points="3.25 51.95 10.21 50.96 5.78 54.47 6.34 57.08 3.25 51.95"/><polygon class="cls-7" points="6.4 8.43 10.66 1.99 22.07 0 26.57 18.08 22.07 21.36 6.4 8.43"/><polygon class="cls-8" points="92.46 112.83 95.68 105.39 101.94 104.12 108.76 112.83 100.61 118.65 92.46 112.83"/><polygon class="cls-9" points="79.66 28.94 80.72 18.11 86.78 15.48 89.43 20.18 84.55 28.94 79.66 28.94"/><polygon class="cls-3" points="6.4 8.43 15.74 10.68 19.92 6.93 22.07 0 10.66 1.1 6.4 8.43"/><polygon class="cls-3" points="92.46 112.83 98.72 115.41 104.65 110.2 101.94 104.12 95.68 105.39 92.46 112.83"/><polygon class="cls-3" points="86.78 15.48 87.73 20.73 83.37 27.27 79.66 28.94 80.72 18.11 86.78 15.48"/><polygon class="cls-4" points="104.65 110.2 108.76 112.83 101.94 104.12 104.65 110.2"/><polygon class="cls-4" points="87.73 20.73 83.37 27.27 84.55 28.94 89.43 20.18 87.73 20.73"/><polygon class="cls-4" points="15.74 10.68 22.07 21.36 6.4 8.43 15.74 10.68"/></g></g></g></svg>