<svg xmlns="http://www.w3.org/2000/svg" xmlns:xlink="http://www.w3.org/1999/xlink" viewBox="0 0 107.57 240.38"><defs><style>.cls-1{isolation:isolate;}.cls-10,.cls-11,.cls-12,.cls-13,.cls-14,.cls-15,.cls-16,.cls-18,.cls-2,.cls-20,.cls-22,.cls-23,.cls-25,.cls-26,.cls-27,.cls-28,.cls-29,.cls-3,.cls-30,.cls-31,.cls-32,.cls-33,.cls-34,.cls-36,.cls-37,.cls-38,.cls-39,.cls-4,.cls-40,.cls-42,.cls-43,.cls-44,.cls-5,.cls-6,.cls-8,.cls-9{fill-rule:evenodd;}.cls-2{fill:url(#Безымянный_градиент_269);}.cls-3{fill:url(#Безымянный_градиент_269-2);}.cls-4{fill:url(#Безымянный_градиент_229);}.cls-16,.cls-24,.cls-5{fill:#31165f;}.cls-6{fill:url(#Безымянный_градиент_187);}.cls-7,.cls-8{fill:#53345f;}.cls-9{fill:url(#Безымянный_градиент_136);}.cls-10,.cls-11,.cls-16,.cls-18,.cls-38{opacity:0.5;}.cls-10,.cls-11,.cls-18{mix-blend-mode:multiply;}.cls-10{fill:url(#Безымянный_градиент_183);}.cls-11{fill:url(#Безымянный_градиент_183-2);}.cls-12{fill:url(#Безымянный_градиент_176);}.cls-13{fill:#a6345f;}.cls-14{fill:url(#Безымянный_градиент_129);}.cls-15{fill:url(#Безымянный_градиент_176-2);}.cls-17,.cls-35,.cls-38,.cls-39,.cls-40{fill:#fff;}.cls-18{fill:url(#Безымянный_градиент_183-3);}.cls-19{fill:url(#Безымянный_градиент_220);}.cls-20{fill:url(#Безымянный_градиент_199);}.cls-21{fill:url(#Безымянный_градиент_220-2);}.cls-22{fill:url(#Безымянный_градиент_199-2);}.cls-23{fill:url(#Безымянный_градиент_259);}.cls-25{fill:url(#Безымянный_градиент_259-2);}.cls-26{fill:url(#Безымянный_градиент_259-3);}.cls-27{fill:url(#Безымянный_градиент_259-4);}.cls-28{fill:url(#Безымянный_градиент_259-5);}.cls-29{fill:url(#Безымянный_градиент_259-6);}.cls-30{fill:url(#Безымянный_градиент_259-7);}.cls-31{fill:url(#Безымянный_градиент_259-8);}.cls-32{fill:#6f2561;}.cls-33{fill:url(#Безымянный_градиент_246);}.cls-34{fill:#ff4c61;}.cls-35,.cls-38,.cls-39,.cls-41{mix-blend-mode:soft-light;}.cls-36{fill:url(#Безымянный_градиент_136-2);}.cls-37{fill:url(#Безымянный_градиент_136-3);}.cls-41{opacity:0.36;}.cls-42{fill:url(#Безымянный_градиент_220-3);}.cls-43{fill:url(#Безымянный_градиент_220-4);}.cls-44{fill:url(#Безымянный_градиент_220-5);}.cls-45,.cls-46,.cls-47,.cls-48,.cls-49{mix-blend-mode:screen;}.cls-45{fill:url(#Безымянный_градиент_217);}.cls-46{fill:url(#Безымянный_градиент_266);}.cls-47{fill:url(#Безымянный_градиент_266-2);}.cls-48{fill:url(#Безымянный_градиент_266-3);}.cls-49{fill:url(#Безымянный_градиент_217-2);}</style><linearGradient id="Безымянный_градиент_269" x1="94.51" y1="240.38" x2="94.51" y2="178.08" gradientUnits="userSpaceOnUse"><stop offset="0" stop-color="#a43440"/><stop offset="1" stop-color="#c73634"/></linearGradient><linearGradient id="Безымянный_градиент_269-2" x1="10.01" y1="240.38" x2="10.01" y2="178.08" xlink:href="#Безымянный_градиент_269"/><radialGradient id="Безымянный_градиент_229" cx="36.38" cy="-4592.41" r="55.68" gradientTransform="translate(17.89 10600.61) scale(1.25 2.29)" gradientUnits="userSpaceOnUse"><stop offset="0" stop-color="#f4bab3"/><stop offset="0.77" stop-color="#8d6fc7"/><stop offset="0.96" stop-color="#b695e5"/></radialGradient><radialGradient id="Безымянный_градиент_187" cx="52.47" cy="846.83" r="18.78" gradientTransform="translate(0 -758.07) scale(1 0.91)" gradientUnits="userSpaceOnUse"><stop offset="0.02" stop-color="#ab5e75"/><stop offset="0.25" stop-color="#9f577b"/><stop offset="0.67" stop-color="#7f458c"/><stop offset="0.99" stop-color="#61349c"/></radialGradient><linearGradient id="Безымянный_градиент_136" x1="51.96" y1="10.96" x2="51.96" y2="3.18" gradientUnits="userSpaceOnUse"><stop offset="0" stop-color="#ffff18"/><stop offset="1" stop-color="#ff7400"/></linearGradient><radialGradient id="Безымянный_градиент_183" cx="51.91" cy="-3658.19" r="33.18" gradientTransform="translate(0 6903.81) scale(1 1.84)" gradientUnits="userSpaceOnUse"><stop offset="0.02" stop-color="#8881bc"/><stop offset="0.29" stop-color="#8375b7"/><stop offset="0.77" stop-color="#7555aa"/><stop offset="0.99" stop-color="#6d43a3"/></radialGradient><radialGradient id="Безымянный_градиент_183-2" cx="52.07" cy="79.8" r="35.28" gradientTransform="matrix(1, 0, 0, 1, 0, 0)" xlink:href="#Безымянный_градиент_183"/><radialGradient id="Безымянный_градиент_176" cx="40.22" cy="-3727.62" r="39.98" gradientTransform="translate(7.11 6903.81) scale(1.1 1.84)" gradientUnits="userSpaceOnUse"><stop offset="0.02" stop-color="#725eb0"/><stop offset="0.38" stop-color="#6d52aa"/><stop offset="0.99" stop-color="#61349c"/></radialGradient><linearGradient id="Безымянный_градиент_129" x1="52.36" y1="101.75" x2="52.36" y2="47.33" gradientUnits="userSpaceOnUse"><stop offset="0" stop-color="#ffff29"/><stop offset="1" stop-color="#ff7e59"/></linearGradient><radialGradient id="Безымянный_градиент_176-2" cx="52.49" cy="-3630.4" r="13.04" gradientTransform="translate(0 6903.81) scale(1 1.84)" xlink:href="#Безымянный_градиент_176"/><radialGradient id="Безымянный_градиент_183-3" cx="52.37" cy="34.05" r="24.02" gradientTransform="matrix(1, 0, 0, 1, 0, 0)" xlink:href="#Безымянный_градиент_183"/><linearGradient id="Безымянный_градиент_220" x1="50.53" y1="149.77" x2="50.53" y2="146.49" gradientUnits="userSpaceOnUse"><stop offset="0" stop-color="#8dc7ff"/><stop offset="0.32" stop-color="#5c4d86"/></linearGradient><radialGradient id="Безымянный_градиент_199" cx="50.77" cy="147.49" r="1.29" gradientUnits="userSpaceOnUse"><stop offset="0.02" stop-color="#8881bc"/><stop offset="0.29" stop-color="#8375b7"/><stop offset="0.77" stop-color="#7555aa"/><stop offset="1" stop-color="#6d43a3"/></radialGradient><linearGradient id="Безымянный_градиент_220-2" x1="50.53" y1="141.67" x2="50.53" y2="138.39" xlink:href="#Безымянный_градиент_220"/><radialGradient id="Безымянный_градиент_199-2" cx="50.77" cy="139.39" r="1.29" xlink:href="#Безымянный_градиент_199"/><radialGradient id="Безымянный_градиент_259" cx="23.73" cy="84.17" r="1.29" gradientUnits="userSpaceOnUse"><stop offset="0" stop-color="#f4bab3"/><stop offset="1" stop-color="#8d6fc7"/></radialGradient><radialGradient id="Безымянный_градиент_259-2" cx="26.61" cy="60.93" r="1.29" xlink:href="#Безымянный_градиент_259"/><radialGradient id="Безымянный_градиент_259-3" cx="39.1" cy="102.53" r="1.29" xlink:href="#Безымянный_градиент_259"/><radialGradient id="Безымянный_градиент_259-4" cx="64.53" cy="104.5" r="1.29" xlink:href="#Безымянный_градиент_259"/><radialGradient id="Безымянный_градиент_259-5" cx="81.75" cy="89.18" r="1.29" xlink:href="#Безымянный_градиент_259"/><radialGradient id="Безымянный_градиент_259-6" cx="79.11" cy="60.08" r="1.29" xlink:href="#Безымянный_градиент_259"/><radialGradient id="Безымянный_градиент_259-7" cx="66.17" cy="45.07" r="1.29" xlink:href="#Безымянный_градиент_259"/><radialGradient id="Безымянный_градиент_259-8" cx="44.38" cy="42.72" r="1.29" xlink:href="#Безымянный_градиент_259"/><linearGradient id="Безымянный_градиент_246" x1="64.53" y1="240.38" x2="64.53" y2="171.15" gradientUnits="userSpaceOnUse"><stop offset="0" stop-color="#a43411"/><stop offset="1" stop-color="#c73634"/></linearGradient><linearGradient id="Безымянный_градиент_136-2" x1="97.04" y1="69.69" x2="101.15" y2="69.69" xlink:href="#Безымянный_градиент_136"/><linearGradient id="Безымянный_градиент_136-3" x1="4.22" y1="68.57" x2="8.07" y2="68.57" xlink:href="#Безымянный_градиент_136"/><linearGradient id="Безымянный_градиент_220-3" x1="24.87" y1="172.85" x2="24.87" y2="169.06" xlink:href="#Безымянный_градиент_220"/><linearGradient id="Безымянный_градиент_220-4" x1="79.53" y1="168.91" x2="79.53" y2="165.11" xlink:href="#Безымянный_градиент_220"/><linearGradient id="Безымянный_градиент_220-5" x1="53.52" y1="168.61" x2="53.52" y2="164.81" xlink:href="#Безымянный_градиент_220"/><radialGradient id="Безымянный_градиент_217" cx="95.84" cy="-179.67" r="7.5" gradientTransform="translate(-56.21 445.16) rotate(-6.46) scale(1.47)" gradientUnits="userSpaceOnUse"><stop offset="0" stop-color="#003cee"/><stop offset="0.06" stop-color="#0036d6"/><stop offset="0.2" stop-color="#00289e"/><stop offset="0.34" stop-color="#001c6d"/><stop offset="0.48" stop-color="#001246"/><stop offset="0.62" stop-color="#000a27"/><stop offset="0.75" stop-color="#000412"/><stop offset="0.88" stop-color="#000104"/><stop offset="1"/></radialGradient><radialGradient id="Безымянный_градиент_266" cx="148.24" cy="-230.92" r="5.99" gradientTransform="translate(18.16 464.06) rotate(-21.18) scale(1.47)" gradientUnits="userSpaceOnUse"><stop offset="0" stop-color="#ff9a00"/><stop offset="0.09" stop-color="#d68100"/><stop offset="0.23" stop-color="#9e5f00"/><stop offset="0.36" stop-color="#6e4200"/><stop offset="0.5" stop-color="#462a00"/><stop offset="0.63" stop-color="#271800"/><stop offset="0.76" stop-color="#120b00"/><stop offset="0.89" stop-color="#040300"/><stop offset="1"/></radialGradient><radialGradient id="Безымянный_градиент_266-2" cx="133.11" cy="-280.36" r="5.99" xlink:href="#Безымянный_градиент_266"/><radialGradient id="Безымянный_градиент_266-3" cx="89.69" cy="-254.09" r="3.1" xlink:href="#Безымянный_градиент_266"/><radialGradient id="Безымянный_градиент_217-2" cx="111.31" cy="-173.46" r="2.89" gradientTransform="translate(18.16 464.06) rotate(-21.18) scale(1.47)" xlink:href="#Безымянный_градиент_217"/></defs><title>p9</title><g class="cls-1"><g id="Слой_2" data-name="Слой 2"><g id="space_background" data-name="space background"><path class="cls-2" d="M88.6,181l15.81-2.92S107,207.51,88,240.38h-1.5l1.2-44.06-3.16-.12Z"/><path class="cls-3" d="M16.36,181.08l-16.25-3s-2.53,29.43,16.45,62.3h1.5l-1.2-44.06L20,196.2Z"/><path class="cls-4" d="M52.41,10.07c-20.48,0-52.55,49.38-50,95.31s23.72,113.4,23.72,113.4l26.24.26,26.23-.26s21.13-67.47,23.73-113.4S72.75,10.07,52.41,10.07Z"/><path class="cls-5" d="M26.17,218.78s29.87-2.65,52.47,0C78.64,218.78,49.34,221.68,26.17,218.78Z"/><path class="cls-6" d="M24.9,30.86s29-9.19,56.61,2.4c0,0-14.24-23-29.1-23.19C39,10,24.9,30.86,24.9,30.86Z"/><path class="cls-7" d="M81.42,33.49C55.75,22.41,25.27,31,25,31.1l-.14-.48c.3-.08,31-8.74,56.78,2.41Z"/><path class="cls-8" d="M45.52,11.7l15.34.77S53.08,6.92,45.52,11.7Z"/><path class="cls-9" d="M47.65,11a32.32,32.32,0,0,1,8.63-.22S54.59,3.44,52,3.19,47.65,11,47.65,11Z"/><path class="cls-10" d="M14,174.19s44.26-14.52,77.76-4.32c-4.36,19.19-13.16,48.91-13.16,48.91s-20-2.81-52.47,0C26.17,218.78,18,196.63,14,174.19Z"/><path class="cls-11" d="M50.7,43.27C32.22,44.71,19.06,66.75,18.21,86s16.72,31,35.45,30.43S87.91,103,85.77,81.94C83.83,62.91,71.21,41.68,50.7,43.27Z"/><path class="cls-5" d="M50.7,40.22C32.22,41.66,19.06,63.69,18.21,82.91s16.72,31,35.45,30.43S87.91,99.92,85.77,78.88C83.83,59.85,71.21,38.62,50.7,40.22Z"/><path class="cls-12" d="M50.7,38.08c-18.48,1.44-31.64,23.48-32.49,42.7s16.72,31,35.45,30.43S87.91,97.79,85.77,76.74C83.83,57.72,71.21,36.49,50.7,38.08Z"/><path class="cls-13" d="M51.92,44.91c-16.56,1-24.86,18.32-25.52,33.33S39.53,102.41,54.25,102s26.91-10.47,25.23-26.9C78,60.24,69.22,43.85,51.92,44.91Z"/><path class="cls-14" d="M69.75,96.61h0l0,0a27.28,27.28,0,0,1-15.54,5.1c-14,.39-28.41-9.22-27.78-23.5a39.35,39.35,0,0,1,3.29-14.15C33.58,55.29,41,48.28,52,47.4,68.2,46.1,76.74,62,78.19,76.13,79.12,85.21,75.6,92.24,69.75,96.61Z"/><rect class="cls-7" x="53.27" y="113.34" width="0.5" height="53.37"/><path class="cls-7" d="M14.11,174.43,14,174c50.66-14.68,77.66-4.41,77.93-4.31l-.19.47C91.45,170,64.59,159.81,14.11,174.43Z"/><path class="cls-7" d="M10.15,156.62l-.27-.42c.15-.1,15.82-10.28,43.63-11.78l0,.5C25.87,146.41,10.3,156.52,10.15,156.62Z"/><polygon class="cls-5" points="59.63 205.11 58.89 182.08 65.19 180.48 64.57 205.11 59.63 205.11"/><path class="cls-15" d="M30.51,219.25A281.34,281.34,0,0,1,75.63,219l-1.35,10.33-42.51-1.14Z"/><path class="cls-16" d="M31.15,223.79a39.4,39.4,0,0,1,17.93-4c10.23.22,25.51,7.14,25.51,7.14l1-7.93s-24.34-2.37-45.12.21Z"/><path class="cls-17" d="M62.12,53.71a38.66,38.66,0,0,1,7.35,10.23L73,61.88S70.29,55.3,65.19,53Z"/><polygon class="cls-17" points="31.55 82.9 34.49 88.08 31.55 89.82 29.44 85.49 31.55 82.9"/><path class="cls-18" d="M19,40.19s29-15,66.81-.06l-4.26-6.87S59.69,23,24.9,30.86Z"/><circle class="cls-19" cx="50.53" cy="148.13" r="1.64"/><path class="cls-20" d="M51.83,148.13a1.3,1.3,0,1,1-1.3-1.29A1.3,1.3,0,0,1,51.83,148.13Z"/><circle class="cls-21" cx="50.53" cy="140.03" r="1.64"/><path class="cls-22" d="M51.83,140a1.3,1.3,0,1,1-1.3-1.3A1.3,1.3,0,0,1,51.83,140Z"/><path class="cls-5" d="M25.14,84.81a1.65,1.65,0,1,1-1.64-1.64A1.65,1.65,0,0,1,25.14,84.81Z"/><path class="cls-23" d="M24.79,84.81a1.3,1.3,0,1,1-1.29-1.29A1.3,1.3,0,0,1,24.79,84.81Z"/><circle class="cls-24" cx="26.38" cy="61.57" r="1.64"/><path class="cls-25" d="M27.67,61.57a1.3,1.3,0,1,1-1.29-1.29A1.29,1.29,0,0,1,27.67,61.57Z"/><path class="cls-5" d="M40.51,103.17a1.65,1.65,0,1,1-1.64-1.64A1.65,1.65,0,0,1,40.51,103.17Z"/><path class="cls-26" d="M40.16,103.17a1.3,1.3,0,1,1-1.29-1.3A1.29,1.29,0,0,1,40.16,103.17Z"/><path class="cls-5" d="M65.94,105.14a1.65,1.65,0,1,1-1.64-1.64A1.65,1.65,0,0,1,65.94,105.14Z"/><path class="cls-27" d="M65.59,105.14a1.3,1.3,0,1,1-1.29-1.29A1.3,1.3,0,0,1,65.59,105.14Z"/><path class="cls-5" d="M83.16,89.82a1.65,1.65,0,1,1-1.65-1.64A1.65,1.65,0,0,1,83.16,89.82Z"/><path class="cls-28" d="M82.81,89.82a1.3,1.3,0,1,1-1.3-1.3A1.3,1.3,0,0,1,82.81,89.82Z"/><path class="cls-5" d="M80.52,60.72a1.64,1.64,0,1,1-1.64-1.64A1.64,1.64,0,0,1,80.52,60.72Z"/><path class="cls-29" d="M80.17,60.72a1.29,1.29,0,1,1-1.29-1.3A1.29,1.29,0,0,1,80.17,60.72Z"/><circle class="cls-24" cx="65.94" cy="45.71" r="1.64"/><path class="cls-30" d="M67.23,45.71a1.29,1.29,0,1,1-1.29-1.29A1.3,1.3,0,0,1,67.23,45.71Z"/><circle class="cls-24" cx="44.15" cy="43.36" r="1.64"/><path class="cls-31" d="M45.44,43.36a1.29,1.29,0,1,1-1.29-1.29A1.29,1.29,0,0,1,45.44,43.36Z"/><polygon class="cls-32" points="18.06 240.38 19.27 240.38 18.06 196.27 16.86 196.32 18.06 240.38"/><polygon class="cls-32" points="87.66 196.32 86.46 196.27 85.65 240.38 86.46 240.38 87.66 196.32"/><polygon class="cls-33" points="63.87 171.15 68.19 171.15 63.87 240.38 60.86 240.38 63.87 171.15"/><polygon class="cls-34" points="63.87 171.15 60.86 186.47 60.86 240.38 63.87 171.15"/><polygon class="cls-16" points="68.06 173.28 78.64 218.78 68.19 218.21 68.06 229.2 64.57 229.2 68.06 173.28"/><path class="cls-17" d="M15.67,53.41s-.43-4.76,2.59-7.7l2.46.12a80.71,80.71,0,0,1-3.83,7.58Z"/><polygon class="cls-35" points="91.8 158.19 96.32 137.6 97.59 137.6 93.29 158.19 91.8 158.19"/><path class="cls-36" d="M97,66.06s7.64-1.59,2.07,7.38Z"/><path class="cls-37" d="M8.07,65S1,67.13,6,72.11Z"/><path class="cls-38" d="M33.58,218S13.86,157,6.14,111.51l-1.92.95s9.27,69.85,23,106.23Z"/><polygon class="cls-39" points="97.02 132.92 99.29 120.23 100.49 120.23 98.22 132.92 97.02 132.92"/><path class="cls-39" d="M17.45,153.53s13.07-5.84,25.53-7C43,146.49,30.57,149.26,17.45,153.53Z"/><path class="cls-39" d="M54.13,118.32l.31,46.78S55.26,148.13,54.13,118.32Z"/><path class="cls-39" d="M23.5,172.25s31.14-9.15,61-3.28C84.5,169,62.36,163.54,23.5,172.25Z"/><path class="cls-40" d="M30.45,49.41s4.25,1.71,6.73-6.22A37.77,37.77,0,0,0,30.45,49.41Z"/><path class="cls-39" d="M57.38,110.94s10.19-.54,22.25-11.59C79.63,99.35,72.4,109.43,57.38,110.94Z"/><path class="cls-39" d="M53.52,102s8.9,4.78,15-4C68.51,98,63.78,102.25,53.52,102Z"/><g class="cls-41"><path class="cls-40" d="M51.79,122c-.53.36-1.54.86-1.37,1.67.08.37.3.69.41,1.05a4.16,4.16,0,0,1,.2,1,3,3,0,0,0,.6,1.49c.25.26.5,0,.67-.26a1.83,1.83,0,0,0,.38-.88,6,6,0,0,1,.15-1.27c0-.16.16-.3.2-.47a3.29,3.29,0,0,0,0-.7A1.76,1.76,0,0,0,51.79,122Z"/><path class="cls-40" d="M49.64,128.74a.53.53,0,0,1,.12-.55c.79,0,1.07,1.58.33,1.88s-1-.82-.7-1.33Z"/><path class="cls-40" d="M35.12,138.72c.41-.2.75-.48,1.21-.37a1.8,1.8,0,0,1,1,.61,3.33,3.33,0,0,1,.59,1.28,1.16,1.16,0,0,1,.11.68,3.16,3.16,0,0,1-2.14,1.85,6.71,6.71,0,0,1-1.45.37c-.35,0-.7.08-1,.14a2,2,0,0,1-.86.09,2.23,2.23,0,0,1-.67-.38,2.06,2.06,0,0,1-.88-1.74c0-1.21,1.49-2.17,2.47-2.66C34.22,138.18,35.5,137.68,35.12,138.72Z"/><path class="cls-40" d="M38.91,137.07c-.12.35-.22.45.06.64a.79.79,0,0,0,.7.06c.42-.14.95-.78.64-1.21-.16-.22-.54-.61-.8-.64a1.25,1.25,0,0,0-1.11,1.15Z"/><path class="cls-40" d="M54.7,148.88a1.49,1.49,0,0,0-.07.55c0,.47,0,.94,0,1.41,0,.89-.13,1.77-.13,2.66a11.15,11.15,0,0,0,.2,1.91c0,.32.12.67.19,1,.08,0,.09-.19.12-.26.11-.25.18-.52.31-.75.29-.53.58-1.08.82-1.63a1.73,1.73,0,0,1,.14-.31,3.18,3.18,0,0,1,.3-.33,2.53,2.53,0,0,0,.43-.65,4.29,4.29,0,0,0,.21-1.82c0-.2-.07-.39-.07-.6s0-.42,0-.64a3.61,3.61,0,0,0-.53-1.3c-.27-.47-.58-1.29-1.18-1.42-.3-.07-.41.26-.45.5s-.06.61-.1.91S54.66,149,54.7,148.88Z"/><path class="cls-40" d="M55.33,144.72c.13-.23.31-.64.65-.57s.34.55.3.81c-.09.61-.88,0-.83-.43Z"/><path class="cls-40" d="M61.33,148.57a1.1,1.1,0,0,0-.16.72.68.68,0,0,0,.73.55c.56,0,.94-.13,1.06-.7a1.48,1.48,0,0,0-.43-1.14.71.71,0,0,0-.46-.19c-.35,0-.51.24-.68.51Z"/><path class="cls-40" d="M74,166.19a12.18,12.18,0,0,1,2.63-1c.8-.16,1.62-.08,2.43-.16a22.59,22.59,0,0,0,3.33-.76,5.9,5.9,0,0,1,2.92-.13,2.91,2.91,0,0,1,1.91,1.38,4.32,4.32,0,0,1,.41,1.41c0,.23,0,.45.07.67a1.85,1.85,0,0,1,.07.41c0,.22-.09.22-.3.22a1.76,1.76,0,0,1-1-.25,5.4,5.4,0,0,0-1.77-.57c-.59-.1-1.16-.24-1.75-.31l-1.76-.22-1.51-.23c-.49-.07-1-.07-1.5-.11s-.83,0-1.25,0a6.62,6.62,0,0,0-.77,0,4.07,4.07,0,0,1-.61,0,3.85,3.85,0,0,0-.59,0A4.61,4.61,0,0,1,74,166.19Z"/><path class="cls-40" d="M79.33,162.53c-.13.1-.3.2-.33.36a.76.76,0,0,0,0,.26c.09.37.71.39,1,.4a3.51,3.51,0,0,0,2.43-.87,2,2,0,0,0,.64-1.64,2.12,2.12,0,0,0-1.74-1.39,2.37,2.37,0,0,0-2.15.35,1.19,1.19,0,0,0-.38.7,4.39,4.39,0,0,0,.07.61c0,.28-.14.53,0,.8A1,1,0,0,0,79.33,162.53Z"/><path class="cls-40" d="M84.38,162.59a.4.4,0,0,1,.11-.44A.39.39,0,0,1,85,162a.55.55,0,0,1,.38.75.66.66,0,0,1-.55.31.52.52,0,0,1-.53-.38Z"/><path class="cls-40" d="M90.89,144.27a1.16,1.16,0,0,0-.66.52.41.41,0,0,0,0,.44,2.15,2.15,0,0,0,1.15,1,1.27,1.27,0,0,0,1-.08,2.8,2.8,0,0,0,.66-.67,7.68,7.68,0,0,0,.5-.63,1.07,1.07,0,0,0,.2-1.25,1.47,1.47,0,0,0-1.24-.67,2.08,2.08,0,0,0-.93.33C91.23,143.43,91,143.53,90.89,144.27Z"/><path class="cls-40" d="M89.18,146.17a1.85,1.85,0,0,1,.73.2c0,.11.13.17.08.31s-.38.13-.53.12a.77.77,0,0,1-.5-.22c0-.05-.26-.27-.09-.29Z"/><path class="cls-40" d="M66.38,161c-.16.29-.33.61-.06.92a1,1,0,0,0,1.07.09c.17-.08.36-.16.38-.35s0-.42,0-.61c0-.48.49-.82.06-1.27a1,1,0,0,0-.81-.29c-.48.09-.72.59-.89,1Z"/><path class="cls-40" d="M28.11,178.44a3,3,0,0,0-1.42.77l0,.22a1.32,1.32,0,0,0,0,1.1c.56,1.08,1.69.95,2.71.94s2.48.12,2-1.39a4.54,4.54,0,0,0-1.19-2.26c-.34-.23-.51-.12-.84,0a4.05,4.05,0,0,0-1.29.62Z"/><path class="cls-40" d="M40.61,180.15c.17-.3.42-.87.84-.92s.47.17.72.35c.56.39,1.08.91.54,1.62a1.49,1.49,0,0,1-1.24.45c-.37-.06-1-.5-.86-.93Z"/><path class="cls-40" d="M92.91,84.65a1.69,1.69,0,0,0-.21,1.72,4.15,4.15,0,0,0,.77,1.83c.63.66,1.49.5,2.28.67a1.51,1.51,0,0,0,1.51-.25A5.68,5.68,0,0,0,98.61,87a7.79,7.79,0,0,0,.16-6.54c-.56-1.27-1.4-2.71-2.83-3.11a3.41,3.41,0,0,0-3.43.86,3.93,3.93,0,0,0-.82,3.49l.24.86a6,6,0,0,1,0,1.12C92,84.08,92.21,84.44,92.91,84.65Z"/><path class="cls-40" d="M90.63,87.87c.8.63.68.53.8,1.33,0,.35.19.43.12.76a1.21,1.21,0,0,1-1.12.77c-.33,0-.85-.66-1-.92a.9.9,0,0,1,.06-1Z"/><path class="cls-40" d="M10.87,87.68c-.17.69-.4,1.51.36,2A1.75,1.75,0,0,0,13,89.3a4.77,4.77,0,0,0,1.46-2.56c.11-.88-.94-1.82-1.75-1.92-1.63-.2-2.51,2.4-2.6,3.62Z"/><path class="cls-40" d="M9.73,95.26c-.09-.19-.49-.75-.42-1s.16-.14.22-.23a1.22,1.22,0,0,1,.81-.68,1.66,1.66,0,0,1,1.86.86,1,1,0,0,1-.12,1.33,1.29,1.29,0,0,1-1.78.09Z"/><path class="cls-40" d="M82.3,183.18a5.81,5.81,0,0,0-.24,3.71c.15.81.27,1.87,1.13,2.23,2,.84,3.58-3.51,4-4.89a8.77,8.77,0,0,0,.23-3.71A4.21,4.21,0,0,0,86,178a2.09,2.09,0,0,0-2.51.83c-1.28,1.67-1,3.81-1.55,5.71Z"/><path class="cls-40" d="M81.25,182.89a5,5,0,0,0-1.44.32c-.23.15-.58.38-.65.65a1.12,1.12,0,0,0,.43,1,.79.79,0,0,0,.72.22c.18-.07.33-.33.45-.49a4.48,4.48,0,0,0,.49-.92,2,2,0,0,0,.2-.47c0-.27-.13-.36-.2-.57Z"/><path class="cls-40" d="M80.12,193.51l.68.31c0,.27.06.58-.2.76a1.4,1.4,0,0,1-.86,0,.67.67,0,0,1-.48-.65c0-.36.34-.51.67-.57Z"/><path class="cls-40" d="M48.67,207.81a.73.73,0,0,0,.12.86,1,1,0,0,0,1.39.14,2.75,2.75,0,0,0,1.08-2.3c-.11-.51-.76-1.09-1.27-.79a4.22,4.22,0,0,0-.81.57,2.37,2.37,0,0,0-.51,1.43Z"/><path class="cls-40" d="M73.77,40.51c-.24.22-.36.29-.41.59a1.33,1.33,0,0,0,.09,1,3.57,3.57,0,0,0,2.07,1.19A1.88,1.88,0,0,0,77.19,43a2.48,2.48,0,0,0,1.07-1.69,1.65,1.65,0,0,0-.7-1.78,5.09,5.09,0,0,0-1.88-.89,1.65,1.65,0,0,0-1.46.46C73.81,39.42,73.28,40,73.77,40.51Z"/><path class="cls-40" d="M79.08,42.87c0-.19,0-.42.19-.48a1.33,1.33,0,0,1,1,.38,1.16,1.16,0,0,1,.28.75.82.82,0,0,1-.34.44.68.68,0,0,1-.77,0c-.17-.1-.58-.32-.51-.57Z"/><path class="cls-40" d="M62.88,17.77a1.32,1.32,0,0,0,.18.85,3.72,3.72,0,0,0,1.14,1.13,3.28,3.28,0,0,0,2,.59,1.34,1.34,0,0,0,1-1.06,2.73,2.73,0,0,0-.46-1.82A3.58,3.58,0,0,0,63.82,16C62.52,16.07,62.48,18,62.88,17.77Z"/><path class="cls-40" d="M68.47,22.32a1,1,0,0,1-.3-.47c.19-.09.25-.3.46-.37a.85.85,0,0,1,1.07.74c0,.34-.11.4-.38.55s-.24.14-.45,0a2.41,2.41,0,0,1-.4-.29Z"/></g><path class="cls-42" d="M26.24,171c0,1-.61,1.89-1.37,1.89S23.5,172,23.5,171s.61-1.9,1.37-1.9S26.24,169.91,26.24,171Z"/><ellipse class="cls-17" cx="24.87" cy="170.96" rx="1.08" ry="1.49"/><path class="cls-43" d="M81,167a1.55,1.55,0,1,1-1.51-1.9A1.74,1.74,0,0,1,81,167Z"/><path class="cls-40" d="M80.72,167a1.22,1.22,0,1,1-1.19-1.49A1.36,1.36,0,0,1,80.72,167Z"/><path class="cls-44" d="M55.42,166.71a1.9,1.9,0,1,1-1.9-1.9A1.9,1.9,0,0,1,55.42,166.71Z"/><circle class="cls-17" cx="53.52" cy="166.71" r="1.49"/><circle class="cls-45" cx="54.13" cy="166.71" r="11.04" transform="translate(-40.58 19.22) rotate(-14.72)"/><path class="cls-46" d="M107,65.39a8.81,8.81,0,1,1-11.4-5A8.8,8.8,0,0,1,107,65.39Z"/><path class="cls-47" d="M60,5.63a8.81,8.81,0,1,1-11.4-5A8.82,8.82,0,0,1,60,5.63Z"/><path class="cls-48" d="M10.39,66.26a4.55,4.55,0,1,1-5.89-2.6A4.55,4.55,0,0,1,10.39,66.26Z"/><path class="cls-49" d="M82.61,165.47a4.25,4.25,0,1,1-5.5-2.43A4.26,4.26,0,0,1,82.61,165.47Z"/></g></g></g></svg>